<svg width="152" height="152" viewBox="0 0 152 152" fill="none" xmlns="http://www.w3.org/2000/svg">
<path fill-rule="evenodd" clip-rule="evenodd" d="M76 25.3333C79.738 25.3333 83.0978 23.7142 85.4163 21.139L114.31 50.0331H121.924L88.1499 16.2594C88.4862 15.1204 88.6667 13.9146 88.6667 12.6667C88.6667 5.67106 82.9956 0 76 0C69.0044 0 63.3333 5.67106 63.3333 12.6667C63.3333 13.9146 63.5138 15.1204 63.8501 16.2594L30.0764 50.0331H37.6896L66.5837 21.139C68.9022 23.7142 72.262 25.3333 76 25.3333ZM76 19.95C80.0225 19.95 83.2833 16.6891 83.2833 12.6667C83.2833 8.64419 80.0225 5.38333 76 5.38333C71.9775 5.38333 68.7167 8.64419 68.7167 12.6667C68.7167 16.6891 71.9775 19.95 76 19.95Z" fill="#2362A2"/>
<path d="M15.1999 76.0002C16.8788 76.0002 18.2399 74.6392 18.2399 72.9602C18.2399 71.2813 16.8788 69.9202 15.1999 69.9202C13.5209 69.9202 12.1599 71.2813 12.1599 72.9602C12.1599 74.6392 13.5209 76.0002 15.1999 76.0002Z" fill="#2362A2"/>
<path d="M18.2399 136.8C18.2399 138.479 16.8788 139.84 15.1999 139.84C13.5209 139.84 12.1599 138.479 12.1599 136.8C12.1599 135.121 13.5209 133.76 15.1999 133.76C16.8788 133.76 18.2399 135.121 18.2399 136.8Z" fill="#2362A2"/>
<path d="M139.84 72.9602C139.84 74.6392 138.479 76.0002 136.8 76.0002C135.121 76.0002 133.76 74.6392 133.76 72.9602C133.76 71.2813 135.121 69.9202 136.8 69.9202C138.479 69.9202 139.84 71.2813 139.84 72.9602Z" fill="#2362A2"/>
<path d="M139.84 136.8C139.84 138.479 138.479 139.84 136.8 139.84C135.121 139.84 133.76 138.479 133.76 136.8C133.76 135.121 135.121 133.76 136.8 133.76C138.479 133.76 139.84 135.121 139.84 136.8Z" fill="#2362A2"/>
<path fill-rule="evenodd" clip-rule="evenodd" d="M12.6667 57C5.67106 57 0 62.6711 0 69.6667V139.333C0 146.329 5.67106 152 12.6667 152H139.333C146.329 152 152 146.329 152 139.333V69.6667C152 62.6711 146.329 57 139.333 57H12.6667ZM139.333 61.75H12.6667C8.29441 61.75 4.75 65.2944 4.75 69.6667V139.333C4.75 143.706 8.29441 147.25 12.6667 147.25H139.333C143.706 147.25 147.25 143.706 147.25 139.333V69.6667C147.25 65.2944 143.706 61.75 139.333 61.75Z" fill="#2362A2"/>
<path d="M88.0034 102.576V108.385C88.0034 111.168 87.7268 113.544 87.1735 115.513C86.6365 117.466 85.8554 119.052 84.8302 120.273C83.805 121.493 82.5764 122.388 81.1444 122.958C79.7287 123.527 78.1421 123.812 76.3846 123.812C74.9852 123.812 73.6833 123.633 72.4792 123.275C71.2913 122.917 70.2173 122.356 69.2572 121.591C68.2971 120.826 67.4753 119.841 66.7918 118.637C66.1246 117.417 65.6039 115.96 65.2296 114.268C64.8716 112.576 64.6926 110.615 64.6926 108.385V102.576C64.6926 99.7771 64.9693 97.4176 65.5226 95.4974C66.0758 93.5609 66.8651 91.9906 67.8902 90.7864C68.9154 89.5659 70.1359 88.6791 71.5516 88.1258C72.9836 87.5725 74.5784 87.2959 76.3358 87.2959C77.7515 87.2959 79.0534 87.4749 80.2413 87.8329C81.4455 88.1746 82.5195 88.7198 83.4633 89.4683C84.4234 90.2169 85.237 91.1932 85.9042 92.3974C86.5877 93.5853 87.1084 95.0255 87.4664 96.7178C87.8244 98.3939 88.0034 100.347 88.0034 102.576ZM82.1208 109.215V101.697C82.1208 100.282 82.0394 99.0367 81.8767 97.9627C81.714 96.8724 81.4699 95.953 81.1444 95.2045C80.8352 94.4396 80.4447 93.8213 79.9728 93.3494C79.5009 92.8612 78.9639 92.5113 78.3618 92.2998C77.7597 92.072 77.0844 91.958 76.3358 91.958C75.4245 91.958 74.6109 92.137 73.8949 92.495C73.1789 92.8368 72.5768 93.39 72.0886 94.1549C71.6004 94.9197 71.2262 95.9286 70.9658 97.1816C70.7217 98.4183 70.5997 99.9236 70.5997 101.697V109.215C70.5997 110.647 70.681 111.908 70.8438 112.999C71.0065 114.089 71.2506 115.025 71.576 115.806C71.9015 116.571 72.292 117.205 72.7477 117.71C73.2196 118.198 73.7566 118.556 74.3587 118.784C74.977 119.012 75.6524 119.125 76.3846 119.125C77.3122 119.125 78.134 118.946 78.85 118.588C79.566 118.23 80.1681 117.661 80.6562 116.88C81.1444 116.082 81.5106 115.049 81.7546 113.78C81.9987 112.511 82.1208 110.989 82.1208 109.215Z" fill="#2362A2"/>
<path d="M118.415 102.576V108.385C118.415 111.168 118.139 113.544 117.585 115.513C117.048 117.466 116.267 119.052 115.242 120.273C114.217 121.493 112.988 122.388 111.556 122.958C110.141 123.527 108.554 123.812 106.796 123.812C105.397 123.812 104.095 123.633 102.891 123.275C101.703 122.917 100.629 122.356 99.669 121.591C98.7089 120.826 97.8871 119.841 97.2037 118.637C96.5365 117.417 96.0158 115.96 95.6415 114.268C95.2835 112.576 95.1045 110.615 95.1045 108.385V102.576C95.1045 99.7771 95.3811 97.4176 95.9344 95.4974C96.4877 93.5609 97.2769 91.9906 98.3021 90.7864C99.3273 89.5659 100.548 88.6791 101.963 88.1258C103.395 87.5725 104.99 87.2959 106.748 87.2959C108.163 87.2959 109.465 87.4749 110.653 87.8329C111.857 88.1746 112.931 88.7198 113.875 89.4683C114.835 90.2169 115.649 91.1932 116.316 92.3974C117 93.5853 117.52 95.0255 117.878 96.7178C118.236 98.3939 118.415 100.347 118.415 102.576ZM112.533 109.215V101.697C112.533 100.282 112.451 99.0367 112.289 97.9627C112.126 96.8724 111.882 95.953 111.556 95.2045C111.247 94.4396 110.857 93.8213 110.385 93.3494C109.913 92.8612 109.376 92.5113 108.774 92.2998C108.172 92.072 107.496 91.958 106.748 91.958C105.836 91.958 105.023 92.137 104.307 92.495C103.591 92.8368 102.989 93.39 102.5 94.1549C102.012 94.9197 101.638 95.9286 101.378 97.1816C101.134 98.4183 101.012 99.9236 101.012 101.697V109.215C101.012 110.647 101.093 111.908 101.256 112.999C101.418 114.089 101.662 115.025 101.988 115.806C102.313 116.571 102.704 117.205 103.16 117.71C103.631 118.198 104.168 118.556 104.771 118.784C105.389 119.012 106.064 119.125 106.796 119.125C107.724 119.125 108.546 118.946 109.262 118.588C109.978 118.23 110.58 117.661 111.068 116.88C111.556 116.082 111.922 115.049 112.166 113.78C112.411 112.511 112.533 110.989 112.533 109.215Z" fill="#2362A2"/>
<path fill-rule="evenodd" clip-rule="evenodd" d="M59.4002 110.87V115.556H54.9578V123.538H49.0752V115.556H33.7706L33.5753 112.017L48.9043 87.9983H54.9578V110.87H59.4002ZM39.702 110.87L49.0209 95.9316V110.87H39.702Z" fill="#2362A2"/>
<path fill-rule="evenodd" clip-rule="evenodd" d="M12.6667 61.75H139.333C143.706 61.75 147.25 65.2944 147.25 69.6667V139.333C147.25 143.706 143.706 147.25 139.333 147.25H12.6667C8.29441 147.25 4.75 143.706 4.75 139.333V69.6667C4.75 65.2944 8.29441 61.75 12.6667 61.75ZM15.1999 76.0002C16.8788 76.0002 18.2399 74.6392 18.2399 72.9602C18.2399 71.2813 16.8788 69.9202 15.1999 69.9202C13.5209 69.9202 12.1599 71.2813 12.1599 72.9602C12.1599 74.6392 13.5209 76.0002 15.1999 76.0002ZM18.2399 136.8C18.2399 138.479 16.8788 139.84 15.1999 139.84C13.5209 139.84 12.1599 138.479 12.1599 136.8C12.1599 135.121 13.5209 133.76 15.1999 133.76C16.8788 133.76 18.2399 135.121 18.2399 136.8ZM139.84 72.9602C139.84 74.6392 138.479 76.0002 136.8 76.0002C135.121 76.0002 133.76 74.6392 133.76 72.9602C133.76 71.2813 135.121 69.9202 136.8 69.9202C138.479 69.9202 139.84 71.2813 139.84 72.9602ZM139.84 136.8C139.84 138.479 138.479 139.84 136.8 139.84C135.121 139.84 133.76 138.479 133.76 136.8C133.76 135.121 135.121 133.76 136.8 133.76C138.479 133.76 139.84 135.121 139.84 136.8ZM88.0034 108.385V102.576C88.0034 100.347 87.8244 98.3939 87.4664 96.7178C87.1084 95.0255 86.5877 93.5853 85.9042 92.3974C85.237 91.1932 84.4234 90.2169 83.4633 89.4683C82.5195 88.7198 81.4455 88.1746 80.2413 87.8329C79.0534 87.4749 77.7515 87.2959 76.3358 87.2959C74.5784 87.2959 72.9836 87.5725 71.5516 88.1258C70.1359 88.6791 68.9154 89.5659 67.8902 90.7864C66.8651 91.9906 66.0758 93.5609 65.5226 95.4974C64.9693 97.4176 64.6926 99.7771 64.6926 102.576V108.385C64.6926 110.615 64.8716 112.576 65.2296 114.268C65.6039 115.96 66.1246 117.417 66.7918 118.637C67.4753 119.841 68.2971 120.826 69.2572 121.591C70.2173 122.356 71.2913 122.917 72.4792 123.275C73.6833 123.633 74.9852 123.812 76.3846 123.812C78.1421 123.812 79.7287 123.527 81.1444 122.958C82.5764 122.388 83.805 121.493 84.8302 120.273C85.8554 119.052 86.6365 117.466 87.1735 115.513C87.7268 113.544 88.0034 111.168 88.0034 108.385ZM118.415 108.385V102.576C118.415 100.347 118.236 98.3939 117.878 96.7178C117.52 95.0255 117 93.5853 116.316 92.3974C115.649 91.1932 114.835 90.2169 113.875 89.4683C112.931 88.7198 111.857 88.1746 110.653 87.8329C109.465 87.4749 108.163 87.2959 106.748 87.2959C104.99 87.2959 103.395 87.5725 101.963 88.1258C100.548 88.6791 99.3273 89.5659 98.3021 90.7864C97.2769 91.9906 96.4877 93.5609 95.9344 95.4974C95.3811 97.4176 95.1045 99.7771 95.1045 102.576V108.385C95.1045 110.615 95.2835 112.576 95.6415 114.268C96.0158 115.96 96.5365 117.417 97.2037 118.637C97.8871 119.841 98.7089 120.826 99.669 121.591C100.629 122.356 101.703 122.917 102.891 123.275C104.095 123.633 105.397 123.812 106.796 123.812C108.554 123.812 110.141 123.527 111.556 122.958C112.988 122.388 114.217 121.493 115.242 120.273C116.267 119.052 117.048 117.466 117.585 115.513C118.139 113.544 118.415 111.168 118.415 108.385ZM59.4002 115.556V110.87H54.9578V87.9983H48.9043L33.5753 112.017L33.7706 115.556H49.0752V123.538H54.9578V115.556H59.4002Z" fill="#D9EFFF"/>
<path d="M112.533 109.215V101.697C112.533 100.282 112.451 99.0367 112.289 97.9627C112.126 96.8724 111.882 95.953 111.556 95.2045C111.247 94.4396 110.857 93.8213 110.385 93.3494C109.913 92.8612 109.376 92.5113 108.774 92.2998C108.172 92.072 107.496 91.958 106.748 91.958C105.836 91.958 105.023 92.137 104.307 92.495C103.591 92.8368 102.989 93.39 102.5 94.1549C102.012 94.9197 101.638 95.9286 101.378 97.1816C101.134 98.4183 101.012 99.9236 101.012 101.697V109.215C101.012 110.647 101.093 111.908 101.256 112.999C101.418 114.089 101.662 115.025 101.988 115.806C102.313 116.571 102.704 117.205 103.16 117.71C103.631 118.198 104.168 118.556 104.771 118.784C105.389 119.012 106.064 119.125 106.796 119.125C107.724 119.125 108.546 118.946 109.262 118.588C109.978 118.23 110.58 117.661 111.068 116.88C111.556 116.082 111.922 115.049 112.166 113.78C112.411 112.511 112.533 110.989 112.533 109.215Z" fill="#D9EFFF"/>
<path d="M82.1208 109.215V101.697C82.1208 100.282 82.0394 99.0367 81.8767 97.9627C81.714 96.8724 81.4699 95.953 81.1444 95.2045C80.8352 94.4396 80.4447 93.8213 79.9728 93.3494C79.5009 92.8612 78.9639 92.5113 78.3618 92.2998C77.7597 92.072 77.0844 91.958 76.3358 91.958C75.4245 91.958 74.6109 92.137 73.8949 92.495C73.1789 92.8368 72.5768 93.39 72.0886 94.1549C71.6004 94.9197 71.2262 95.9286 70.9658 97.1816C70.7217 98.4183 70.5997 99.9236 70.5997 101.697V109.215C70.5997 110.647 70.681 111.908 70.8438 112.999C71.0065 114.089 71.2506 115.025 71.576 115.806C71.9015 116.571 72.292 117.205 72.7477 117.71C73.2196 118.198 73.7566 118.556 74.3587 118.784C74.977 119.012 75.6524 119.125 76.3846 119.125C77.3122 119.125 78.134 118.946 78.85 118.588C79.566 118.23 80.1681 117.661 80.6562 116.88C81.1444 116.082 81.5106 115.049 81.7546 113.78C81.9987 112.511 82.1208 110.989 82.1208 109.215Z" fill="#D9EFFF"/>
<path d="M49.0209 95.9316L39.702 110.87H49.0209V95.9316Z" fill="#D9EFFF"/>
</svg>
