<svg width="49" height="48" viewBox="0 0 49 48" fill="none" xmlns="http://www.w3.org/2000/svg">
<path fill-rule="evenodd" clip-rule="evenodd" d="M44.7727 2.78091H26.8639L24.2186 0L21.5734 2.78091H3.6645L0.400024 15.8388V48H48.0372V36.2721H46.3445V46.3073H27.4831V34.2166H19.7451V46.3073H2.09272V16.5642H10.798L24.2186 2.41813L37.6392 16.5642H46.3445V20.5542H48.0372V15.9597L44.7727 2.78091ZM43.5637 4.4736L46.0548 14.8715H38.3647L28.474 4.4736H43.5637ZM2.40809 14.8715L4.87357 4.4736H19.9632L10.0725 14.8715H2.40809ZM21.4378 46.3073H25.7904V35.9093H21.4378V46.3073Z" fill="currentColor"/>
<path fill-rule="evenodd" clip-rule="evenodd" d="M18.536 19.9497C18.536 22.7305 20.8332 25.0277 23.6141 25.0277C26.395 25.0277 28.6922 22.7305 28.6922 19.9497C28.6922 17.1688 26.395 14.8716 23.6141 14.8716C20.8332 14.8716 18.536 17.1688 18.536 19.9497ZM20.2287 19.9497C20.2287 18.1361 21.8005 16.5643 23.6141 16.5643C25.4277 16.5643 26.9995 18.1361 26.9995 19.9497C26.9995 21.7633 25.4277 23.335 23.6141 23.335C21.8005 23.335 20.2287 21.7633 20.2287 19.9497Z" fill="currentColor"/>
<path d="M47.9163 22.9723H46.3445V25.3904H47.9163V22.9723Z" fill="currentColor"/>
<path d="M47.9163 29.0176H46.3445V31.4357H47.9163V29.0176Z" fill="currentColor"/>
<path fill-rule="evenodd" clip-rule="evenodd" d="M34.3748 41.9547H43.2009V26.9622H34.3748V41.9547ZM35.9465 35.1839V40.262H41.6292V35.1839H35.9465ZM41.6292 33.6121V28.534H35.9465V33.6121H41.6292Z" fill="currentColor"/>
<path fill-rule="evenodd" clip-rule="evenodd" d="M6.44536 41.9547H15.2715V26.9622H6.44536V41.9547ZM8.13805 35.1839V40.262H13.8207V35.1839H8.13805ZM8.13805 33.6121V28.534H13.8207V33.6121H8.13805Z" fill="currentColor"/>
</svg>
