<svg version="1.1" xmlns="http://www.w3.org/2000/svg" xmlns:xlink="http://www.w3.org/1999/xlink">

	<!-- add -->
    <symbol id="add" viewBox="0 0 24 24">
		<path fill="currentColor" d="M13,7h-2v4H7v2h4v4h2v-4h4v-2h-4V7z M12,2C6.5,2,2,6.5,2,12s4.5,10,10,10s10-4.5,10-10
            S17.5,2,12,2z M12,20c-4.4,0-8-3.6-8-8s3.6-8,8-8s8,3.6,8,8S16.4,20,12,20z"/>
	</symbol>

    <!-- arrow-down -->
    <symbol id="arrow-down" viewBox="0 0 24 24">
        <polygon fill="currentColor" points="15.6,8.9 17,10.3 11.8,15.5 6.6,10.3 8,8.9 11.8,12.7 "/>
    </symbol>

    <!-- arrow-left -->
    <symbol id="arrow-left" viewBox="0 0 24 24">
        <polygon fill="currentColor" points="12,12 14.8,9.2 13.4,7.8 10.6,10.6 9.2,12 10.6,13.4 13.4,16.2 14.8,14.8 "/>
    </symbol>

    <!-- arrow-on -->
    <symbol id="arrow-on" viewBox="0 0 24 24">
        <path fill="currentColor" fill-rule="evenodd" clip-rule="evenodd" d="M7,15.2l1.3-3.4L7,8.3C6.9,8.1,7.1,7.9,7.3,8l9,3.5c0.2,0.1,0.2,0.3,0,0.4l-9,3.5C7.1,15.5,6.9,15.3,7,15.2"/>
    </symbol>

    <!-- arrow-right -->
    <symbol id="arrow-right" viewBox="0 0 24 24">
        <polygon fill="currentColor" points="12,12 9.2,14.8 10.6,16.2 13.4,13.4 14.8,12 13.4,10.6 10.6,7.8 9.2,9.2 "/>
    </symbol>

    <!-- attachment -->
    <symbol id="attachment" viewBox="0 0 24 24">
        <path fill="currentColor" d="M2,12c0-3,2.5-5.5,5.5-5.5H18c2.2,0,4,1.8,4,4s-1.8,4-4,4H9.5C8.1,14.5,7,13.4,7,12s1.1-2.5,2.5-2.5
		    H17v2H9.4c-0.5,0-0.5,1,0,1H18c1.1,0,2-0.9,2-2s-0.9-2-2-2H7.5C5.6,8.5,4,10.1,4,12s1.6,3.5,3.5,3.5H17v2H7.5C4.5,17.5,2,15,2,12z"/>
    </symbol>

    <!-- calendar -->
    <symbol id="calendar" viewBox="0 0 24 24">
        <path fill="currentColor" d="M17,13h-5v5h5V13z M16,2v2H8V2H6v2H5C3.9,4,3,4.9,3,6l0,14c0,1.1,0.9,2,2,2h14c1.1,0,2-0.9,2-2V6
		    c0-1.1-0.9-2-2-2h-1V2H16z M19,20H5V9h14V20z"/>
    </symbol>

    <!-- check -->
    <symbol id="check" viewBox="0 0 24 24">
        <path fill="currentColor" d="M9,15.7l-3.5-3.5c-0.4-0.4-1-0.4-1.4,0c-0.4,0.4-0.4,1,0,1.4l4.2,4.2c0.4,0.4,1,0.4,1.4,0
		    L20.3,7.2c0.4-0.4,0.4-1,0-1.4c-0.4-0.4-1-0.4-1.4,0L9,15.7z"/>
    </symbol>

    <!-- compass -->
    <symbol id="compass" viewBox="0 0 24 24">
        <path fill="currentColor" fill-rule="evenodd" clip-rule="evenodd" d="M12,12.6c-0.3,0-0.5-0.2-0.5-0.5c0-0.3,0.2-0.5,0.5-0.5c0.3,0,0.5,0.2,0.5,0.5
            C12.5,12.3,12.3,12.6,12,12.6 M12,7c2.8,0,5,2.2,5,5c0,2.8-2.2,5-5,5c-2.8,0-5-2.2-5-5C7,9.2,9.2,7,12,7z M12,7.8
            c-2.3,0-4.2,1.9-4.2,4.2c0,2.3,1.9,4.2,4.2,4.2c2.3,0,4.2-1.9,4.2-4.2C16.2,9.7,14.3,7.8,12,7.8z M14,9.7c0.2-0.1,0.4,0.1,0.3,0.3
            l0,0L13,13.1c0,0.1-0.1,0.1-0.1,0.1l0,0l-2.9,1c-0.2,0.1-0.4-0.1-0.3-0.3l0,0l1.3-3.1c0-0.1,0.1-0.1,0.1-0.1l0,0L14,9.7z"/>
    </symbol>

    <!-- cross -->
    <symbol id="cross" viewBox="0 0 24 24">
	    <path fill-rule="evenodd" clip-rule="evenodd" fill="currentColor" d="M9.1,16.2l-1.4-1.4l2.8-2.8L7.6,9.2l1.4-1.4l2.8,2.8l0.1,0.1l0.1-0.1l2.8-2.8l1.4,1.4
		    L13.5,12l2.8,2.8l-1.4,1.4L12,13.3L9.1,16.2z"/>
    </symbol>

    <!-- dashboard -->
    <symbol id="dashboard" viewBox="0 0 24 24">
        <path fill="currentColor" fill-rule="evenodd" clip-rule="evenodd" d="M9,15v2H7v-2H9z M13,15v2h-2v-2H13z M17,15v2h-2v-2H17z M9,11v2H7v-2H9z M13,11v2h-2v-2H13
		    z M17,11v2h-2v-2H17z M9,7v2H7V7H9z M13,7v2h-2V7H13z M17,7v2h-2V7H17z"/>
    </symbol>

    <!-- download -->
    <symbol id="download" viewBox="0 0 24 24">
	    <path fill-rule="evenodd" clip-rule="evenodd" fill="currentColor" d="M21,21H3v-2h18V21z M17,11.5l-5,5l-5-5l1.4-1.4l2.6,2.6V3h2v9.7l2.6-2.6L17,11.5z"/>
    </symbol>

    <!-- e-envelope -->
    <symbol id="e-envelope" viewBox="0 0 24 24">
        <path fill="currentColor" d="M13,17.2H2c-0.3,0-0.7-0.3-0.7-0.8V5c0-0.5,0.4-0.8,0.7-0.8h16.6c0.3,0,0.7,0.3,0.7,0.8v5.9c0,0.1-0.1,0.3-0.2,0.4
            c-0.1,0.1-0.3,0.1-0.4,0.1c0,0-2.2-0.2-3.7,1.2c-1.8,1.7-1.5,4-1.4,4.1c0,0.1,0,0.3-0.1,0.4C13.3,17.1,13.2,17.2,13,17.2z M2.2,16.2
            h10.3c0-0.9,0.2-2.8,1.8-4.4c1.3-1.3,3.1-1.5,3.9-1.5V5.2h-16V16.2z"/>
        <path fill="currentColor" d="M20.9,18.1h1.3c0.1,0,0.1,0,0.1,0.1C22.1,19,21.6,19.5,21,20c-0.6,0.4-1.5,0.7-2.5,0.7c-1.3,0-2.2-0.4-3-1.1
            c-0.7-0.7-1.1-1.7-1.1-3s0.4-2.3,1.1-3.1c0.7-0.7,1.7-1.1,2.9-1.1c1.1,0,2.1,0.4,2.8,1.1s1.1,1.7,1.1,3c0,0.1,0,0.2,0,0.3
            c0,0,0,0.1-0.1,0.1h-6.2c0,0-0.1,0-0.1,0.1c0.1,0.8,0.3,1.4,0.8,1.8c0.5,0.5,1.1,0.7,1.8,0.7c0.5,0,1.1-0.2,1.5-0.4
            C20.4,18.7,20.8,18.4,20.9,18.1L20.9,18.1z M16.2,15.7h4.6c0,0,0.1,0,0.1-0.1c0-0.4-0.2-0.8-0.5-1.2c-0.5-0.5-1.1-0.8-1.9-0.8
            c-0.7,0-1.3,0.2-1.7,0.6C16.4,14.6,16,15,16.2,15.7C16,15.7,16,15.7,16.2,15.7z"/>
        <path fill="currentColor" d="M10.2,11.2c-0.1,0-0.2,0-0.3-0.1L3.1,6.8C2.9,6.7,2.8,6.4,2.9,6.1S3.4,5.8,3.6,6l6.6,4.1L16.6,6c0.2-0.1,0.5-0.1,0.7,0.1
            s0.1,0.5-0.1,0.7l-6.6,4.3C10.4,11.2,10.3,11.2,10.2,11.2z"/>
    </symbol>

    <!-- exit -->
    <symbol id="exit" viewBox="0 0 24 24">
	    <path fill-rule="evenodd" clip-rule="evenodd" fill="currentColor" d="M10.1,15.6l1.4,1.4l5-5l-5-5l-1.4,1.4l2.6,2.6H3v2h9.7L10.1,15.6z M19,3H5C3.9,3,3,3.9,3,5v4h2V5h14
		    v14H5v-4H3v4c0,1.1,0.9,2,2,2h14c1.1,0,2-0.9,2-2V5C21,3.9,20.1,3,19,3z"/>
    </symbol>

    <!-- external -->
    <symbol id="external" viewBox="0 0 24 24">
        <path fill="currentColor" d="M17,7v10H7V7H17z M13.6,9H9v6h6v-4.6l-3.5,3.5l-1.4-1.4L13.6,9z"/>
    </symbol>

    <!-- info -->
    <symbol id="info" viewBox="0 0 24 24">
        <path fill-rule="evenodd" clip-rule="evenodd" fill="currentColor" d="M12,4c4.4,0,8,3.6,8,8s-3.6,8-8,8s-8-3.6-8-8S7.6,4,12,4z M11.9,11.8
            c-0.5,0-0.9,0.4-0.9,0.9l0,0v1.9c0,0.5,0.4,0.9,0.9,0.9s0.9-0.4,0.9-0.9l0,0v-1.9C12.9,12.2,12.5,11.8,11.9,11.8z M12.9,8H11v1.9
            h1.9V8z"/>
    </symbol>

    <!-- lightbulb -->
    <symbol id="lightbulb" viewBox="0 0 24 24">
        <path fill="currentColor" fill-rule="evenodd" clip-rule="evenodd" d="M13.1,22c0.3,0,0.5,0.2,0.5,0.5S13.4,23,13.1,23h-3c-0.3,0-0.5-0.2-0.5-0.5S9.8,22,10.1,22
            H13.1z M14.1,20c0.3,0,0.5,0.2,0.5,0.5S14.4,21,14.1,21H9c-0.3,0-0.5-0.2-0.5-0.5S8.8,20,9,20H14.1z M15.7,6.7
            c1.2,1.2,1.9,2.8,1.9,4.5c0,1.7-0.7,3.3-1.9,4.5c-0.7,0.6-1.2,2-1.1,2.9c0,0.2-0.1,0.3-0.2,0.4L14.3,19H8.8
            c-0.2-0.1-0.3-0.3-0.2-0.5c0.1-1-0.4-2.2-1.1-2.9c-1.3-1.2-2-2.9-1.9-4.7C5.7,7.8,8.1,5.2,11.2,5C12.9,4.9,14.5,5.5,15.7,6.7z
            M6.6,15.9L6.6,15.9c0.2,0.2,0.2,0.5,0,0.7l0,0l-1.4,1.4c-0.2,0.2-0.5,0.2-0.7,0l0,0c-0.2-0.2-0.2-0.5,0-0.7l0,0l1.4-1.4
            C6.1,15.8,6.4,15.8,6.6,15.9z M17.3,15.9l1.4,1.4c0.2,0.2,0.2,0.5,0,0.7l0,0l0,0c-0.2,0.2-0.5,0.2-0.7,0l-1.4-1.4
            c-0.2-0.2-0.2-0.5,0-0.7l0,0C16.7,15.8,17.1,15.8,17.3,15.9z M4,10.5c0.3,0,0.5,0.2,0.5,0.5S4.3,11.5,4,11.5H2
            c-0.3,0-0.5-0.2-0.5-0.5s0.2-0.5,0.5-0.5H4z M21.1,10.5c0.3,0,0.5,0.2,0.5,0.5s-0.2,0.5-0.5,0.5h-2c-0.3,0-0.5-0.2-0.5-0.5
            s0.2-0.5,0.5-0.5H21.1z M11.7,7.5l-0.2,0c-0.3,0-0.5,0.3-0.5,0.5c0,0.3,0.3,0.5,0.5,0.5c0.6,0,1.3,0.2,1.7,0.7
            c0.5,0.5,0.7,1.1,0.7,1.8c0,0.3,0.2,0.5,0.5,0.5c0.3,0,0.5-0.2,0.5-0.5c0-1-0.4-1.9-1-2.5c-0.6-0.6-1.3-0.9-2.1-1L11.7,7.5z
            M18.7,3.9L18.7,3.9c0.2,0.2,0.2,0.5,0,0.7l0,0l-1.4,1.4c-0.2,0.2-0.5,0.2-0.7,0l0,0c-0.2-0.2-0.2-0.5,0-0.7l0,0L18,3.9
            C18.2,3.7,18.5,3.7,18.7,3.9z M5.2,3.9l1.4,1.4c0.2,0.2,0.2,0.5,0,0.7l0,0c-0.2,0.2-0.5,0.2-0.7,0L4.5,4.6c-0.2-0.2-0.2-0.5,0-0.7
            l0,0l0,0C4.7,3.7,5,3.7,5.2,3.9z M11.6,1c0.3,0,0.5,0.2,0.5,0.5v2c0,0.3-0.2,0.5-0.5,0.5h0c-0.3,0-0.5-0.2-0.5-0.5v-2
            C11.1,1.2,11.3,1,11.6,1L11.6,1z"/>
    </symbol>

    <!-- mail -->
    <symbol id="mail" viewBox="0 0 24 24">
        <path fill="currentColor" d="M20,4H4C2.9,4,2,4.9,2,6v12c0,1.1,0.9,2,2,2h16c1.1,0,2-0.9,2-2V6C22,4.9,21.1,4,20,4z M19.6,8.2
		    l-6.5,4.1c-0.7,0.4-1.5,0.4-2.1,0L4.4,8.2C4.2,8.1,4,7.8,4,7.5c0-0.7,0.7-1.1,1.3-0.7L12,11l6.7-4.2c0.6-0.3,1.3,0,1.3,0.7C20,7.8,19.9,8.1,19.6,8.2z"/>
    </symbol>

    <!-- message -->
    <symbol id="message" viewBox="0 0 24 24">
        <path fill="currentColor" d="M20.5,2h-16c-1.1,0-2,0.9-2,2l0,18l4-4h14c1.1,0,2-0.9,2-2V4C22.5,2.9,21.6,2,20.5,2z M18.5,14h-12v-2h12V14z M18.5,11h-12V9h12V11z M18.5,8h-12V6h12V8z"/>
    </symbol>

    <!-- more -->
    <symbol id="more" viewBox="0 0 24 24">
        <path fill="currentColor" d="M12,8c1.1,0,2-0.9,2-2s-0.9-2-2-2s-2,0.9-2,2S10.9,8,12,8z M12,10c-1.1,0-2,0.9-2,2s0.9,2,2,2
		    s2-0.9,2-2S13.1,10,12,10z M12,16c-1.1,0-2,0.9-2,2s0.9,2,2,2s2-0.9,2-2S13.1,16,12,16z"/>
    </symbol>

    <!-- notifications -->
    <symbol id="notifications" viewBox="0 0 24 24">
        <path fill="currentColor" d="M12,21.5c1.1,0,2-0.9,2-2h-4C10,20.6,10.9,21.5,12,21.5z M18,15.5v-5c0-3.1-1.6-5.6-4.5-6.3V3.5
		    C13.5,2.7,12.8,2,12,2s-1.5,0.7-1.5,1.5v0.7C7.6,4.9,6,7.4,6,10.5v5l-2,2v1h16v-1L18,15.5z"/>
    </symbol>

    <!-- phone -->
    <symbol id="phone" viewBox="0 0 24 24">
        <path fill-rule="evenodd" clip-rule="evenodd" fill="currentColor" d="M7.1,2.8C6.8,2.7,6.3,2.7,6,3L5.3,3.6l0,0C3.7,5.3,3.1,7.3,3.4,9.2C3.7,11.1,4.6,13,6,14.5l2.6,3l0,0
            c1.3,1.6,3,2.9,4.9,3.5c1.9,0.6,4,0.4,5.9-0.9l0,0l0,0l0.7-0.6c0.3-0.3,0.4-0.7,0.4-1c0-0.3-0.2-0.7-0.3-1c-0.1-0.1-0.2-0.3-0.3-0.4
            l-0.2-0.3l0,0l-0.3-0.3c-0.1-0.1-0.2-0.2-0.3-0.3l-0.3-0.3c-0.6-0.5-1.1-1-1.4-1.1c-0.7-0.3-1.5-0.1-2,0.3L14.2,16
            c-0.3,0.2-0.6,0.2-1,0.2c-0.4-0.1-0.9-0.5-1.1-0.7l-3.6-4.2c-0.2-0.2-0.3-0.6-0.3-1c0-0.4,0.1-0.7,0.3-0.9l1.1-0.9
            c0.6-0.5,0.8-1.2,0.7-1.9C10.3,6.3,10,5.7,9.6,5.2L9.3,4.8l0,0L9.1,4.4C9,4.4,9,4.3,8.9,4.2L8.7,3.9C8.4,3.6,8.2,3.4,8,3.3
            C7.7,3,7.5,2.9,7.1,2.8z"/>
    </symbol>

    <!-- place -->
    <symbol id="place" viewBox="0 0 24 24">
        <path fill="currentColor" d="M12,2C8.1,2,5,5.1,5,9c0,5.2,7,13,7,13s7-7.8,7-13C19,5.1,15.9,2,12,2z M12,11.5
		    c-1.4,0-2.5-1.1-2.5-2.5s1.1-2.5,2.5-2.5s2.5,1.1,2.5,2.5S13.4,11.5,12,11.5z"/>
    </symbol>

    <!-- plus -->
    <symbol id="plus" viewBox="0 0 24 24">
        <path fill="currentColor" fill-rule="evenodd" clip-rule="evenodd" d="M12,0v11.3l12,0V12H12v12h-0.7l0-12H0v-0.7l11.3,0l0-11.3H12z"/>
    </symbol>

    <!-- plus-small -->
    <symbol id="plus-small" viewBox="0 0 24 24">
	    <path fill-rule="evenodd" clip-rule="evenodd" fill="currentColor" d="M17.1,11.1v2l-4,0l0,4h-2v-4l0-0.1l-0.1,0l-4,0v-2h4v-4l2,0l0,4.1L17.1,11.1z"/>
    </symbol>

    <!-- point-right -->
    <symbol id="point-right" viewBox="0 0 24 24">
        <path fill="currentColor" d="M21,7.9h-8.1c0.1,0.6-0.3,1.3-0.6,1.8C12.2,9.8,12,9.9,11.9,10c-0.1,0.1-0.1,0.2,0,0.2h0.4c0.2,0,0.3,0.1,0.4,0.2
            c0.2,0.3,0,0.7-0.4,0.7H9.8c-0.1,0-0.2,0-0.2,0.1l0,0c-0.3,0.2-0.6,0.6-0.6,1s0.2,0.8,0.6,1l0,0c0.1,0,0.2,0.1,0.3,0.1h3.1
            c0.3,0,0.5,0.3,0.4,0.6c-0.1,0.2-0.3,0.3-0.5,0.3c-0.6,0-2.5,0-3,0c-0.1,0-0.2,0-0.3,0.1l0,0c-0.3,0.2-0.6,0.6-0.6,1
            c0,0.4,0.2,0.8,0.6,1c0.1,0,0.2,0.1,0.2,0.1H12c0.3,0,0.5,0.3,0.5,0.6c0,0.2-0.2,0.4-0.5,0.4H9.9c-0.1,0-0.2,0-0.3,0.1l0,0
            c-0.3,0.2-0.6,0.6-0.6,1c0,0.6,0.4,1.1,1,1.2h2.8c0.9,0,1.6-0.7,1.6-1.6c0-0.6-0.3-1-0.7-1.3h0.5c0.9,0,1.6-0.7,1.6-1.6
            c0-0.6-0.3-1-0.7-1.3h0.3c0.9,0,1.6-0.7,1.6-1.6c0-0.6-0.3-1-0.7-1.3H21c0.9,0,1.5-0.7,1.6-1.5C22.6,8.6,21.9,7.9,21,7.9z"/>
        <path fill="currentColor" d="M7.9,8.2c-0.2-0.1-0.2-0.4,0-0.6c0.2-0.2,0.4-0.2,0.6,0L10,9c0.5,0.5,1.3,0.4,1.8-0.1c0.5-0.5,0.4-1.3-0.1-1.8L8.9,4.6
            C8.4,4.2,7.6,4.2,7.1,4.7l0,0C4,7.7,3.6,8,2.9,8.7c-1,1-1.5,1.8-1.5,3.1v3.7c0,2.3,1.9,4.1,4.1,4.1h3c-0.2-0.4-0.4-0.8-0.4-1.2
            c0-0.6,0.3-1.2,0.7-1.6c-0.4-0.4-0.7-1-0.7-1.6c0-0.6,0.3-1.2,0.7-1.6c-0.4-0.4-0.7-1-0.7-1.6c0-0.9,0.4-1.7,1.3-2c0,0,0.1,0,0.2,0
            h0.4c0.1,0,0.1-0.1,0-0.2C9.9,10,9.8,9.9,9.6,9.8C9.5,9.7,9.6,9.8,7.9,8.2z"/>
    </symbol>

    <!-- remove -->
    <symbol id="remove" viewBox="0 0 24 24">
        <path fill="currentColor" d="M7,11v2h10v-2H7z M12,2C6.5,2,2,6.5,2,12s4.5,10,10,10s10-4.5,10-10S17.5,2,12,2z M12,20
		    c-4.4,0-8-3.6-8-8s3.6-8,8-8s8,3.6,8,8S16.4,20,12,20z"/>
    </symbol>

    <!-- search -->
    <symbol id="search" viewBox="0 0 24 24">
        <path fill="currentColor" d="M18,16.6l4.3,4.3l-1.4,1.4L16.6,18C15,19.3,13,20,11,20c-5,0-9-4-9-9s4-9,9-9s9,4,9,9C20,13,19.3,15,18,16.6z M16,15.9
	        c1.3-1.3,2-3.1,2-4.9c0-3.9-3.1-7-7-7c-3.9,0-7,3.1-7,7c0,3.9,3.1,7,7,7c1.8,0,3.6-0.7,4.9-2C15.9,16,16,15.9,16,15.9z"/>
    </symbol>

    <!-- settings -->
    <symbol id="settings" viewBox="0 0 24 24">
        <path fill="currentColor" d="M19.4,13c0-0.3,0.1-0.6,0.1-1s0-0.7-0.1-1l2.1-1.7c0.2-0.2,0.2-0.4,0.1-0.6l-2-3.5
            C19.5,5.1,19.3,5,19,5.1l-2.5,1c-0.5-0.4-1.1-0.7-1.7-1l-0.4-2.6C14.5,2.2,14.2,2,14,2h-4C9.8,2,9.5,2.2,9.5,2.4L9.1,5.1
            C8.5,5.3,8,5.7,7.4,6.1l-2.5-1C4.7,5,4.5,5.1,4.3,5.3l-2,3.5C2.2,8.9,2.3,9.2,2.5,9.4L4.6,11c0,0.3-0.1,0.6-0.1,1s0,0.7,0.1,1
            l-2.1,1.7c-0.2,0.1-0.2,0.4-0.1,0.6l2,3.5C4.5,19,4.7,19,4.9,19l2.5-1c0.5,0.4,1.1,0.7,1.7,1l0.4,2.6c0,0.2,0.2,0.4,0.5,0.4h4
            c0.2,0,0.5-0.2,0.5-0.4l0.4-2.6c0.6-0.2,1.2-0.6,1.7-1l2.5,1c0.2,0.1,0.5,0,0.6-0.2l2-3.5c0.1-0.2,0.1-0.5-0.1-0.6L19.4,13z
            M12,15.5c-1.9,0-3.5-1.6-3.5-3.5s1.6-3.5,3.5-3.5s3.5,1.6,3.5,3.5S13.9,15.5,12,15.5z"/>
    </symbol>

    <!-- sigma -->
    <symbol id="sigma" viewBox="0 0 24 24">
        <path fill="currentColor" d="M17,20H7c-0.4,0-0.7-0.2-0.9-0.5c-0.2-0.3-0.1-0.7,0.1-1.1l4.6-6.5L6.2,5.6C6,5.3,5.9,4.9,6.1,4.5C6.3,4.2,6.6,4,7,4h10
            c0.5,0,1,0.5,1,1v2h-2V6H8.9l3.9,5.4c0.3,0.3,0.3,0.8,0,1.1L8.9,18H16v-1h2v2C18,19.5,17.5,20,17,20L17,20z"/>
    </symbol>

    <!-- star -->
    <symbol id="star" viewBox="0 0 24 24">
        <polygon fill="currentColor" points="12,17.8 18.2,21.5 16.5,14.5 22,9.7 14.8,9.1 12,2.5 9.2,9.1 2,9.7 7.5,14.5 5.8,21.5 "/>
    </symbol>

    <!-- time -->
    <symbol id="time" viewBox="0 0 24 24">
        <path fill="currentColor" d="M12,2c5.5,0,10,4.5,10,10s-4.5,10-10,10C6.5,22,2,17.5,2,12S6.5,2,12,2z M12,4
		    c-4.4,0-8,3.6-8,8s3.6,8,8,8s8-3.6,8-8S16.4,4,12,4z M12.5,7v5.2l4.5,2.7l-0.8,1.2L11,13V7H12.5z"/>
    </symbol>

    <!-- user -->
    <symbol id="user" viewBox="0 0 24 24">
        <path fill="currentColor" d="M12,12c2.2,0,4-1.8,4-4s-1.8-4-4-4S8,5.8,8,8S9.8,12,12,12z M12,14c-2.7,0-8,1.3-8,4v2h16v-2C20,15.3,14.7,14,12,14z"/>
    </symbol>

    <!-- warning -->
    <symbol id="warning" viewBox="0 0 24 24">
        <path fill="currentColor" d="M4,20h15.1c1.5,0,2.5-1.7,1.7-3L13.3,4c-0.8-1.3-2.7-1.3-3.5,0L2.3,17C1.5,18.3,2.5,20,4,20z
            M11.5,13c-0.6,0-1-0.4-1-1v-2c0-0.5,0.4-1,1-1s1,0.5,1,1v2C12.5,12.6,12.1,13,11.5,13z M12.5,17h-2v-2h2V17z"/>
    </symbol>
</svg>
