<svg viewBox="0 0 24 24" xmlns="http://www.w3.org/2000/svg" xmlns:xlink="http://www.w3.org/1999/xlink" xml:space="preserve">
    <path fill="currentColor" d="M19,22.5c2,0,3.5-1.7,3.5-3.8V7.5h-21v11.2c0,2,1.5,3.8,3.5,3.8H19z M8.2,10.5h7.5c0.2,0,0.4,0.1,0.5,0.2
        c0.1,0.1,0.2,0.3,0.2,0.5s-0.1,0.4-0.2,0.5c-0.1,0.1-0.3,0.2-0.5,0.2H8.2c-0.2,0-0.4-0.1-0.5-0.2c-0.1-0.1-0.2-0.3-0.2-0.5
        s0.1-0.4,0.2-0.5C7.9,10.6,8.1,10.5,8.2,10.5z M1.2,1.5c-0.3,0-0.6,0.1-0.8,0.4C0.1,2.1,0,2.4,0,2.7v1.8c0,0.3,0.1,0.6,0.4,0.8
        c0.2,0.2,0.5,0.4,0.8,0.4h21.6c0.3,0,0.6-0.1,0.8-0.4C23.9,5.1,24,4.8,24,4.5V2.7c0-0.3-0.1-0.6-0.4-0.8c-0.2-0.2-0.5-0.4-0.8-0.4
        H1.2z"/>
</svg>
