<svg viewBox="0 0 24 24" xmlns="http://www.w3.org/2000/svg">
    <path fill="currentColor" d="M12 4C6.036 4 0 5.8552 0 9.4V14.2C0 17.7448 6.036 19.6 12 19.6C17.964 19.6 24 17.7448 24 14.2V9.4C24 5.8552 17.964 4 12 4ZM2.4 14.2V12.7636C3.16001 13.194 3.96479 13.5401 4.8 13.7956V16.0528C3.2256 15.436 2.4 14.7016 2.4 14.2ZM16.8 14.3776V16.7428C15.7596 16.9576 14.5596 17.1148 13.2 17.1724V14.7724C14.4077 14.7243 15.6106 14.5924 16.8 14.3776ZM10.8 17.1736C9.59041 17.1273 8.38652 16.9836 7.2 16.744V14.3788C8.3508 14.5876 9.5664 14.7232 10.8 14.7748V17.1736ZM19.2 16.0528V13.7956C20.0354 13.5406 20.8402 13.1945 21.6 12.7636V14.2C21.6 14.7016 20.7756 15.436 19.2 16.0528ZM12 12.4C5.7876 12.4 2.4 10.4188 2.4 9.4C2.4 8.3812 5.7876 6.4 12 6.4C18.2124 6.4 21.6 8.3812 21.6 9.4C21.6 10.4188 18.2124 12.4 12 12.4Z"/>
</svg>
