<svg viewBox="0 0 24 24" xmlns="http://www.w3.org/2000/svg" xmlns:xlink="http://www.w3.org/1999/xlink" xml:space="preserve">
    <path fill="currentColor" fill-rule="evenodd" clip-rule="evenodd" d="M12,12.6c-0.3,0-0.5-0.2-0.5-0.5c0-0.3,0.2-0.5,0.5-0.5c0.3,0,0.5,0.2,0.5,0.5
        C12.5,12.3,12.3,12.6,12,12.6 M12,7c2.8,0,5,2.2,5,5c0,2.8-2.2,5-5,5c-2.8,0-5-2.2-5-5C7,9.2,9.2,7,12,7z M12,7.8
        c-2.3,0-4.2,1.9-4.2,4.2c0,2.3,1.9,4.2,4.2,4.2c2.3,0,4.2-1.9,4.2-4.2C16.2,9.7,14.3,7.8,12,7.8z M14,9.7c0.2-0.1,0.4,0.1,0.3,0.3
        l0,0L13,13.1c0,0.1-0.1,0.1-0.1,0.1l0,0l-2.9,1c-0.2,0.1-0.4-0.1-0.3-0.3l0,0l1.3-3.1c0-0.1,0.1-0.1,0.1-0.1l0,0L14,9.7z"/>
</svg>
