<svg viewBox="0 0 24 24" xmlns="http://www.w3.org/2000/svg" xmlns:xlink="http://www.w3.org/1999/xlink" xml:space="preserve">
	<path fill="currentColor" d="M13,17.2H2c-0.3,0-0.7-0.3-0.7-0.8V5c0-0.5,0.4-0.8,0.7-0.8h16.6c0.3,0,0.7,0.3,0.7,0.8v5.9c0,0.1-0.1,0.3-0.2,0.4
		c-0.1,0.1-0.3,0.1-0.4,0.1c0,0-2.2-0.2-3.7,1.2c-1.8,1.7-1.5,4-1.4,4.1c0,0.1,0,0.3-0.1,0.4C13.3,17.1,13.2,17.2,13,17.2z M2.2,16.2
		h10.3c0-0.9,0.2-2.8,1.8-4.4c1.3-1.3,3.1-1.5,3.9-1.5V5.2h-16V16.2z"/>
	<path fill="currentColor" d="M20.9,18.1h1.3c0.1,0,0.1,0,0.1,0.1C22.1,19,21.6,19.5,21,20c-0.6,0.4-1.5,0.7-2.5,0.7c-1.3,0-2.2-0.4-3-1.1
		c-0.7-0.7-1.1-1.7-1.1-3s0.4-2.3,1.1-3.1c0.7-0.7,1.7-1.1,2.9-1.1c1.1,0,2.1,0.4,2.8,1.1s1.1,1.7,1.1,3c0,0.1,0,0.2,0,0.3
		c0,0,0,0.1-0.1,0.1h-6.2c0,0-0.1,0-0.1,0.1c0.1,0.8,0.3,1.4,0.8,1.8c0.5,0.5,1.1,0.7,1.8,0.7c0.5,0,1.1-0.2,1.5-0.4
		C20.4,18.7,20.8,18.4,20.9,18.1L20.9,18.1z M16.2,15.7h4.6c0,0,0.1,0,0.1-0.1c0-0.4-0.2-0.8-0.5-1.2c-0.5-0.5-1.1-0.8-1.9-0.8
		c-0.7,0-1.3,0.2-1.7,0.6C16.4,14.6,16,15,16.2,15.7C16,15.7,16,15.7,16.2,15.7z"/>
	<path fill="currentColor" d="M10.2,11.2c-0.1,0-0.2,0-0.3-0.1L3.1,6.8C2.9,6.7,2.8,6.4,2.9,6.1S3.4,5.8,3.6,6l6.6,4.1L16.6,6c0.2-0.1,0.5-0.1,0.7,0.1
		s0.1,0.5-0.1,0.7l-6.6,4.3C10.4,11.2,10.3,11.2,10.2,11.2z"/>
</svg>
