<?xml version="1.0" encoding="UTF-8"?>
<svg width="65px" height="59px" viewBox="0 0 65 59" version="1.1" xmlns="http://www.w3.org/2000/svg" xmlns:xlink="http://www.w3.org/1999/xlink">
    <title>e-vyrizeni</title>
    <g id="Search" stroke="none" stroke-width="1" fill="none" fill-rule="evenodd">
        <g id="gov_search" transform="translate(-863.000000, -649.000000)">
            <g id="e-vyrizeni" transform="translate(863.000000, 649.000000)">
                <g id="Group-17" fill="#2362A2">
                    <polygon id="Rectangle" points="0 0 65 0 65 59"></polygon>
                </g>
                <g id="e-obalka" transform="translate(35.450000, 11.450000)">
                    <path d="M19.1898,13.4694 L20.52,13.4442 C20.5704,13.4424 20.6082,13.4928 20.592,13.5414 C20.349,14.292 19.9206,14.8788 19.3068,15.3018 C18.666,15.7428 17.8488,15.9624 16.8516,15.9624 C15.597,15.9624 14.6034,15.6114 13.8672,14.9076 C13.1328,14.2056 12.7656,13.2192 12.7656,11.9502 C12.7656,10.638 13.1364,9.6192 13.8798,8.8938 C14.6232,8.1684 15.5862,7.8066 16.7706,7.8066 C17.9172,7.8066 18.8532,8.1612 19.5804,8.8722 C20.3076,9.5832 20.6712,10.5822 20.6712,11.8692 C20.6712,11.9358 20.6694,12.0294 20.6658,12.15 C20.664,12.1896 20.6316,12.222 20.592,12.222 L14.3478,12.222 C14.3046,12.222 14.2704,12.2598 14.274,12.303 C14.3388,13.1166 14.5872,13.6746 15.0516,14.1156 C15.5304,14.571 16.128,14.7996 16.8444,14.7996 C17.3772,14.7996 17.9532,14.6376 18.3312,14.3838 C18.6858,14.1444 19.0332,13.8006 19.125,13.5216 C19.1322,13.4892 19.1574,13.4694 19.1898,13.4694 Z M14.4288,11.1348 L19.0602,11.1348 C19.1016,11.1348 19.1376,11.1006 19.1358,11.0574 C19.116,10.6254 18.927,10.2078 18.6426,9.8982 C18.18,9.3888 17.5248,9.0738 16.7868,9.0738 C16.119,9.0738 15.5142,9.2484 15.0588,9.6552 C14.6214,10.0458 14.4144,10.422 14.355,11.0538 C14.3514,11.097 14.3856,11.1348 14.4288,11.1348 Z" id="Shape" fill="#FFFFFF" fill-rule="nonzero"></path>
                    <path d="M11.4066,12.1554 L0.2916,12.1554 C0.1692,12.1554 0.072,12.0168 0.072,11.844 L0.072,0.4068 C0.072,0.2358 0.171,0.0954 0.2916,0.0954 L16.8606,0.0954 C16.9812,0.0954 17.0802,0.234 17.0802,0.4068 L17.0802,6.3036 C17.0802,6.3036 14.706,6.003 13.0104,7.5942 C10.9656,9.5148 11.4066,12.1554 11.4066,12.1554 Z" id="Path" stroke="#FFFFFF" stroke-linecap="round" stroke-linejoin="round"></path>
                    <polyline id="Path" stroke="#FFFFFF" stroke-linecap="round" stroke-linejoin="round" points="1.7118 1.8324 8.5752 6.1254 15.1236 1.8324"></polyline>
                </g>
            </g>
        </g>
    </g>
</svg>