<svg viewBox="0 0 24 24" xmlns="http://www.w3.org/2000/svg">
    <path fill="currentColor" d="M21.5801 6.01875C21.7408 6.17946 21.8319 6.39643 21.8319 6.62411V23.1429C21.8319 23.617 21.4488 24 20.9747 24H3.83187C3.35777 24 2.97473 23.617 2.97473 23.1429V0.857143C2.97473 0.383036 3.35777 0 3.83187 0H15.2078C15.4354 0 15.6551 0.0910715 15.8158 0.251786L21.5801 6.01875ZM19.8551 7.01786L14.814 1.97679V7.01786H19.8551ZM7.26045 11.1964C7.20361 11.1964 7.14911 11.219 7.10892 11.2592C7.06874 11.2994 7.04616 11.3539 7.04616 11.4107V12.6964C7.04616 12.7533 7.06874 12.8078 7.10892 12.848C7.14911 12.8881 7.20361 12.9107 7.26045 12.9107H17.5462C17.603 12.9107 17.6575 12.8881 17.6977 12.848C17.7379 12.8078 17.7604 12.7533 17.7604 12.6964V11.4107C17.7604 11.3539 17.7379 11.2994 17.6977 11.2592C17.6575 11.219 17.603 11.1964 17.5462 11.1964H7.26045ZM7.26045 14.8393C7.20361 14.8393 7.14911 14.8619 7.10892 14.902C7.06874 14.9422 7.04616 14.9967 7.04616 15.0536V16.3393C7.04616 16.3961 7.06874 16.4506 7.10892 16.4908C7.14911 16.531 7.20361 16.5536 7.26045 16.5536H12.189C12.2458 16.5536 12.3004 16.531 12.3405 16.4908C12.3807 16.4506 12.4033 16.3961 12.4033 16.3393V15.0536C12.4033 14.9967 12.3807 14.9422 12.3405 14.902C12.3004 14.8619 12.2458 14.8393 12.189 14.8393H7.26045Z"/>
</svg>
