<svg viewBox="0 0 24 24" xmlns="http://www.w3.org/2000/svg">
    <path fill="currentColor" d="M13.9293 22.6171C14.1501 22.5145 14.3362 22.3554 14.4665 22.1579C14.5968 21.9603 14.6661 21.7321 14.6667 21.4992V14.7791C14.6667 14.4481 14.8067 14.1298 15.0573 13.8949L23.2187 6.24766C23.4659 6.01647 23.6622 5.74113 23.7963 5.43758C23.9304 5.13403 23.9997 4.80829 24 4.47922V1.25056C23.9993 1.08546 23.9642 0.922111 23.8968 0.769863C23.8294 0.617616 23.731 0.47946 23.6071 0.363303C23.4833 0.247147 23.3365 0.155271 23.1751 0.0929344C23.0137 0.0305979 22.8409 -0.000974977 22.6667 2.29373e-05H1.33333C0.596 2.29373e-05 0 0.558344 0 1.25056V4.47922C0 5.14238 0.281333 5.77902 0.781333 6.24766L8.94267 13.8949C9.06632 14.0104 9.16453 14.1481 9.23159 14.2999C9.29865 14.4517 9.33324 14.6146 9.33333 14.7791V22.7497C9.33333 23.6781 10.376 24.2819 11.2627 23.8663L13.9293 22.6171Z"/>
</svg>
