<svg viewBox="0 0 24 23" xmlns="http://www.w3.org/2000/svg">
    <path fill="currentColor" d="M20.1598 10.566L15.7153 14.9819C15.5141 15.1814 15.3962 15.4491 15.3855 15.7314C15.3749 16.0136 15.4721 16.2894 15.6578 16.5033C15.8434 16.7172 16.1037 16.8534 16.3862 16.8844C16.6688 16.9154 16.9527 16.839 17.1808 16.6705L17.3068 16.5617L23.6698 10.2396C23.8607 10.0502 23.9768 9.79901 23.9969 9.53174C24.017 9.26446 23.9397 8.99891 23.7793 8.78347L23.6698 8.65828L17.3068 2.33466C17.1067 2.13211 16.8364 2.01281 16.551 2.00097C16.2655 1.98914 15.9862 2.08566 15.7698 2.27095C15.5533 2.45623 15.416 2.7164 15.3855 2.99865C15.3551 3.28091 15.4338 3.5641 15.6058 3.79075L15.7153 3.91594L20.1598 8.3304H11.6249C8.60569 8.33044 5.70495 9.49758 3.53645 11.5849C1.36796 13.6721 0.101835 16.5158 0.00600052 19.5141L0 19.8822C0 20.1787 0.118525 20.463 0.329502 20.6726C0.540478 20.8822 0.826624 21 1.12499 21C1.42336 21 1.7095 20.8822 1.92048 20.6726C2.13145 20.463 2.24998 20.1787 2.24998 19.8822C2.24989 17.4711 3.19079 15.1538 4.87483 13.4178C6.55887 11.6817 8.85483 10.6621 11.2799 10.5734L11.6249 10.566H20.1598L15.7153 14.9819L20.1598 10.566Z"/>
</svg>
