<svg viewBox="0 0 24 24" xmlns="http://www.w3.org/2000/svg">
    <path fill="currentColor" d="M0.984375 24H6C6.65625 24 6.98438 23.6719 6.98438 23.0156C6.98438 22.3281 6.65625 21.9844 6 21.9844H3.42188L9.70312 15.7031C10.1094 15.2344 10.1094 14.7656 9.70312 14.2969C9.23438 13.8906 8.76562 13.8906 8.29688 14.2969L2.01562 20.5781V18C2.01562 17.3438 1.67188 17.0156 0.984375 17.0156C0.328125 17.0156 0 17.3438 0 18V23.0156C0 23.2969 0.09375 23.5312 0.28125 23.7188C0.46875 23.9062 0.703125 24 0.984375 24ZM23.0156 17.0156C22.3281 17.0156 21.9844 17.3438 21.9844 18V20.5781L15.7031 14.2969C15.2344 13.8906 14.7656 13.8906 14.2969 14.2969C13.8906 14.7656 13.8906 15.2344 14.2969 15.7031L20.5781 21.9844H18C17.3438 21.9844 17.0156 22.3281 17.0156 23.0156C17.0156 23.6719 17.3438 24 18 24H23.0156C23.2969 24 23.5312 23.9062 23.7188 23.7188C23.9062 23.5312 24 23.2969 24 23.0156V18C24 17.3438 23.6719 17.0156 23.0156 17.0156ZM23.0156 0H18C17.3438 0 17.0156 0.328125 17.0156 0.984375C17.0156 1.67188 17.3438 2.01562 18 2.01562H20.5781L14.2969 8.29688C13.8906 8.76562 13.8906 9.23438 14.2969 9.70312C14.4844 9.89062 14.7188 9.98438 15 9.98438C15.2812 9.98438 15.5156 9.89062 15.7031 9.70312L21.9844 3.42188V6C21.9844 6.65625 22.3281 6.98438 23.0156 6.98438C23.6719 6.98438 24 6.65625 24 6V0.984375C24 0.703125 23.9062 0.46875 23.7188 0.28125C23.5312 0.09375 23.2969 0 23.0156 0ZM0.984375 6.98438C1.67188 6.98438 2.01562 6.65625 2.01562 6V3.42188L8.29688 9.70312C8.48438 9.89062 8.71875 9.98438 9 9.98438C9.28125 9.98438 9.51562 9.89062 9.70312 9.70312C10.1094 9.23438 10.1094 8.76562 9.70312 8.29688L3.42188 2.01562H6C6.65625 2.01562 6.98438 1.67188 6.98438 0.984375C6.98438 0.328125 6.65625 0 6 0H0.984375C0.703125 0 0.46875 0.09375 0.28125 0.28125C0.09375 0.46875 0 0.703125 0 0.984375V6C0 6.65625 0.328125 6.98438 0.984375 6.98438Z"/>
</svg>
