<svg xmlns="http://www.w3.org/2000/svg" viewBox="0 0 24 24">
  <path fill="currentColor" d="M13.22,10.61l-.11-.11-3.11,.17v.44c.08,.03,.15,.04,.22,.06,.07,.01,.14,.03,.22,.06,.17,.06,.28,.11,.33,.17,.11,.06,.22,.17,.28,.28,.06,.11,.11,.22,.11,.39v3.72c0,.17-.06,.28-.11,.39-.06,.11-.17,.17-.28,.22-.02,0-.06,0-.09,.02-.05,.02-.12,.03-.18,.03-.11,.06-.22,.06-.33,.06v.44h4.06v-.44c-.11,0-.22,0-.33-.06-.06-.03-.1-.04-.14-.06-.04-.01-.08-.03-.14-.06-.11-.06-.22-.11-.28-.22-.06-.11-.11-.22-.11-.39v-5.11Z"/>
  <path fill="currentColor" d="M12.89,7.33c-.22-.22-.56-.33-.89-.33s-.67,.11-.89,.33c-.28,.22-.39,.5-.39,.83s.11,.61,.39,.83c.22,.22,.56,.33,.89,.33s.61-.11,.89-.33c.28-.22,.39-.5,.39-.83s-.17-.61-.39-.83Z"/>
  <path fill="currentColor" fill-rule="evenodd" d="M12,0C5.37,0,0,5.37,0,12s5.37,12,12,12,12-5.37,12-12S18.63,0,12,0Zm0,21.5c-5.25,0-9.5-4.25-9.5-9.5S6.75,2.5,12,2.5s9.5,4.25,9.5,9.5-4.25,9.5-9.5,9.5Z"/>
</svg>
