<svg viewBox="0 0 24 24" xmlns="http://www.w3.org/2000/svg">
    <path fill="currentColor" d="M0 14.2V8.2C0 7.54 0.2352 6.9752 0.7056 6.5056C1.1752 6.0352 1.74 5.8 2.4 5.8H7.2V3.4C7.2 2.74 7.4352 2.1748 7.9056 1.7044C8.3752 1.2348 8.94 1 9.6 1H14.4C15.06 1 15.6252 1.2348 16.0956 1.7044C16.5652 2.1748 16.8 2.74 16.8 3.4V5.8H21.6C22.26 5.8 22.8252 6.0352 23.2956 6.5056C23.7652 6.9752 24 7.54 24 8.2V14.2H15.6V13C15.6 12.66 15.4852 12.3748 15.2556 12.1444C15.0252 11.9148 14.74 11.8 14.4 11.8H9.6C9.26 11.8 8.9752 11.9148 8.7456 12.1444C8.5152 12.3748 8.4 12.66 8.4 13V14.2H0ZM9.6 5.8H14.4V3.4H9.6V5.8ZM10.8 16.6V14.2H13.2V16.6H10.8ZM2.4 23.8C1.74 23.8 1.1752 23.5652 0.7056 23.0956C0.2352 22.6252 0 22.06 0 21.4V16.6H8.4V17.8C8.4 18.14 8.5152 18.4248 8.7456 18.6544C8.9752 18.8848 9.26 19 9.6 19H14.4C14.74 19 15.0252 18.8848 15.2556 18.6544C15.4852 18.4248 15.6 18.14 15.6 17.8V16.6H24V21.4C24 22.06 23.7652 22.6252 23.2956 23.0956C22.8252 23.5652 22.26 23.8 21.6 23.8H2.4Z"/>
</svg>
