<svg viewBox="0 0 24 24" xmlns="http://www.w3.org/2000/svg" xmlns:xlink="http://www.w3.org/1999/xlink" xml:space="preserve">
    <path fill="currentColor" fill-rule="evenodd" clip-rule="evenodd" d="M13.1,22c0.3,0,0.5,0.2,0.5,0.5S13.4,23,13.1,23h-3c-0.3,0-0.5-0.2-0.5-0.5S9.8,22,10.1,22
        H13.1z M14.1,20c0.3,0,0.5,0.2,0.5,0.5S14.4,21,14.1,21H9c-0.3,0-0.5-0.2-0.5-0.5S8.8,20,9,20H14.1z M15.7,6.7
        c1.2,1.2,1.9,2.8,1.9,4.5c0,1.7-0.7,3.3-1.9,4.5c-0.7,0.6-1.2,2-1.1,2.9c0,0.2-0.1,0.3-0.2,0.4L14.3,19H8.8
        c-0.2-0.1-0.3-0.3-0.2-0.5c0.1-1-0.4-2.2-1.1-2.9c-1.3-1.2-2-2.9-1.9-4.7C5.7,7.8,8.1,5.2,11.2,5C12.9,4.9,14.5,5.5,15.7,6.7z
        M6.6,15.9L6.6,15.9c0.2,0.2,0.2,0.5,0,0.7l0,0l-1.4,1.4c-0.2,0.2-0.5,0.2-0.7,0l0,0c-0.2-0.2-0.2-0.5,0-0.7l0,0l1.4-1.4
        C6.1,15.8,6.4,15.8,6.6,15.9z M17.3,15.9l1.4,1.4c0.2,0.2,0.2,0.5,0,0.7l0,0l0,0c-0.2,0.2-0.5,0.2-0.7,0l-1.4-1.4
        c-0.2-0.2-0.2-0.5,0-0.7l0,0C16.7,15.8,17.1,15.8,17.3,15.9z M4,10.5c0.3,0,0.5,0.2,0.5,0.5S4.3,11.5,4,11.5H2
        c-0.3,0-0.5-0.2-0.5-0.5s0.2-0.5,0.5-0.5H4z M21.1,10.5c0.3,0,0.5,0.2,0.5,0.5s-0.2,0.5-0.5,0.5h-2c-0.3,0-0.5-0.2-0.5-0.5
        s0.2-0.5,0.5-0.5H21.1z M11.7,7.5l-0.2,0c-0.3,0-0.5,0.3-0.5,0.5c0,0.3,0.3,0.5,0.5,0.5c0.6,0,1.3,0.2,1.7,0.7
        c0.5,0.5,0.7,1.1,0.7,1.8c0,0.3,0.2,0.5,0.5,0.5c0.3,0,0.5-0.2,0.5-0.5c0-1-0.4-1.9-1-2.5c-0.6-0.6-1.3-0.9-2.1-1L11.7,7.5z
        M18.7,3.9L18.7,3.9c0.2,0.2,0.2,0.5,0,0.7l0,0l-1.4,1.4c-0.2,0.2-0.5,0.2-0.7,0l0,0c-0.2-0.2-0.2-0.5,0-0.7l0,0L18,3.9
        C18.2,3.7,18.5,3.7,18.7,3.9z M5.2,3.9l1.4,1.4c0.2,0.2,0.2,0.5,0,0.7l0,0c-0.2,0.2-0.5,0.2-0.7,0L4.5,4.6c-0.2-0.2-0.2-0.5,0-0.7
        l0,0l0,0C4.7,3.7,5,3.7,5.2,3.9z M11.6,1c0.3,0,0.5,0.2,0.5,0.5v2c0,0.3-0.2,0.5-0.5,0.5h0c-0.3,0-0.5-0.2-0.5-0.5v-2
        C11.1,1.2,11.3,1,11.6,1L11.6,1z"/>
</svg>
