<svg viewBox="0 0 24 24" xmlns="http://www.w3.org/2000/svg">
    <path fill="currentColor" d="M21.6 23.6013H2.4C1.76348 23.6013 1.15303 23.3484 0.702944 22.8983C0.252856 22.4482 0 21.8378 0 21.2013V8.06006C0.0199482 7.6634 0.136535 7.27762 0.339614 6.93629C0.542692 6.59497 0.826109 6.30845 1.1652 6.10166L10.7652 0.341663C11.1381 0.118092 11.5646 0 11.9994 0C12.4342 0 12.8607 0.118092 13.2336 0.341663L22.8336 6.10166C23.5548 6.53726 23.9976 7.31726 24 8.15966V21.2013C24 21.8378 23.7471 22.4482 23.2971 22.8983C22.847 23.3484 22.2365 23.6013 21.6 23.6013ZM2.4 9.04286V21.2013H21.6V9.04286L12 15.4425L2.4 9.04286ZM12 2.39966L3.9792 7.21166L12 12.5589L20.0196 7.21166L12 2.39966Z"/>
</svg>
