<svg viewBox="0 0 24 24" xmlns="http://www.w3.org/2000/svg" xmlns:xlink="http://www.w3.org/1999/xlink" xml:space="preserve">
    <path fill="currentColor" d="M19.5,14.7L19.5,14.7c0.7,0,1.3-0.1,1.9-0.2l-0.1,0c-1.1,4.1-4.9,7.1-9.3,7.1H12h0c-5.3,0-9.7-4.3-9.7-9.7v0
        c0-2.1,0.7-4.1,2-5.8c1.3-1.7,3-2.9,5.1-3.5l0.1,0C9.3,3.2,9.3,3.9,9.3,4.5v0C9.3,10.1,13.9,14.7,19.5,14.7L19.5,14.7L19.5,14.7z
        M12,0.5c-0.1-0.2-0.3-0.3-0.5-0.4C11.4,0,11.2,0,11,0h0C4.8,0.6,0,5.7,0,12v0c0,6.6,5.4,12,12,12h0.1c6.2,0,11.4-4.8,11.9-10.9l0,0
        c0-0.2,0-0.4-0.1-0.6c-0.1-0.2-0.2-0.3-0.3-0.5l0,0c-0.1-0.1-0.3-0.2-0.5-0.2c-0.2,0-0.4,0-0.6,0l0,0L22,12
        c-0.8,0.3-1.6,0.4-2.4,0.4h0c-2.1,0-4.1-0.8-5.6-2.3c-1.5-1.5-2.3-3.5-2.3-5.6v0c0-1,0.2-2,0.6-2.9l0,0.1c0.1-0.2,0.1-0.4,0.1-0.6
        C12.2,0.8,12.1,0.6,12,0.5L12,0.5L12,0.5z"/>
</svg>
