<svg viewBox="0 0 24 24" xmlns="http://www.w3.org/2000/svg">
    <path fill="currentColor" d="M3 0V24H11V19.3333H13.6667V24H21.6667V0H3ZM5.66667 2.66667H8.33333V5.33333H5.66667V2.66667ZM11 2.66667H13.6667V5.33333H11V2.66667ZM16.3333 2.66667H19V5.33333H16.3333V2.66667ZM5.66667 8H8.33333V10.6667H5.66667V8ZM11 8H13.6667V10.6667H11V8ZM16.3333 8H19V10.6667H16.3333V8ZM5.66667 13.3333H8.33333V16H5.66667V13.3333ZM11 13.3333H13.6667V16H11V13.3333ZM16.3333 13.3333H19V16H16.3333V13.3333ZM5.66667 18.6667H8.33333V21.3333H5.66667V18.6667ZM16.3333 18.6667H19V21.3333H16.3333V18.6667Z"/>
</svg>
