<svg viewBox="0 0 24 24" xmlns="http://www.w3.org/2000/svg" xmlns:xlink="http://www.w3.org/1999/xlink" xml:space="preserve">
	<path fill-rule="evenodd" clip-rule="evenodd" fill="currentColor" d="M7.1,2.8C6.8,2.7,6.3,2.7,6,3L5.3,3.6l0,0C3.7,5.3,3.1,7.3,3.4,9.2C3.7,11.1,4.6,13,6,14.5l2.6,3l0,0
		c1.3,1.6,3,2.9,4.9,3.5c1.9,0.6,4,0.4,5.9-0.9l0,0l0,0l0.7-0.6c0.3-0.3,0.4-0.7,0.4-1c0-0.3-0.2-0.7-0.3-1c-0.1-0.1-0.2-0.3-0.3-0.4
		l-0.2-0.3l0,0l-0.3-0.3c-0.1-0.1-0.2-0.2-0.3-0.3l-0.3-0.3c-0.6-0.5-1.1-1-1.4-1.1c-0.7-0.3-1.5-0.1-2,0.3L14.2,16
		c-0.3,0.2-0.6,0.2-1,0.2c-0.4-0.1-0.9-0.5-1.1-0.7l-3.6-4.2c-0.2-0.2-0.3-0.6-0.3-1c0-0.4,0.1-0.7,0.3-0.9l1.1-0.9
		c0.6-0.5,0.8-1.2,0.7-1.9C10.3,6.3,10,5.7,9.6,5.2L9.3,4.8l0,0L9.1,4.4C9,4.4,9,4.3,8.9,4.2L8.7,3.9C8.4,3.6,8.2,3.4,8,3.3
		C7.7,3,7.5,2.9,7.1,2.8z"/>
</svg>
