<svg viewBox="0 0 24 24" xmlns="http://www.w3.org/2000/svg">
    <path fill="currentColor" d="M23.1429 3H0.857143C0.383036 3 0 3.38304 0 3.85714V21C0 21.4741 0.383036 21.8571 0.857143 21.8571H23.1429C23.617 21.8571 24 21.4741 24 21V3.85714C24 3.38304 23.617 3 23.1429 3ZM22.0714 19.9286H1.92857V18.8598L5.63839 14.4589L9.65893 19.2268L15.9134 11.8125L22.0714 19.1143V19.9286ZM22.0714 16.4518L16.0768 9.34286C15.9911 9.24107 15.8357 9.24107 15.75 9.34286L9.65893 16.5643L5.80179 11.992C5.71607 11.8902 5.56071 11.8902 5.475 11.992L1.92857 16.1973V4.92857H22.0714V16.4518ZM6.42857 10.9286C6.73812 10.9286 7.04463 10.8676 7.33061 10.7491C7.61659 10.6307 7.87644 10.4571 8.09532 10.2382C8.3142 10.0193 8.48783 9.75945 8.60629 9.47347C8.72474 9.18749 8.78571 8.88097 8.78571 8.57143C8.78571 8.26188 8.72474 7.95537 8.60629 7.66939C8.48783 7.38341 8.3142 7.12356 8.09532 6.90468C7.87644 6.6858 7.61659 6.51217 7.33061 6.39371C7.04463 6.27525 6.73812 6.21429 6.42857 6.21429C5.80342 6.21429 5.20387 6.46263 4.76182 6.90468C4.31977 7.34673 4.07143 7.94628 4.07143 8.57143C4.07143 9.19658 4.31977 9.79613 4.76182 10.2382C5.20387 10.6802 5.80342 10.9286 6.42857 10.9286ZM6.42857 7.82143C6.84375 7.82143 7.17857 8.15625 7.17857 8.57143C7.17857 8.98661 6.84375 9.32143 6.42857 9.32143C6.01339 9.32143 5.67857 8.98661 5.67857 8.57143C5.67857 8.15625 6.01339 7.82143 6.42857 7.82143Z"/>
</svg>
