<svg viewBox="0 0 24 24" xmlns="http://www.w3.org/2000/svg" xmlns:xlink="http://www.w3.org/1999/xlink" xml:space="preserve">
    <path fill="currentColor" d="M23.1,3H0.9C0.4,3,0,3.4,0,3.9V21c0,0.5,0.4,0.9,0.9,0.9h22.3c0.5,0,0.9-0.4,0.9-0.9V3.9C24,3.4,23.6,3,23.1,3z
        M7.3,6.9c0.9,0,1.7,0.8,1.7,1.7c0,0.9-0.8,1.7-1.7,1.7c-0.9,0-1.7-0.8-1.7-1.7C5.6,7.6,6.4,6.9,7.3,6.9z M21.1,18.6
        c0,0-0.1,0.1-0.1,0.1H3c-0.1,0-0.2-0.1-0.2-0.2c0-0.1,0-0.1,0.1-0.1l4.6-5.4c0.1-0.1,0.2-0.1,0.3,0c0,0,0,0,0,0l2.7,3.2l4.2-5
        c0.1-0.1,0.2-0.1,0.3,0c0,0,0,0,0,0l6.2,7.3C21.2,18.4,21.2,18.5,21.1,18.6z"/>
</svg>
