<svg viewBox="0 0 24 24" xmlns="http://www.w3.org/2000/svg" xmlns:xlink="http://www.w3.org/1999/xlink" xml:space="preserve">
    <path fill="currentColor" d="M8,2.3c0.2,0.2,0.3,0.5,0.3,0.8c0,0.3-0.1,0.6-0.3,0.8L2.6,9.3L8,14.7c0.2,0.2,0.3,0.5,0.3,0.8
        c0,0.3-0.1,0.6-0.3,0.8c-0.2,0.2-0.5,0.3-0.8,0.3c-0.3,0-0.6-0.1-0.8-0.3L0.3,10C0.1,9.8,0,9.6,0,9.3s0.1-0.6,0.3-0.8l6.2-6.2
        C6.7,2.1,7,2,7.3,2C7.6,2,7.8,2.1,8,2.3z M13.4,2.3c0.2,0.2,0.3,0.5,0.3,0.8c0,0.3-0.1,0.6-0.3,0.8L9.1,8.2h3.1
        c6.6,0,11.9,5.3,11.9,11.9c0,0.3-0.1,0.6-0.3,0.8c-0.2,0.2-0.5,0.3-0.8,0.3c-0.3,0-0.6-0.1-0.8-0.3c-0.2-0.2-0.3-0.5-0.3-0.8
        c0-2.6-1-5-2.8-6.9s-4.3-2.8-6.9-2.8H9.1l4.4,4.4c0.2,0.2,0.3,0.5,0.3,0.8c0,0.3-0.1,0.6-0.3,0.8c-0.2,0.2-0.5,0.3-0.8,0.3
        c-0.3,0-0.6-0.1-0.8-0.3L5.7,10C5.5,9.8,5.4,9.6,5.4,9.3s0.1-0.6,0.3-0.8l6.2-6.2C12.1,2.1,12.4,2,12.7,2C13,2,13.2,2.1,13.4,2.3z"/>
</svg>
