<svg viewBox="0 0 24 24" xmlns="http://www.w3.org/2000/svg" xmlns:xlink="http://www.w3.org/1999/xlink" xml:space="preserve">
    <path fill="currentColor" d="M3.8,10.6l4.4,4.4c0.2,0.2,0.3,0.5,0.3,0.8c0,0.3-0.1,0.6-0.3,0.8c-0.2,0.2-0.4,0.4-0.7,0.4
        c-0.3,0-0.6,0-0.8-0.2l-0.1-0.1l-6.4-6.4C0.1,10.1,0,9.8,0,9.6S0.1,9,0.2,8.8l0.1-0.1l6.4-6.4C6.9,2.1,7.2,2,7.4,2
        C7.7,2,8,2.1,8.2,2.3C8.4,2.5,8.6,2.7,8.6,3c0,0.3,0,0.6-0.2,0.8L8.3,3.9L3.8,8.4h8.5c3,0,5.9,1.2,8.1,3.3c2.2,2.1,3.4,5,3.5,8
        l0,0.4c0,0.3-0.1,0.6-0.3,0.8c-0.2,0.2-0.5,0.3-0.8,0.3s-0.6-0.1-0.8-0.3c-0.2-0.2-0.3-0.5-0.3-0.8c0-2.4-0.9-4.8-2.6-6.5
        c-1.7-1.7-4-2.8-6.4-2.9l-0.3,0H3.8l4.4,4.4L3.8,10.6z"/>
</svg>
