<svg viewBox="0 0 24 24" xmlns="http://www.w3.org/2000/svg" xmlns:xlink="http://www.w3.org/1999/xlink" xml:space="preserve">
    <path fill="currentColor" d="M23.8,11.6L0.6,0C0.5,0,0.4,0,0.3,0C0.1,0.1,0,0.3,0,0.5l2.4,9.7c0,0.1,0.1,0.3,0.3,0.3L6.8,12l-4.1,1.4
        c-0.1,0-0.3,0.2-0.3,0.3L0,23.5c0,0.1,0,0.2,0,0.3C0.2,24,0.4,24.1,0.6,24l23.1-11.5c0.1,0,0.2-0.1,0.2-0.2
        C24.1,12,24,11.7,23.8,11.6z M2.7,20.7L4.1,15l8.2-2.8c0.1,0,0.1-0.1,0.1-0.1c0-0.1,0-0.2-0.1-0.3L4.1,9L2.7,3.3L20.1,12L2.7,20.7z"/>
</svg>
