<svg viewBox="0 0 24 24" xmlns="http://www.w3.org/2000/svg">
    <path fill="currentColor" fill-rule="evenodd" clip-rule="evenodd" d="M1.68 12C1.68 6.30373 6.29174 1.68662 11.988 1.68C17.6909 1.67337 22.32 6.29711 22.32 12C22.32 17.7029 17.6909 22.3266 11.988 22.32C6.29174 22.3134 1.68 17.6963 1.68 12ZM11.988 0C5.364 0 0 5.376 0 12C0 18.624 5.364 24 11.988 24C18.624 24 24 18.624 24 12C24 5.376 18.624 0 11.988 0ZM16.6181 15.061C16.8741 14.635 16.7363 14.082 16.3102 13.826L12.9158 11.7865L12.9458 6.38026C12.9484 5.90002 12.5582 5.51016 12.078 5.51328C11.6042 5.51635 11.2217 5.90112 11.2214 6.37493L11.2173 12.8658L15.3831 15.3689C15.8092 15.625 16.3621 15.4871 16.6181 15.061Z"/>
</svg>
