<svg viewBox="0 0 24 24" xmlns="http://www.w3.org/2000/svg">
    <path fill="currentColor" d="M24 4.41957C23.1177 4.83058 22.1682 5.10782 21.1719 5.23188C22.1891 4.59368 22.9691 3.58275 23.3369 2.3768C22.3855 2.96854 21.3322 3.39793 20.2102 3.62973C19.3123 2.62697 18.0325 2 16.6163 2C13.8973 2 11.6928 4.31031 11.6928 7.16029C11.6928 7.56415 11.7362 7.9578 11.8205 8.33612C7.72815 8.12067 4.09963 6.06666 1.67103 2.94455C1.24718 3.70631 1.00457 4.59265 1.00457 5.53924C1.00457 7.32929 1.8737 8.90898 3.19493 9.83413C2.38816 9.80707 1.62865 9.57476 0.964618 9.18826C0.964131 9.2097 0.964131 9.23166 0.964131 9.25361C0.964131 11.7533 2.66147 13.8385 4.9142 14.3133C4.50107 14.4308 4.06601 14.4941 3.61683 14.4941C3.29919 14.4941 2.9908 14.4619 2.69021 14.4011C3.31722 16.4511 5.13538 17.9434 7.28969 17.9848C5.60453 19.3689 3.48188 20.194 1.17459 20.194C0.777541 20.194 0.38536 20.1695 0 20.1215C2.17965 21.5863 4.76755 22.44 7.5479 22.44C16.6051 22.44 21.5573 14.5773 21.5573 7.75816C21.5573 7.53454 21.5529 7.31142 21.5436 7.08983C22.5053 6.36381 23.3404 5.45449 24 4.41957Z"/>
</svg>
