<svg viewBox="0 0 24 24" xmlns="http://www.w3.org/2000/svg">
    <path fill="currentColor" d="M12 15C13.6569 15 15 13.6569 15 12C15 10.3431 13.6569 9 12 9C10.3431 9 9 10.3431 9 12C9 13.6569 10.3431 15 12 15Z"/>
    <path fill="currentColor" d="M23.205 11.745C22.3229 9.46324 20.7915 7.48996 18.8001 6.06906C16.8087 4.64817 14.4446 3.84193 12 3.75C9.55539 3.84193 7.19129 4.64817 5.1999 6.06906C3.20851 7.48996 1.67712 9.46324 0.795001 11.745C0.735427 11.9098 0.735427 12.0902 0.795001 12.255C1.67712 14.5368 3.20851 16.51 5.1999 17.9309C7.19129 19.3518 9.55539 20.1581 12 20.25C14.4446 20.1581 16.8087 19.3518 18.8001 17.9309C20.7915 16.51 22.3229 14.5368 23.205 12.255C23.2646 12.0902 23.2646 11.9098 23.205 11.745ZM12 16.875C11.0358 16.875 10.0933 16.5891 9.2916 16.0534C8.48991 15.5177 7.86507 14.7564 7.49609 13.8656C7.12711 12.9748 7.03057 11.9946 7.21867 11.0489C7.40678 10.1033 7.87108 9.23464 8.55286 8.55285C9.23464 7.87107 10.1033 7.40677 11.0489 7.21867C11.9946 7.03057 12.9748 7.12711 13.8656 7.49609C14.7564 7.86506 15.5177 8.48991 16.0534 9.2916C16.5891 10.0933 16.875 11.0358 16.875 12C16.873 13.2923 16.3588 14.5311 15.445 15.445C14.5311 16.3588 13.2923 16.873 12 16.875Z"/>
</svg>
