<svg width="24" height="24" viewBox="0 0 24 24" fill="none" xmlns="http://www.w3.org/2000/svg">
<path d="M9 21.0019C9 20.6082 9.0776 20.2183 9.22836 19.8545C9.37913 19.4908 9.6001 19.1603 9.87868 18.8819C10.1573 18.6035 10.488 18.3826 10.852 18.232C11.2159 18.0813 11.606 18.0037 12 18.0037C12.394 18.0037 12.7841 18.0813 13.1481 18.232C13.512 18.3826 13.8427 18.6035 14.1213 18.8819C14.3999 19.1603 14.6209 19.4908 14.7716 19.8545C14.9224 20.2183 15 20.6082 15 21.0019C15 21.797 14.6839 22.5596 14.1213 23.1219C13.5587 23.6841 12.7956 24 12 24C11.2044 24 10.4413 23.6841 9.87868 23.1219C9.31607 22.5596 9 21.797 9 21.0019ZM9.294 2.99813C9.25405 2.61989 9.29412 2.23748 9.4116 1.87571C9.52909 1.51395 9.72136 1.18091 9.97596 0.8982C10.2306 0.615495 10.5418 0.389438 10.8894 0.2347C11.2371 0.0799627 11.6134 0 11.994 0C12.3746 0 12.7509 0.0799627 13.0986 0.2347C13.4462 0.389438 13.7574 0.615495 14.012 0.8982C14.2666 1.18091 14.4589 1.51395 14.5764 1.87571C14.6939 2.23748 14.7339 2.61989 14.694 2.99813L13.644 13.5126C13.6013 13.9202 13.4091 14.2976 13.1044 14.5719C12.7997 14.8462 12.4041 14.9981 11.994 14.9981C11.5839 14.9981 11.1883 14.8462 10.8836 14.5719C10.5789 14.2976 10.3867 13.9202 10.344 13.5126L9.294 2.99813Z" fill="currentColor"/>
</svg>
