<svg width="24" height="24" viewBox="0 0 24 24" fill="none" xmlns="http://www.w3.org/2000/svg">
<path d="M2.49616 23H21.5038C23.392 23 24.6508 20.8969 23.6438 19.2887L14.2029 3.20619C13.1958 1.59794 10.8042 1.59794 9.79712 3.20619L0.356225 19.2887C-0.650804 20.8969 0.607983 23 2.49616 23ZM11.9371 14.3402C11.1818 14.3402 10.6783 13.8454 10.6783 13.1031V10.6289C10.6783 10.0103 11.1818 9.39175 11.9371 9.39175C12.6923 9.39175 13.1958 10.0103 13.1958 10.6289V13.1031C13.1958 13.8454 12.6923 14.3402 11.9371 14.3402ZM13.1958 19.2887H10.6783V16.8144H13.1958V19.2887Z" fill="currentColor"/>
</svg>
