<svg viewBox="0 0 48 48" xmlns="http://www.w3.org/2000/svg">
    <path fill="currentColor" fill-rule="evenodd" d="M22.6,1.65C21.54,.59,20.11,0,18.62,0s-2.92,.59-3.98,1.65c-1.05,1.05-1.65,2.48-1.65,3.98s.59,2.92,1.65,3.98c1.05,1.05,2.48,1.65,3.98,1.65s2.92-.59,3.98-1.65c1.05-1.05,1.65-2.48,1.65-3.98s-.59-2.92-1.65-3.98Zm-1.06,6.89c-.77,.77-1.82,1.21-2.92,1.21s-2.14-.43-2.92-1.21c-.77-.77-1.21-1.82-1.21-2.92s.43-2.14,1.21-2.92c.77-.77,1.82-1.21,2.92-1.21s2.14,.43,2.92,1.21c.77,.77,1.21,1.82,1.21,2.92s-.43,2.14-1.21,2.92Z"/>
    <path fill="currentColor" d="M26.25,31c0-.41,.34-.75,.75-.75h11c.41,0,.75,.34,.75,.75s-.34,.75-.75,.75h-11c-.41,0-.75-.34-.75-.75Z"/>
    <path fill="currentColor" fill-rule="evenodd" d="M38,24h-2.5v-2.25h1.5c.41,0,.75-.34,.75-.75s-.34-.75-.75-.75h-6.01c-.24-1.18-.61-2.29-1.15-3.29-.65-1.21-1.58-2.31-2.88-3.1-1.3-.79-2.74-1.11-4.19-1.11H14.64c-1.45,0-2.89,.33-4.19,1.11-1.3,.78-2.23,1.89-2.88,3.1-1.23,2.29-1.57,5.18-1.57,8.07v3.97c0,.59,.14,1.18,.41,1.71,.27,.53,.66,.98,1.14,1.33,.48,.35,1.04,.58,1.62,.67,.08,.01,.17,.02,.25,.03,.51,.04,1.02-.01,1.5-.17,0,1.95,0,3.89,0,5.84,0,1.95,0,3.89,0,5.84,0,.97,.37,1.89,1.04,2.59,.67,.7,1.58,1.11,2.54,1.16,.96,.04,1.91-.29,2.64-.92,.27-.23,.5-.5,.68-.79,.32-.49,.52-1.06,.58-1.65v-.03h0l.26-10.6,.26,10.59h0v.05c.06,.59,.26,1.16,.58,1.65,.19,.29,.42,.56,.69,.8,.73,.64,1.67,.97,2.64,.93,.97-.04,1.88-.46,2.55-1.16,.27-.28,.49-.6,.66-.95,.31,.08,.63,.12,.96,.12v1c0,.55,.45,1,1,1s1-.45,1-1v-1h7v1c0,.55,.45,1,1,1s1-.45,1-1v-1c2.21,0,4-1.79,4-4v-14c0-2.21-1.79-4-4-4Zm-7-2.25h3v2.25h-3v-2.25Zm-6.71,24.05c-.4,.42-.95,.67-1.53,.7-.58,.03-1.15-.17-1.58-.56-.43-.37-.7-.9-.75-1.46l-.26-10.53c-.02-.81-.69-1.46-1.5-1.46-.81,0-1.48,.65-1.5,1.46l-.26,10.53c-.06,.56-.33,1.08-.76,1.45-.44,.38-1,.58-1.58,.55-.58-.03-1.12-.27-1.52-.69s-.62-.98-.62-1.56c0-3.62,0-7.24,0-10.87,0-3.62,0-7.24,0-10.87,0-.41-.34-.75-.75-.75s-.75,.34-.75,.75v8.5s-.32,.07-.47,.12c-.34,.11-.7,.14-1.05,.09-.35-.05-.68-.19-.97-.4s-.52-.48-.68-.8c-.16-.32-.25-.67-.25-1.02v-3.97c0-2.81,.34-5.4,1.4-7.36h0c.55-1.02,1.31-1.9,2.33-2.52h0c1.03-.62,2.19-.9,3.41-.9h8.13c1.22,0,2.38,.27,3.41,.9h0c1.03,.62,1.79,1.51,2.33,2.52,.41,.77,.72,1.64,.94,2.58h-1.45c-.21,0-.41,.09-.54,.23-.07,.07-.13,.16-.16,.26-.03,.08-.04,.16-.04,.25,0,.41,.34,.75,.75,.75h1.5v2.25h-2.5c-.2,0-.4,.01-.59,.04v-1.54c0-.41-.34-.75-.75-.75s-.75,.34-.75,.75v2.09c-1.15,.7-1.91,1.97-1.91,3.41v14c0,1.34,.66,2.53,1.68,3.26-.1,.2-.23,.38-.38,.54Zm16.21-3.8c0,1.38-1.12,2.5-2.5,2.5h-11c-1.38,0-2.5-1.12-2.5-2.5v-14c0-1.38,1.12-2.5,2.5-2.5h11c1.38,0,2.5,1.12,2.5,2.5v14Z"/>
</svg>
