<svg viewBox="0 0 48 48" xmlns="http://www.w3.org/2000/svg">
    <path fill="currentColor" d="M33,32.5v-1.5H15v1.5h18Z"/>
    <path fill="currentColor" d="M33,37.5v-1.5H15v1.5h18Z"/>
    <path fill="currentColor" d="M30,41v1.5h-12v-1.5h12Z"/>
    <path fill="currentColor" d="M18.5,19c.83,0,1.5-.67,1.5-1.5s-.67-1.5-1.5-1.5-1.5,.67-1.5,1.5,.67,1.5,1.5,1.5Z"/>
    <path fill="currentColor" d="M31,17.5c0,.83-.67,1.5-1.5,1.5s-1.5-.67-1.5-1.5,.67-1.5,1.5-1.5,1.5,.67,1.5,1.5Z"/>
    <path fill="currentColor" fill-rule="evenodd" d="M35,12.38c0-.76-.62-1.38-1.38-1.38h-2.2l-1.03-2.8c-.26-.72-.95-1.2-1.72-1.2h-9.36c-.77,0-1.46,.48-1.72,1.2l-1.03,2.8h-2.2c-.76,0-1.38,.62-1.38,1.38s.56,1.32,1.27,1.37c-.22,.3-.36,.68-.36,1.09v4.4c0,.84,.57,1.57,1.38,1.78v1.12c0,.51,.41,.92,.92,.92h1.83c.51,0,.92-.41,.92-.92v-.62c3.35,.37,6.73,.37,10.08,0v.62c0,.51,.41,.92,.92,.92h1.83c.51,0,.92-.41,.92-.92v-1.12c.8-.21,1.38-.93,1.38-1.78v-4.4c0-.41-.13-.78-.36-1.09,.71-.05,1.27-.65,1.27-1.37Zm-15.99-3.66c.05-.13,.17-.22,.31-.22h9.36c.14,0,.26,.09,.31,.22l1.57,4.28h-13.12l1.57-4.28Zm-4.63,4.03c-.21,0-.38-.17-.38-.38s.17-.38,.38-.38h1.83l-.27,.75h-1.56Zm18.21,6.48c0,.17-.12,.31-.29,.33l-2.31,.31c-3.97,.54-8.01,.54-11.98,0l-2.3-.31c-.17-.02-.29-.16-.29-.33v-4.4c0-.18,.15-.33,.33-.33h16.5c.18,0,.33,.15,.33,.33v4.4Zm1.04-6.48h-1.56l-.28-.75h1.83c.21,0,.38,.17,.38,.38s-.17,.38-.38,.38Z"/>
    <path fill="currentColor" fill-rule="evenodd" d="M6,0V48H42V0H6ZM40.5,46.5H7.5V1.5H40.5V46.5Z"/>
</svg>
