<svg viewBox="0 0 48 48" xmlns="http://www.w3.org/2000/svg" xmlns:xlink="http://www.w3.org/1999/xlink" xml:space="preserve">
	<path fill-rule="evenodd" clip-rule="evenodd" fill="currentColor" d="M33.9,6c2.2,0,4.2,1.3,5.1,3.3l0.1,0.2l1.8,4.5l3.1,0c1.9,0,3.4,1.5,3.4,3.4
		c0,1.6-1.2,3-2.7,3.3c1.1,1.1,1.8,2.7,1.8,4.5l0,0v4.4c0,2.2-1.1,4.1-2.8,5.2l0,4.1c0,1.2-0.8,2.3-1.9,2.4l-0.2,0h-3.7
		c-1.1,0-2-1-2.1-2.2l0-0.2l0-2.4c-4,0.5-8,0.7-12.1,0.7c-4,0-8.1-0.2-12.1-0.7l0,2.4c0,1.2-0.8,2.3-1.9,2.4l-0.2,0H5.7
		c-1.1,0-2-1-2.1-2.2l0-0.2l0-4.1c-1.7-1.1-2.8-3.1-2.8-5.2l0,0v-4.4c0-1.7,0.7-3.3,1.9-4.5C1.1,20.4,0,19,0,17.4
		c0-1.8,1.4-3.3,3.2-3.4l0.2,0l3,0l1.8-4.5c0.8-2,2.7-3.4,4.9-3.5l0.2,0H33.9z M5.1,35.5l0,3.4c0,0.5,0.3,0.8,0.5,0.8l0.1,0h3.7
		c0.3,0,0.6-0.3,0.6-0.7l0-0.1l0-2.6c-1.3-0.2-2.7-0.4-4-0.6C5.7,35.6,5.4,35.6,5.1,35.5z M42.2,35.5c-0.3,0.1-0.6,0.2-0.9,0.2
		c-1.3,0.2-2.7,0.4-4,0.6l0,2.6c0,0.5,0.3,0.8,0.5,0.8l0.1,0h3.7c0.3,0,0.6-0.3,0.6-0.7l0-0.1L42.2,35.5z M40.2,20.4H7.1
		c-2.6,0-4.8,2.1-4.8,4.8l0,0v4.4c0,2.3,1.7,4.3,4,4.7c5.8,1,11.6,1.5,17.4,1.5c5.8,0,11.6-0.5,17.3-1.5c2.3-0.4,4-2.4,4-4.7l0,0
		v-4.4C45,22.5,42.8,20.4,40.2,20.4L40.2,20.4z M8.8,22.9c2.2,0,4,1.8,4,4s-1.8,4-4,4s-4-1.8-4-4S6.6,22.9,8.8,22.9z M38.5,22.9
		c2.2,0,4,1.8,4,4s-1.8,4-4,4c-2.2,0-4-1.8-4-4S36.3,22.9,38.5,22.9z M8.8,24.4c-1.4,0-2.5,1.1-2.5,2.5c0,1.4,1.1,2.5,2.5,2.5
		c1.4,0,2.5-1.1,2.5-2.5C11.2,25.5,10.1,24.4,8.8,24.4z M38.5,24.4c-1.4,0-2.5,1.1-2.5,2.5c0,1.4,1.1,2.5,2.5,2.5s2.5-1.1,2.5-2.5
		C41,25.5,39.9,24.4,38.5,24.4z M44,15.5l-2.5,0l1.5,3.7l1,0c1,0,1.9-0.8,1.9-1.9c0-1-0.8-1.8-1.7-1.9L44,15.5z M5.8,15.5l-2.4,0
		c-1,0-1.9,0.8-1.9,1.9c0,1,0.8,1.8,1.7,1.9l0.1,0l0.9,0L5.8,15.5z M33.9,7.5H13.4c-1.6,0-3,0.9-3.7,2.4L9.6,10L6,18.9
		c0.4-0.1,0.7-0.1,1.1-0.1l0,0h33.1c0.4,0,0.7,0,1.1,0.1L37.7,10c-0.6-1.5-2-2.5-3.6-2.5L33.9,7.5z"/>
</svg>
