<svg viewBox="0 0 48 48" xmlns="http://www.w3.org/2000/svg">
    <path fill="currentColor" d="M41.17,16.81c-.29,.28-.43,.65-.43,1.11,0,.43,.14,.79,.41,1.08,.28,.29,.68,.43,1.2,.43s.91-.14,1.2-.43c.28-.29,.42-.65,.42-1.08s-.14-.81-.43-1.1c-.29-.3-.68-.45-1.18-.45s-.88,.14-1.17,.43Z"/>
    <path fill="currentColor" d="M46.29,3.2c-.88-.8-2.1-1.2-3.67-1.2s-2.75,.4-3.68,1.21c-.92,.8-1.39,1.9-1.41,3.28h2.85c0-.65,.2-1.16,.61-1.54,.41-.38,.96-.57,1.63-.57s1.23,.2,1.59,.59c.37,.38,.55,.94,.55,1.68,0,.55-.16,1.07-.47,1.55-.2,.31-.69,.84-1.45,1.58-.76,.73-1.27,1.41-1.52,2.03-.26,.62-.39,1.45-.39,2.48h2.66c.02-1.12,.28-1.98,.8-2.57l1.44-1.42c1.19-1.23,1.78-2.49,1.78-3.76,0-1.43-.44-2.54-1.32-3.34Z" style="fill-rule: evenodd;"/>
    <path fill="currentColor" fill-rule="evenodd" d="M35.58,25.22c.61-2.46,1.14-4.94,1.31-7.47,.09-1.28,.07-2.54-.13-3.65-.2-1.1-.59-2.13-1.32-2.86-.37-.37-.9-.7-1.44-.97-.55-.28-1.17-.52-1.76-.72-.59-.2-1.16-.35-1.64-.43-.16-.03-.32-.05-.47-.06-.52-1.36-1.68-2.32-3.07-2.98-1.59-.75-3.6-1.17-5.63-1.36-2.04-.19-4.15-.16-5.99,0-1.83,.17-3.44,.47-4.47,.85-3.36,1.26-5.76,3.34-7.27,5.95-1.5,2.61-2.09,5.71-1.91,8.98l.02,.43,.39,.18c.62,.29,1.46,.56,2.43,.79v3.23c-2.07,.38-3.65,2.2-3.65,4.38s1.7,4.14,3.9,4.42c.55,3.04,2,5.85,4.21,8.1,2.89,2.93,6.74,4.55,10.82,4.55h0c4.08,0,7.92-1.59,10.81-4.48,2.26-2.26,3.72-5.09,4.25-8.17,2.18-.28,3.87-2.15,3.87-4.41,0-2.06-1.4-3.79-3.3-4.3ZM2.61,29.52c0-1.29,.86-2.38,2.04-2.73v4.35c0,.38,.01,.75,.04,1.12-1.2-.33-2.08-1.44-2.08-2.74Zm.63-9.54c-.09-2.88,.47-5.52,1.74-7.73,1.33-2.31,3.46-4.17,6.52-5.32,.84-.32,2.31-.61,4.09-.77,1.77-.16,3.79-.19,5.73,0,1.95,.18,3.76,.58,5.14,1.23,1.32,.62,2.14,1.43,2.42,2.44-.02,.1-.03,.21-.04,.31-.02,.18-.03,.39-.04,.61,0,.07,0,.14-.01,.22h0c-.02,.4-.04,.86-.09,1.37-.11,1.21-.36,2.64-1,4.01-.64,1.36-1.68,2.68-3.4,3.66-1.73,.99-4.2,1.67-7.73,1.67-2.68,0-5.55-.2-8.05-.54-2.24-.3-4.11-.71-5.28-1.16Zm30.39,11.32c0,3.66-1.42,7.09-4.01,9.68-2.58,2.58-6.02,4.01-9.67,4.01h0c-3.66,0-7.09-1.45-9.68-4.07-2.58-2.62-4-6.09-4-9.77v-8.89c.65,.12,1.34,.23,2.06,.33,2.56,.35,5.49,.55,8.24,.55,3.72,0,6.45-.71,8.45-1.86,1.68-.96,2.81-2.2,3.58-3.51,.02,.67,.05,1.32,.1,1.93,.06,.65,.14,1.27,.27,1.79,.12,.5,.29,1,.56,1.36,.86,1.14,2.23,1.81,3.3,2.18,.29,.1,.56,.18,.81,.25v6.02Zm.77-7.32c-.3-.07-.68-.18-1.09-.32-.99-.35-2.03-.89-2.62-1.69-.09-.12-.21-.38-.31-.83-.1-.43-.18-.97-.23-1.58-.11-1.23-.13-2.71-.1-4.15,.03-1.44,.1-2.82,.17-3.84,.03-.41,.05-.75,.07-1.03h.08c.39,.08,.89,.21,1.43,.39,.54,.18,1.09,.4,1.56,.64,.49,.25,.86,.49,1.07,.7,.43,.43,.74,1.13,.91,2.09,.17,.95,.19,2.08,.11,3.3-.15,2.15-.61,4.47-1.05,6.31Zm.8,8.29c.02-.32,.03-.64,.03-.97v-4.5c1.18,.35,2.04,1.44,2.04,2.73s-.88,2.4-2.07,2.74Z"/>
    <path fill="currentColor" fill-rule="evenodd" d="M12.59,27.82c-.83,0-1.5,.67-1.5,1.5s.67,1.5,1.5,1.5,1.5-.67,1.5-1.5-.67-1.5-1.5-1.5Z"/>
    <path fill="currentColor" fill-rule="evenodd" d="M27.28,27.82c-.83,0-1.5,.67-1.5,1.5s.67,1.5,1.5,1.5,1.5-.67,1.5-1.5-.67-1.5-1.5-1.5Z"/>
    <path fill="currentColor" fill-rule="evenodd" d="M23.08,36.91h-6.29c-.4,0-.73,.32-.73,.73s.32,.73,.73,.73h6.29c.4,0,.73-.32,.73-.73s-.32-.73-.73-.73Z"/>
</svg>
