<svg viewBox="0 0 48 48" xmlns="http://www.w3.org/2000/svg" xmlns:xlink="http://www.w3.org/1999/xlink" xml:space="preserve">
    <path fill-rule="evenodd=" clip-rule="evenodd" fill="currentColor" d="M11.1,34.5c0,0.2-0.1,0.3-0.2,0.4c-0.2,0.2-0.6,0.1-0.7-0.1c-1.9-2.5-3.2-5.5-3.6-8.6c0-0.3,0.2-0.6,0.5-0.6
        c0.3,0,0.6,0.2,0.6,0.5c0.4,2.9,1.5,5.7,3.3,8.1C11,34.2,11.1,34.4,11.1,34.5L11.1,34.5z"/>
    <path fill-rule="evenodd=" clip-rule="evenodd" fill="currentColor" d="M10.9,13.9c-1.8,2.3-3,5.1-3.3,8.1c0,0.3-0.3,0.5-0.6,0.5c-0.3,0-0.5-0.3-0.5-0.6c0.4-3.1,1.6-6.1,3.6-8.6
        c0.2-0.2,0.5-0.3,0.7-0.1C11.1,13.3,11.1,13.6,10.9,13.9L10.9,13.9z"/>
    <path fill-rule="evenodd=" clip-rule="evenodd" fill="currentColor" d="M22.4,7.1c0,0.3-0.2,0.5-0.5,0.5C19,8,16.2,9.1,13.9,10.9c-0.2,0.2-0.6,0.1-0.7-0.1c-0.2-0.2-0.1-0.6,0.1-0.7
        c2.5-1.9,5.5-3.2,8.6-3.6C22.1,6.5,22.4,6.7,22.4,7.1C22.4,7,22.4,7,22.4,7.1L22.4,7.1z"/>
    <path fill-rule="evenodd=" clip-rule="evenodd" fill="currentColor" d="M35,10.5c0,0.1,0,0.2-0.1,0.3c-0.2,0.2-0.5,0.3-0.7,0.1c-2.3-1.8-5.1-3-8.1-3.3c-0.3,0-0.5-0.3-0.5-0.6
        c0-0.3,0.3-0.5,0.6-0.5c3.1,0.4,6.1,1.6,8.6,3.6C34.9,10.2,35,10.4,35,10.5L35,10.5z"/>
    <path fill-rule="evenodd=" clip-rule="evenodd" fill="currentColor" d="M41.5,21.9c0,0.3-0.2,0.5-0.5,0.5c-0.3,0-0.6-0.2-0.6-0.5c-0.4-2.9-1.5-5.7-3.3-8.1c-0.2-0.2-0.1-0.6,0.1-0.7
        c0.2-0.2,0.6-0.1,0.7,0.1C39.8,15.7,41.1,18.7,41.5,21.9C41.5,21.8,41.5,21.8,41.5,21.9L41.5,21.9z"/>
    <path fill-rule="evenodd=" clip-rule="evenodd" fill="currentColor" d="M41.5,26.1C41.5,26.2,41.5,26.2,41.5,26.1c-0.4,3.2-1.6,6.2-3.6,8.7c-0.2,0.2-0.5,0.3-0.7,0.1
        c-0.2-0.2-0.3-0.5-0.1-0.7c1.8-2.3,3-5.1,3.3-8.1c0-0.3,0.3-0.5,0.6-0.5C41.3,25.6,41.5,25.9,41.5,26.1L41.5,26.1z"/>
    <path fill-rule="evenodd=" clip-rule="evenodd" fill="currentColor" d="M13.9,26.1c0,0.3-0.2,0.5-0.5,0.5H4.9c-0.5,1.3-1.3,2.1-2.2,2.1C1.1,28.8,0,26.7,0,24c0-2.7,1.1-4.8,2.7-4.8
        c0.9,0,1.8,0.8,2.2,2.1h5.2c0.3,0,0.5,0.2,0.5,0.5c0,0.3-0.2,0.5-0.5,0.5H4.5c-0.2,0-0.4-0.2-0.5-0.4c-0.3-1-0.8-1.7-1.3-1.7
        c-0.8,0-1.6,1.6-1.6,3.7c0,2.1,0.8,3.7,1.6,3.7c0.5,0,1-0.7,1.3-1.7c0.1-0.2,0.3-0.4,0.5-0.4h8.8C13.6,25.6,13.9,25.8,13.9,26.1
        L13.9,26.1z"/>
    <path fill-rule="evenodd=" clip-rule="evenodd" fill="currentColor" d="M48,24c0,2.7-1.1,4.8-2.7,4.8c-0.9,0-1.8-0.8-2.2-2.1h-5.2c-0.3,0-0.5-0.2-0.5-0.5c0-0.3,0.2-0.5,0.5-0.5h5.6
        c0.2,0,0.4,0.2,0.5,0.4c0.3,1,0.8,1.7,1.3,1.7c0.8,0,1.6-1.6,1.6-3.7c0-2.1-0.8-3.7-1.6-3.7c-0.5,0-1,0.7-1.3,1.7
        c-0.1,0.2-0.3,0.4-0.5,0.4h-5.6c-0.3,0-0.5-0.2-0.5-0.5c0-0.3,0.2-0.5,0.5-0.5h5.2c0.5-1.3,1.3-2.1,2.2-2.1C46.9,19.2,48,21.3,48,24
        L48,24z"/>
    <path fill-rule="evenodd=" clip-rule="evenodd" fill="currentColor" d="M16.2,12.7c0,0.1-0.1,0.3-0.2,0.4c-0.2,0.2-0.5,0.2-0.8,0l-4-4c-0.2-0.2-0.2-0.4-0.1-0.6c0.5-1,0.6-1.8,0.3-2.2
        C11.3,6,10.8,6,10.2,6.2C9.4,6.5,8.5,7,7.8,7.8c-1.5,1.5-2,3.2-1.5,3.8c0.4,0.4,1.2,0.2,2.2-0.3c0.2-0.1,0.5-0.1,0.6,0.1l4,4
        c0.2,0.2,0.2,0.5,0,0.8c-0.2,0.2-0.5,0.2-0.8,0l-3.7-3.7C7.3,13,6.2,13,5.5,12.3C4.4,11.2,5.1,9,7,7c0.9-0.9,1.9-1.5,2.8-1.8
        c1.1-0.4,1.9-0.2,2.5,0.3C13,6.2,13,7.3,12.4,8.6l3.7,3.7C16.2,12.4,16.2,12.5,16.2,12.7L16.2,12.7z"/>
    <path fill-rule="evenodd=" clip-rule="evenodd" fill="currentColor" d="M43,37.1c0,1.1-0.7,2.6-2,3.9c-1.9,1.9-4.2,2.6-5.3,1.5c-0.7-0.7-0.7-1.8-0.1-3.1l-7.1-7.1
        c-0.2-0.2-0.2-0.5,0-0.8c0.2-0.2,0.5-0.2,0.8,0l7.4,7.4c0.2,0.2,0.2,0.4,0.1,0.6c-0.5,1-0.6,1.8-0.3,2.2c0.5,0.5,2.3,0,3.8-1.5
        c1.5-1.5,2-3.2,1.5-3.8c-0.4-0.4-1.2-0.2-2.2,0.3c-0.2,0.1-0.5,0.1-0.6-0.1l-4-4c-0.2-0.2-0.2-0.5,0-0.8c0.2-0.2,0.5-0.2,0.8,0
        l3.7,3.7c1.3-0.6,2.4-0.6,3.1,0.1C42.8,36,43,36.5,43,37.1z"/>
    <path fill-rule="evenodd=" clip-rule="evenodd" fill="currentColor" d="M18,33.5c0,0.1-0.1,0.3-0.2,0.4l-5.5,5.5c0.6,1.3,0.6,2.4-0.1,3.1c-0.6,0.6-1.4,0.7-2.5,0.3
        c-0.9-0.3-1.9-1-2.8-1.8c-1.9-1.9-2.6-4.2-1.5-5.3C6.2,35,7.3,35,8.6,35.6l3.7-3.7c0.2-0.2,0.5-0.2,0.8,0c0.2,0.2,0.2,0.5,0,0.8
        l-4,4c-0.2,0.2-0.4,0.2-0.6,0.1c-1-0.5-1.8-0.6-2.2-0.3C6,36.7,6,37.2,6.2,37.9c0.3,0.8,0.8,1.6,1.6,2.4c0.7,0.7,1.6,1.3,2.4,1.6
        c0.6,0.2,1.2,0.2,1.4-0.1c0.4-0.4,0.2-1.2-0.3-2.2c-0.1-0.2-0.1-0.5,0.1-0.6l5.8-5.8c0.2-0.2,0.5-0.2,0.8,0C18,33.2,18,33.4,18,33.5
        L18,33.5z"/>
    <path fill-rule="evenodd=" clip-rule="evenodd" fill="currentColor" d="M43,10.9c0,0.5-0.2,1-0.5,1.4c-0.7,0.7-1.8,0.7-3.1,0.1l-3.7,3.7c-0.2,0.2-0.5,0.2-0.8,0
        c-0.2-0.2-0.2-0.5,0-0.8l4-4c0.2-0.2,0.4-0.2,0.6-0.1c1,0.5,1.8,0.6,2.2,0.3c0.5-0.5,0-2.3-1.5-3.8c-1.5-1.5-3.2-2-3.8-1.5
        c-0.4,0.4-0.2,1.2,0.3,2.2c0.1,0.2,0.1,0.5-0.1,0.6l-4,4c-0.2,0.2-0.5,0.2-0.8,0c-0.2-0.2-0.2-0.5,0-0.8l3.7-3.7
        C35,7.3,35,6.2,35.7,5.5C36.8,4.4,39,5.1,41,7C42.3,8.3,43,9.8,43,10.9L43,10.9z"/>
    <path fill-rule="evenodd=" clip-rule="evenodd" fill="currentColor" d="M28.8,2.7c0,0.9-0.8,1.8-2.1,2.2v5.2c0,0.3-0.2,0.5-0.5,0.5c-0.3,0-0.5-0.2-0.5-0.5V4.5c0-0.2,0.2-0.4,0.4-0.5
        c1-0.3,1.7-0.8,1.7-1.3c0-0.8-1.6-1.6-3.7-1.6c-2.1,0-3.7,0.8-3.7,1.6c0,0.5,0.7,1,1.7,1.3c0.2,0.1,0.4,0.3,0.4,0.5l0,9.9
        c0,0.3-0.2,0.5-0.5,0.5c-0.3,0-0.5-0.2-0.5-0.5l0-9.5c-1.3-0.5-2.1-1.3-2.1-2.2C19.2,1.1,21.3,0,24,0C26.7,0,28.8,1.1,28.8,2.7
        L28.8,2.7z"/>
    <path fill-rule="evenodd=" clip-rule="evenodd" fill="currentColor" d="M28.8,45.3c0,1.5-2.1,2.7-4.8,2.7c-2.7,0-4.8-1.1-4.8-2.7c0-0.9,0.8-1.8,2.1-2.2l0-5.2c0-0.3,0.2-0.5,0.5-0.5
        s0.5,0.2,0.5,0.5l0,5.6c0,0.2-0.2,0.4-0.4,0.5c-1,0.3-1.7,0.8-1.7,1.3c0,0.8,1.6,1.6,3.7,1.6c2.1,0,3.7-0.8,3.7-1.6
        c0-0.5-0.7-1-1.7-1.3c-0.2-0.1-0.4-0.3-0.4-0.5l0-5.6c0-0.3,0.2-0.5,0.5-0.5c0.3,0,0.5,0.2,0.5,0.5v5.2C28,43.6,28.8,44.4,28.8,45.3
        L28.8,45.3z"/>
    <path fill-rule="evenodd=" clip-rule="evenodd" fill="currentColor" d="M35,37.5c0,0.2-0.1,0.3-0.2,0.4c-2.5,1.9-5.5,3.2-8.6,3.6c-0.3,0-0.6-0.2-0.6-0.5c0-0.3,0.2-0.6,0.5-0.6
        c2.9-0.4,5.7-1.5,8.1-3.3c0.2-0.2,0.6-0.1,0.7,0.1C35,37.3,35,37.4,35,37.5L35,37.5z"/>
    <path fill-rule="evenodd=" clip-rule="evenodd" fill="currentColor" d="M22.4,40.9C22.4,41,22.4,41,22.4,40.9c0,0.4-0.3,0.6-0.6,0.5c-3.1-0.4-6.1-1.6-8.6-3.6
        c-0.2-0.2-0.3-0.5-0.1-0.7c0.2-0.2,0.5-0.3,0.7-0.1c2.3,1.8,5.1,3,8.1,3.3C22.2,40.4,22.4,40.7,22.4,40.9L22.4,40.9z"/>
    <path fill-rule="evenodd=" clip-rule="evenodd" fill="currentColor" d="M33.1,19.7c0,2.1-1.7,3.7-3.7,3.7c-2.1,0-3.7-1.7-3.7-3.7c0-2.1,1.7-3.7,3.7-3.7C31.4,16,33.1,17.7,33.1,19.7z
        M26.7,19.7c0,1.5,1.2,2.7,2.7,2.7c1.5,0,2.7-1.2,2.7-2.7c0-1.5-1.2-2.7-2.7-2.7C27.9,17.1,26.7,18.3,26.7,19.7z"/>
    <path fill-rule="evenodd=" clip-rule="evenodd" fill="currentColor" d="M24.5,27.2c0,1.5-1.2,2.7-2.7,2.7s-2.7-1.2-2.7-2.7c0-1.5,1.2-2.7,2.7-2.7S24.5,25.7,24.5,27.2z M20.3,27.2
        c0,0.9,0.7,1.6,1.6,1.6c0.9,0,1.6-0.7,1.6-1.6c0-0.9-0.7-1.6-1.6-1.6C21,25.6,20.3,26.3,20.3,27.2z"/>
</svg>

