<svg viewBox="0 0 48 48" xmlns="http://www.w3.org/2000/svg" xmlns:xlink="http://www.w3.org/1999/xlink" xml:space="preserve">
    <path fill="currentColor" d="M43.9,11.5V1h-1.3v10.5H43.9z"/>
    <path fill="currentColor" d="M31.3,11.5V6.1c0-0.1,0.1-0.2,0.2-0.3c0.2-0.2,0.4-0.4,0.6-0.5C32.4,5.1,32.7,5,33,5c0.3,0,0.6,0.1,0.8,0.2
        c0.2,0.1,0.4,0.3,0.5,0.5c0.1,0.2,0.2,0.5,0.2,0.9v4.9h1.3V6.6c0-0.1,0-0.3,0.1-0.4c0.1-0.2,0.2-0.4,0.3-0.6
        c0.1-0.2,0.3-0.3,0.5-0.4C37.1,5.1,37.3,5,37.6,5c0.3,0,0.6,0,0.8,0.1c0.2,0.1,0.4,0.3,0.5,0.5c0.1,0.2,0.2,0.5,0.2,1v4.9h1.3V6.6
        c0-0.5-0.1-0.9-0.2-1.2c-0.1-0.3-0.3-0.6-0.5-0.8c-0.2-0.2-0.5-0.4-0.8-0.5C38.7,4,38.4,4,38,4c-0.5,0-0.9,0.1-1.3,0.3
        c-0.4,0.2-0.7,0.4-0.9,0.7c-0.1,0.1-0.1,0.2-0.2,0.2c-0.1-0.2-0.2-0.4-0.4-0.6c-0.2-0.2-0.5-0.4-0.8-0.5C34.2,4,33.8,4,33.5,4
        c-0.5,0-0.9,0.1-1.3,0.3c-0.3,0.2-0.6,0.4-0.9,0.7l0-0.8h-1.2v7.4H31.3z"/>
    <path fill="currentColor" d="M23.8,4.1l1.6,2.7l1.6-2.7h1.5l-2.4,3.7l2.5,3.7h-1.5l-1.7-2.8l-1.7,2.8h-1.5l2.5-3.7l-2.4-3.7H23.8z"/>
    <path fill="currentColor" d="M21.1,4.3v1.5H5.4v39.7h29.5V17.1h1.5V47H4V4.3H21.1z"/>
    <path fill="currentColor" d="M23.1,33.9v1.5H8.7v-1.5H23.1z"/>
    <path fill="currentColor" d="M23.1,26.4v-1.5H8.7v1.5H23.1z"/>
    <path fill="currentColor" d="M16.1,15.9v1.5H8.7v-1.5H16.1z"/>
</svg>
