<svg viewBox="0 0 48 48" xmlns="http://www.w3.org/2000/svg" xmlns:xlink="http://www.w3.org/1999/xlink" xml:space="preserve">
    <path fill="currentColor" d="M29.7,7.9c0,1.1-0.3,2-0.8,2.7s-1.2,1-2.1,1c-0.9,0-1.6-0.3-2.1-0.9v3.6h-1.3V4.1h1.2l0.1,0.8c0.5-0.6,1.2-1,2.1-1
        c0.9,0,1.6,0.3,2.1,1c0.5,0.7,0.8,1.6,0.8,2.8V7.9z M28.4,7.7c0-0.8-0.2-1.5-0.5-2S27,5,26.4,5c-0.8,0-1.3,0.3-1.7,1v3.5
        c0.4,0.7,1,1,1.7,1c0.6,0,1.1-0.2,1.4-0.7C28.2,9.4,28.4,8.7,28.4,7.7z"/>
    <path fill="currentColor" d="M31.2,7.7c0-1.1,0.3-2,0.8-2.7s1.2-1,2.1-1c0.9,0,1.6,0.3,2.1,0.9V1h1.3v10.5h-1.2l-0.1-0.8c-0.5,0.6-1.2,0.9-2.1,0.9
        c-0.9,0-1.6-0.4-2.1-1.1C31.5,9.9,31.2,9,31.2,7.7L31.2,7.7z M32.4,7.9c0,0.8,0.2,1.5,0.5,2s0.8,0.7,1.4,0.7c0.8,0,1.4-0.4,1.8-1.1
        V6.1c-0.4-0.7-1-1-1.7-1c-0.6,0-1.1,0.2-1.4,0.7S32.4,6.9,32.4,7.9z"/>
    <path fill="currentColor" d="M40.2,11.5V5.1H39v-1h1.2V3.3c0-0.8,0.2-1.4,0.6-1.8s1-0.6,1.8-0.6c0.3,0,0.6,0,0.9,0.1l-0.1,1c-0.2,0-0.4-0.1-0.7-0.1
        c-0.4,0-0.7,0.1-1,0.4c-0.2,0.2-0.3,0.6-0.3,1v0.8h1.6v1h-1.6v6.4H40.2z"/>
    <path fill="currentColor" d="M21.6,4.3v1.5H5.9v39.7h29.5V17.1h1.5V47H4.5V4.3H21.6z"/>
    <path fill="currentColor" d="M23.6,33.9v1.5H9.2v-1.5H23.6z"/>
    <path fill="currentColor" d="M23.6,26.4v-1.5H9.2v1.5H23.6z"/>
    <path fill="currentColor" d="M16.6,15.9v1.5H9.2v-1.5H16.6z"/>
</svg>
