<svg viewBox="0 0 48 48" xmlns="http://www.w3.org/2000/svg" xmlns:xlink="http://www.w3.org/1999/xlink" xml:space="preserve">
    <path fill="currentColor" fill-rule="evenodd" clip-rule="evenodd" d="M35.5,11.4c0.3-0.2,0.6-0.4,0.9-0.7l0.1,0.8h1.2V1h-1.3v3.8c-0.2-0.3-0.5-0.5-0.8-0.6C35.1,4,34.7,4,34.2,4
        c-0.4,0-0.8,0.1-1.2,0.3c-0.4,0.2-0.7,0.4-0.9,0.8c-0.3,0.3-0.5,0.7-0.6,1.2c-0.1,0.5-0.2,1-0.2,1.5v0.1c0,0.5,0.1,1,0.2,1.5
        c0.1,0.5,0.3,0.9,0.6,1.2c0.3,0.3,0.6,0.6,0.9,0.8c0.4,0.2,0.8,0.3,1.2,0.3C34.7,11.6,35.1,11.6,35.5,11.4z M36,5.6
        c0.1,0.1,0.2,0.3,0.3,0.5v3.4c0,0,0,0.1-0.1,0.1c-0.2,0.3-0.4,0.5-0.7,0.7c-0.3,0.2-0.6,0.3-1,0.3c-0.3,0-0.6-0.1-0.9-0.2
        c-0.2-0.1-0.4-0.3-0.6-0.6c-0.2-0.2-0.3-0.5-0.4-0.9c-0.1-0.3-0.1-0.7-0.1-1V7.7c0-0.4,0-0.7,0.1-1c0.1-0.3,0.2-0.6,0.4-0.9
        c0.2-0.3,0.4-0.4,0.6-0.6C33.9,5.1,34.2,5,34.5,5c0.3,0,0.6,0.1,0.8,0.2C35.6,5.3,35.8,5.5,36,5.6z"/>
    <path fill="currentColor" fill-rule="evenodd" clip-rule="evenodd" d="M23.1,7.9V7.7c0-0.5,0.1-1,0.2-1.5C23.5,5.8,23.7,5.4,24,5c0.3-0.3,0.6-0.6,1.1-0.8C25.5,4.1,26,4,26.5,4
        c0.5,0,1,0.1,1.4,0.3C28.3,4.4,28.7,4.7,29,5c0.3,0.3,0.5,0.7,0.7,1.2c0.2,0.5,0.2,1,0.2,1.5v0.2c0,0.5-0.1,1-0.2,1.5
        c-0.2,0.5-0.4,0.9-0.7,1.2c-0.3,0.3-0.6,0.6-1.1,0.8c-0.4,0.2-0.9,0.3-1.4,0.3c-0.5,0-1-0.1-1.4-0.3c-0.4-0.2-0.8-0.5-1.1-0.8
        c-0.3-0.3-0.5-0.7-0.7-1.2C23.2,8.9,23.1,8.4,23.1,7.9z M24.4,7.7v0.2c0,0.4,0,0.7,0.1,1c0.1,0.3,0.2,0.6,0.4,0.9
        c0.2,0.3,0.4,0.4,0.7,0.6c0.3,0.1,0.6,0.2,0.9,0.2c0.3,0,0.6-0.1,0.9-0.2c0.3-0.1,0.5-0.3,0.7-0.6c0.2-0.3,0.3-0.5,0.4-0.9
        c0.1-0.3,0.1-0.7,0.1-1V7.7c0-0.4,0-0.7-0.1-1c-0.1-0.3-0.2-0.6-0.4-0.9c-0.2-0.3-0.4-0.5-0.7-0.6C27.1,5.1,26.8,5,26.5,5
        c-0.3,0-0.7,0.1-0.9,0.2c-0.3,0.1-0.5,0.3-0.7,0.6c-0.2,0.3-0.3,0.5-0.4,0.9C24.4,7,24.4,7.4,24.4,7.7z"/>
    <path fill="currentColor" d="M42.8,5.1v-1h-1.4V2.3h-1.3v1.8h-1.4v1h1.4v4.6c0,0.5,0.1,0.9,0.2,1.2c0.2,0.3,0.4,0.5,0.6,0.6
        c0.3,0.1,0.5,0.2,0.9,0.2c0.2,0,0.4,0,0.6,0c0.2,0,0.3-0.1,0.4-0.1l0-1c-0.1,0-0.1,0-0.3,0.1c-0.1,0-0.2,0-0.3,0
        c-0.1,0-0.3,0-0.4-0.1c-0.1,0-0.2-0.1-0.3-0.3c-0.1-0.1-0.1-0.3-0.1-0.6V5.1H42.8z"/>
    <path fill="currentColor" d="M21.6,4.3v1.5H5.9v39.7h29.5V17.1h1.5V47H4.5V4.3H21.6z"/>
    <path fill="currentColor" d="M23.6,33.9v1.5H9.2v-1.5H23.6z"/>
    <path fill="currentColor" d="M23.6,26.4v-1.5H9.2v1.5H23.6z"/>
    <path fill="currentColor" d="M16.6,15.9v1.5H9.2v-1.5H16.6z"/>
</svg>
