<svg viewBox="0 0 48 48" xmlns="http://www.w3.org/2000/svg" xmlns:xlink="http://www.w3.org/1999/xlink" xml:space="preserve">
	<path fill="currentColor" d="M36,21.7c-0.1-0.3-0.4-0.7-0.6-1c-0.5-0.5-0.9-0.8-1.3-0.9c-0.3-0.1-0.7-0.2-1.1-0.2v-1.5c0.6,0,1.1,0.1,1.5,0.2
		c0.9,0.3,1.5,0.8,1.9,1.3c0.4,0.4,0.7,0.9,1,1.4L36,21.7z"/>
	<rect fill="currentColor" x="22.8" y="39.2" width="20" height="1.3"/>
	<path fill="currentColor" d="M42.3,43.4H23.7v-2.6h-1.8v-4l21-0.4l1.6,4.5h-2.3V43.4z M25.1,42h15.8v-2.6h1.7L42,37.7l-18.8,0.4v1.4h1.8V42z"/>
	<path fill="currentColor" d="M36.1,37.3h-6.3v-4.7c0-0.8-0.3-1.6-0.9-2c-2.3-2-3.6-4.8-3.6-7.7v-0.7c0.2-2,1-3.6,2.4-5c1.7-1.3,3.5-2,5.1-2
		c2,0,3.9,0.7,5.4,2.1c1.5,1.5,2.3,3.4,2.3,5.4c0,3.1-1.2,5.9-3.6,7.9c-0.6,0.5-0.9,1.2-0.9,2V37.3z M31.3,35.9h3.3v-3.3
		c0-1.2,0.5-2.3,1.5-3.2c2-1.7,3-4,3-6.7c0-1.6-0.7-3.1-1.9-4.4c-1.2-1.1-2.7-1.7-4.4-1.7c-1.7,0-3.2,0.9-4.1,1.6
		c-1.1,1.1-1.7,2.4-1.9,4l0,0.6c0,2.5,1.1,4.9,3,6.5c0.9,0.7,1.5,1.9,1.5,3.2V35.9z"/>
	<polygon points="22.3,43.7 4.2,43.7 4.2,4.3 34.8,4.3 34.8,13.1 33.4,13.1 33.4,5.7 5.6,5.7 5.6,42.3 22.3,42.3 "/>
	<rect fill="currentColor" x="9.8" y="27.2" width="13.6" height="1.3"/>
	<rect fill="currentColor" x="9.8" y="20.4" width="13.6" height="1.3"/>
	<rect fill="currentColor" x="9.8" y="13.6" width="6.8" height="1.3"/>
</svg>
