<svg viewBox="0 0 48 48" xmlns="http://www.w3.org/2000/svg" xmlns:xlink="http://www.w3.org/1999/xlink" xml:space="preserve">
    <path fill="currentColor" d="M34,11.5h-1.3V1H34V11.5z"/>
    <path fill="currentColor" d="M27.9,6.8l1.6-2.7h1.5l-2.4,3.7l2.5,3.7h-1.5L28,8.7l-1.7,2.8h-1.5l2.5-3.7l-2.4-3.7h1.5L27.9,6.8z"/>
    <path fill="currentColor" d="M40.1,8.7c0.3,0.2,0.4,0.5,0.4,0.8c0,0.3-0.1,0.6-0.4,0.8c-0.3,0.2-0.7,0.3-1.1,0.3c-0.5,0-0.9-0.1-1.3-0.4
        c-0.3-0.3-0.5-0.6-0.5-1h-1.3c0,0.4,0.1,0.8,0.4,1.2c0.3,0.4,0.6,0.7,1.1,0.9c0.5,0.2,1,0.3,1.6,0.3c0.8,0,1.5-0.2,2.1-0.6
        c0.5-0.4,0.8-0.9,0.8-1.6c0-0.4-0.1-0.7-0.3-1c-0.2-0.3-0.5-0.5-0.9-0.7c-0.4-0.2-0.9-0.4-1.5-0.5c-0.6-0.1-1.1-0.3-1.3-0.4
        c-0.2-0.2-0.4-0.4-0.4-0.7c0-0.3,0.1-0.6,0.4-0.8C38,5.1,38.4,5,38.8,5c0.4,0,0.8,0.1,1.1,0.4c0.3,0.3,0.4,0.5,0.4,0.9h1.3
        c0-0.7-0.3-1.2-0.8-1.7c-0.5-0.4-1.2-0.6-2-0.6c-0.8,0-1.5,0.2-2,0.6c-0.5,0.4-0.8,0.9-0.8,1.5c0,0.4,0.1,0.7,0.3,0.9
        c0.2,0.3,0.5,0.5,0.8,0.7c0.4,0.2,0.9,0.4,1.5,0.5C39.4,8.4,39.8,8.6,40.1,8.7z"/>
    <path fill="currentColor" d="M22.6,5.3V3.8H5.5v42.7h32.4V16.6h-1.5V45H6.9V5.3H22.6z"/>
    <path fill="currentColor" d="M24.6,35v-1.5H10.2V35H24.6z"/>
    <path fill="currentColor" d="M24.6,25.9v-1.5H10.2v1.5H24.6z"/>
    <path fill="currentColor" d="M17.6,16.9v-1.5h-7.4v1.5H17.6z"/>
</svg>
