<svg viewBox="0 0 48 48" xmlns="http://www.w3.org/2000/svg" xmlns:xlink="http://www.w3.org/1999/xlink" xml:space="preserve">
	<path fill-rule="evenodd" clip-rule="evenodd" fill="currentColor" d="M17.9,5.3v1.5H2.2v39.5h29.5V25h1.5v22.8H0.8V5.3H17.9z M19.9,34.8v1.5H5.5v-1.5H19.9z
        M19.9,25.8v1.5H5.5v-1.5H19.9z M28,2c6.4,0,11.5,5.1,11.5,11.5S34.4,25,28,25s-11.5-5.1-11.5-11.5S21.6,2,28,2z M28,3.5
		c-5.5,0-10,4.5-10,10s4.5,10,10,10s10-4.5,10-10S33.5,3.5,28,3.5z M12.9,16.8v1.5H5.5v-1.5H12.9z M28.9,8.6v9.1h-1.5l0-5.7l-1.1,1
		l-1-1.1L28.9,8.6z M40.7,0.3c4.7,1.3,7.4,6,6.2,10.7c-0.8,3.1-3.2,5.4-6.2,6.2l-0.3,0.1L40,15.8c2.6-0.6,4.7-2.6,5.4-5.2
		c1-3.9-1.3-7.8-5.1-8.9c-2-0.5-4.1-0.2-5.8,0.9l-0.2,0.2l-0.9-1.2C35.5,0.1,38.1-0.4,40.7,0.3z"/>
</svg>
