<svg viewBox="0 0 48 48" xmlns="http://www.w3.org/2000/svg" xmlns:xlink="http://www.w3.org/1999/xlink" xml:space="preserve">
    <path fill-rule="evenodd" clip-rule="evenodd" fill="currentColor" d="M22.1,7.7c0-1.1,0.3-2,0.8-2.7c0.5-0.7,1.2-1,2.1-1c0.9,0,1.6,0.3,2.1,0.9V1h1.3v10.5h-1.2l-0.1-0.8
        c-0.5,0.6-1.2,0.9-2.1,0.9c-0.9,0-1.6-0.4-2.1-1.1C22.4,9.9,22.1,9,22.1,7.7L22.1,7.7z M23.4,7.9c0,0.8,0.2,1.5,0.5,2
        c0.3,0.5,0.8,0.7,1.4,0.7c0.8,0,1.4-0.4,1.8-1.1V6.1c-0.4-0.7-1-1-1.7-1c-0.6,0-1.1,0.2-1.4,0.7C23.6,6.2,23.4,6.9,23.4,7.9z"/>
    <path fill-rule="evenodd" clip-rule="evenodd" fill="currentColor" d="M30.2,7.7c0-0.7,0.1-1.4,0.4-2c0.3-0.6,0.7-1,1.2-1.3C32.3,4.1,32.9,4,33.6,4c1,0,1.8,0.3,2.4,1
        c0.6,0.7,0.9,1.6,0.9,2.8v0.1c0,0.7-0.1,1.4-0.4,1.9c-0.3,0.6-0.7,1-1.2,1.3c-0.5,0.3-1.1,0.5-1.8,0.5c-1,0-1.8-0.3-2.4-1
        C30.5,9.9,30.2,9,30.2,7.7L30.2,7.7z M31.5,7.9c0,0.8,0.2,1.5,0.6,2c0.4,0.5,0.9,0.7,1.5,0.7c0.6,0,1.2-0.3,1.5-0.8
        c0.4-0.5,0.6-1.2,0.6-2.1c0-0.8-0.2-1.5-0.6-2C34.7,5.3,34.2,5,33.6,5c-0.6,0-1.1,0.2-1.5,0.7C31.7,6.2,31.5,7,31.5,7.9z"/>
    <path fill="currentColor" d="M42.8,10.2c-0.3,0.3-0.7,0.4-1.2,0.4c-0.7,0-1.2-0.2-1.5-0.7c-0.4-0.5-0.5-1.1-0.5-2V7.7c0-0.9,0.2-1.5,0.5-2
        C40.5,5.2,41,5,41.7,5c0.5,0,0.9,0.2,1.2,0.5c0.3,0.3,0.5,0.7,0.5,1.2h1.2c0-0.8-0.3-1.4-0.9-1.9C43.2,4.2,42.5,4,41.7,4
        c-0.7,0-1.3,0.2-1.8,0.5c-0.5,0.3-0.9,0.7-1.1,1.3c-0.3,0.6-0.4,1.2-0.4,1.9v0.2c0,1.2,0.3,2.1,0.9,2.8c0.6,0.7,1.4,1,2.4,1
        c0.5,0,1-0.1,1.4-0.3c0.5-0.2,0.8-0.5,1.1-0.9c0.3-0.4,0.4-0.8,0.4-1.2h-1.2C43.4,9.6,43.2,9.9,42.8,10.2z"/>
    <path fill="currentColor" d="M19.6,5.3V3.8H2.5v42.7h32.4V16.6h-1.5V45H3.9V5.3H19.6z"/>
    <path fill="currentColor" d="M21.6,35v-1.5H7.2V35H21.6z"/>
    <path fill="currentColor" d="M21.6,25.9v-1.5H7.2v1.5H21.6z"/>
    <path fill="currentColor" d="M14.6,16.9v-1.5H7.2v1.5H14.6z"/>
</svg>
