<svg viewBox="0 0 48 48" xmlns="http://www.w3.org/2000/svg" xmlns:xlink="http://www.w3.org/1999/xlink">
    <path fill="currentColor" fill-rule="evenodd" clip-rule="evenodd" d="M47.2,10L25.4,2.7c-0.9-0.3-1.9-0.3-2.8,0L0.8,10c-1,0.3-1,1.7,0,2.1L2,12.4l-0.9,11c0,0.6,0.4,1.1,1,1.1h1
        c0.6,0,1-0.4,1-1V13.1l3.1,1v8.2c0,0.8,0.4,1.7,1.1,2.1c1.9,1.2,7,3.8,15.7,3.8c1.4,0,2.7-0.1,3.9-0.2l1.8-1.8
        c-1.7,0.3-3.6,0.4-5.7,0.4c-8.3,0-13.1-2.5-14.8-3.6C9,23,8.8,22.7,8.8,22.3v-7.6l13.8,4.6c0.9,0.3,1.9,0.3,2.8,0l13.8-4.6v3
        c0.5-0.2,1.1-0.3,1.6-0.3v-3.2l6.4-2.1C48.3,11.7,48.3,10.3,47.2,10z M24.9,17.8c-0.6,0.2-1.2,0.2-1.8,0l-16-5.3l16.1-1.3
        c0.4,0,0.7-0.4,0.7-0.8c0-0.5-0.4-0.8-0.9-0.8L4.1,11.4L2.7,11l20.4-6.8c0.6-0.2,1.2-0.2,1.8,0L45.3,11L24.9,17.8z"/>
    <path fill="currentColor" fill-rule="evenodd" clip-rule="evenodd" d="M44.5,20.7c-1.8-1.8-4.6-1.8-6.4,0l-17,17c-1.8,1.8-1.8,4.6,0,6.4c1.8,1.8,4.6,1.8,6.4,0l7-7v8.4l2.1-5.7
        l2.1,2.8v-9.9l5.8-5.8C46.3,25.3,46.3,22.4,44.5,20.7z M26.4,42.9c-1.1,1.1-3,1.1-4.1,0s-1.1-3,0-4.1s3-1.1,4.1,0
        C27.5,39.9,27.5,41.8,26.4,42.9z M33.5,35.8l-4.6,4.6c-0.1-1-0.5-2-1.3-2.8c-0.8-0.8-1.8-1.2-2.8-1.3l4.6-4.6c1.1-1.1,3-1.1,4.1,0
        S34.6,34.7,33.5,35.8z M43.4,25.9l-4.6,4.6c-0.1-1-0.5-2-1.3-2.8c-0.8-0.8-1.8-1.2-2.8-1.3l4.6-4.6c1.1-1.1,3-1.1,4.1,0
        S44.5,24.8,43.4,25.9z"/>
</svg>
