<svg viewBox="0 0 48 48" xmlns="http://www.w3.org/2000/svg">
    <path fill="currentColor" fill-rule="evenodd" clip-rule="evenodd" d="M34.207 39.5087C38.576 35.2819 42.5 29.0699 42.5 20.3001V9.96992C39.2947 8.98855 36.1525 7.80633 33.0918 6.43001C29.9677 5.06355 26.9312 3.50156 24 1.75325C21.0687 3.50157 18.0322 5.06356 14.9081 6.43002C11.8475 7.80634 8.70532 8.98855 5.5 9.96992V20.3001C5.5 29.0611 9.42376 35.2734 13.7932 39.5026C17.742 43.3247 22.026 45.4929 24.0001 46.3685C25.9749 45.4933 30.2585 43.3286 34.207 39.5087ZM24 48.0009C20.6667 46.6183 4 38.8291 4 20.3001V8.85228C7.51578 7.82983 10.9574 6.56231 14.3 5.05881C17.6429 3.59705 20.8837 1.90717 24 0.000854492C27.1163 1.90717 30.3571 3.59705 33.7 5.05881C37.0426 6.56231 40.4842 7.82983 44 8.85228V20.3001C44 38.846 27.3333 46.6183 24 48.0009Z"/>
    <path fill="currentColor" fill-rule="evenodd" clip-rule="evenodd" d="M31.9627 36.0478C35.4146 32.7431 38.5 27.9032 38.5 21.0711V13.1271C35.9996 12.36 33.5475 11.4422 31.1571 10.3786C28.6996 9.31483 26.3095 8.10201 24 6.74701C21.6905 8.10202 19.3004 9.31484 16.8428 10.3786C14.4525 11.4422 12.0004 12.3601 9.5 13.1271V21.0711C9.5 27.8963 12.5852 32.7363 16.0376 36.0431C19.087 38.9639 22.3922 40.6527 24.0002 41.3691C25.6087 40.6531 28.9135 38.967 31.9627 36.0478ZM24 43.0009C21.3333 41.9064 8 35.7399 8 21.0711V12.0082C10.8126 11.1988 13.5659 10.1953 16.24 9.00507C18.9143 7.84784 21.5069 6.51002 24 5.00085C26.4931 6.51002 29.0857 7.84784 31.76 9.00507C34.4341 10.1953 37.1874 11.1988 40 12.0082V21.0711C40 35.7532 26.6667 41.9064 24 43.0009Z"/>
    <path fill="currentColor" d="M22 25.0007V31.0007H26V25.0007H32V21.0007H26V15.0007H22V21.0007H16V25.0007H22Z"/>
</svg>
