<svg viewBox="0 0 48 48" xmlns="http://www.w3.org/2000/svg">
    <path fill="currentColor" fill-rule="evenodd" d="M27.01,25.39c.13,.13,.29,.23,.46,.3,.17,.07,.35,.1,.54,.1,.18,0,.37-.03,.54-.1,.17-.07,.33-.17,.46-.3l10.88-10.89c1.36-1.38,2.13-3.24,2.13-5.18s-.77-3.8-2.13-5.18c-1.38-1.37-3.24-2.14-5.18-2.14s-3.8,.77-5.18,2.14l-1.51,1.51-1.51-1.51c-1.38-1.37-3.24-2.14-5.18-2.14s-3.8,.77-5.18,2.14c-1.36,1.38-2.13,3.24-2.13,5.18s.77,3.8,2.13,5.18l10.88,10.89ZM17.19,5.2c1.09-1.09,2.57-1.7,4.12-1.7s3.03,.61,4.12,1.7h0l2.57,2.57,2.57-2.57h0c1.09-1.09,2.57-1.7,4.12-1.7s3.02,.61,4.12,1.7c1.08,1.1,1.69,2.58,1.69,4.12s-.61,3.02-1.69,4.12h0l-10.8,10.82-10.8-10.82h0c-1.08-1.1-1.69-2.58-1.69-4.12s.61-3.02,1.69-4.12Z"/>
    <path fill="currentColor" fill-rule="evenodd" d="M47.74,34.97c-.47-.93-1.39-1.22-2.04-1.32-.67-.09-1.42-.03-2.13,.09-1.45,.24-3.24,.78-4.99,1.35-.7,.23-1.39,.46-2.06,.69-1.07,.36-2.09,.7-3.05,1-.77,.24-1.45,.43-2.02,.55-.59,.13-.96,.16-1.13,.15h0c-.55-.03-1.09-.07-1.64-.12,1.43-.28,2.83-.94,3.8-2.35,.5-.71,.45-1.56,.07-2.19-.36-.59-.99-.97-1.69-1.03-2.12-.16-3.95-.68-5.71-1.31-.64-.23-1.32-.49-2.01-.76-1.1-.43-2.23-.87-3.29-1.2-1.85-.58-3.83-.97-6.1-.8-1.93,.15-3.99,.69-6.31,1.78-.23-1.14-1.24-2-2.46-2H2.5c-1.38,0-2.5,1.12-2.5,2.5v13.47c0,1.38,1.12,2.5,2.5,2.5h2.5c1.35,0,2.45-1.06,2.5-2.39,3.19-.07,6.41,.59,9.8,1.37,.41,.09,.82,.19,1.24,.29h0c3.15,.74,6.45,1.51,9.79,1.71h.09c.61,0,1.37-.15,2.14-.35,.81-.21,1.74-.51,2.75-.86,2.01-.71,4.34-1.69,6.52-2.76,2.17-1.06,4.26-2.25,5.74-3.39,.73-.56,1.4-1.18,1.85-1.85,.43-.64,.86-1.68,.31-2.75ZM6,43.47c0,.55-.45,1-1,1H2.5c-.55,0-1-.45-1-1v-13.47c0-.55,.45-1,1-1h2.5c.55,0,1,.45,1,1v13.47Zm22.43,1.97c-3.2-.19-6.37-.93-9.54-1.67-3.5-.82-6.99-1.63-10.5-1.7-.3,0-.59,0-.89,0v-10.93c6.64-3.34,10.61-1.78,15.01-.06,2.44,.96,5.01,1.96,8.24,2.21,.45,.03,.75,.49,.49,.86-1.76,2.55-5.65,1.94-8.83,1.43-.55-.09-1.08-.17-1.57-.23-.62-.08-1.17,.36-1.27,.97-.11,.67,.33,1.3,1,1.41,3.2,.55,6.41,1.05,9.65,1.24,1.27,.08,3.97-.83,6.8-1.79,4.18-1.41,8.67-2.92,9.37-1.54,1.46,2.85-14.72,9.79-17.97,9.79Z"/>
</svg>
