<svg viewBox="0 0 48 48" xmlns="http://www.w3.org/2000/svg">
    <path fill="currentColor" fill-rule="evenodd" d="M36.72,2.34C35.25,.84,33.25,0,31.17,0s-4.08,.84-5.55,2.34l-1.62,1.65-1.62-1.65C20.91,.84,18.91,0,16.83,0s-4.08,.84-5.55,2.34c-1.46,1.51-2.28,3.54-2.28,5.66s.82,4.15,2.28,5.66l11.65,11.9c.14,.14,.31,.25,.49,.33,.18,.08,.38,.11,.58,.11,.2,0,.39-.04,.58-.11,.18-.08,.35-.19,.49-.33l11.65-11.9c1.46-1.51,2.28-3.54,2.28-5.66s-.82-4.15-2.28-5.66Zm-1.07,10.27h0l-11.64,11.89L12.36,12.61h0c-1.19-1.23-1.86-2.88-1.86-4.61s.67-3.39,1.85-4.61c1.19-1.21,2.8-1.89,4.48-1.89s3.28,.68,4.48,1.89l2.69,2.74,2.69-2.74h0c1.19-1.21,2.81-1.89,4.48-1.89s3.28,.68,4.48,1.89c1.19,1.22,1.85,2.88,1.85,4.61s-.67,3.39-1.86,4.61Z"/>
    <path fill="currentColor" fill-rule="evenodd" d="M47.99,20.87c-.04-1.8-.18-3.61-.49-5-.15-.68-.37-1.38-.71-1.94-.33-.54-1-1.3-2.1-1.26-.96,.03-1.54,.68-1.83,1.13-.3,.47-.51,1.04-.66,1.57-.3,1.08-.5,2.48-.67,3.84-.07,.55-.13,1.09-.18,1.61-.09,.82-.18,1.61-.28,2.34-.08,.57-.16,1.05-.25,1.45-.08-.49-.25-.99-.54-1.49-.41-.7-1.15-1-1.82-.92-.63,.07-1.2,.45-1.51,1.01-.75,1.33-1.65,2.37-2.61,3.34-.34,.34-.72,.71-1.12,1.08-.64,.61-1.32,1.26-1.88,1.87-.99,1.08-1.91,2.33-2.53,3.98-.52,1.38-.8,2.97-.8,4.89-.72-.02-1.41,.38-1.73,1.07l-.78,1.68c-.43,.93-.03,2.04,.9,2.47l9.07,4.23c.93,.43,2.04,.03,2.47-.9l.78-1.68c.37-.78,.14-1.69-.5-2.22,.93-2.14,2.37-4.09,3.97-6.14,.19-.24,.38-.49,.58-.74h0c1.48-1.89,3.06-3.89,4.26-6.11l.02-.04,.02-.04c.21-.46,.36-1.06,.46-1.65,.11-.62,.21-1.36,.28-2.15,.15-1.59,.22-3.48,.19-5.3Zm-10.64,23.74l-.78,1.68c-.08,.18-.3,.26-.48,.17l-9.07-4.23c-.18-.08-.26-.3-.17-.48l.78-1.68c.08-.18,.3-.26,.48-.17l9.07,4.23c.18,.08,.26,.3,.17,.48Zm8.35-15.28c-1.13,2.09-2.62,3.99-4.11,5.89-1.57,1.99-3.13,3.98-4.26,6.18-.16,.31-.31,.62-.45,.94l-7.36-3.43c-.17-5.51,2.13-7.7,4.66-10.11,1.22-1.16,2.49-2.37,3.57-4.03h0c.05-.09,.1-.17,.15-.25l-.22,.13h0l.24-.15c.11-.18,.22-.36,.33-.55,.16-.29,.57-.35,.73-.06,.12,.21,.21,.42,.28,.63,.04,.14,.07,.28,.09,.42,0,.03,0,.05,.01,.08,.2,1.73-1.09,3.64-2.18,5.25-.23,.34-.45,.67-.65,.98-.25,.39-.12,.9,.26,1.16,.41,.28,.98,.18,1.26-.23,1.37-1.98,2.71-3.98,3.86-6.1,.45-.83,.68-2.93,.93-5.14,.36-3.25,.75-6.74,1.9-6.78,2.38-.09,1.98,12.97,.96,15.16Z"/>
    <path fill="currentColor" fill-rule="evenodd" d="M22.51,41.12l-.78-1.68c-.32-.69-1.02-1.09-1.73-1.07,0-1.92-.28-3.51-.8-4.89-.62-1.64-1.54-2.89-2.53-3.98-.56-.62-1.24-1.26-1.88-1.87-.4-.38-.78-.74-1.12-1.08-.96-.97-1.86-2.01-2.61-3.34-.32-.56-.88-.94-1.51-1.01-.68-.07-1.42,.22-1.82,.92-.29,.49-.46,.99-.54,1.49-.09-.4-.17-.89-.25-1.45-.1-.73-.19-1.52-.28-2.35-.06-.52-.12-1.06-.18-1.61-.16-1.35-.36-2.75-.67-3.84-.15-.53-.35-1.1-.66-1.57-.29-.45-.88-1.1-1.83-1.13-1.1-.04-1.78,.72-2.1,1.26-.34,.56-.56,1.26-.71,1.94C.19,17.26,.04,19.07,0,20.87c-.04,1.82,.04,3.71,.19,5.3,.07,.79,.17,1.53,.28,2.15,.11,.59,.25,1.19,.46,1.65l.02,.04,.02,.04c1.2,2.21,2.77,4.22,4.26,6.1h0c.2,.25,.39,.5,.58,.74,1.6,2.05,3.04,4,3.97,6.14-.64,.53-.87,1.43-.5,2.22l.78,1.68c.43,.93,1.54,1.33,2.47,.9l9.07-4.23c.93-.43,1.33-1.54,.9-2.47Zm-16.1-5.91c-1.49-1.89-2.98-3.79-4.11-5.89-1.02-2.18-1.42-15.24,.96-15.16,1.15,.04,1.54,3.53,1.9,6.78,.25,2.21,.48,4.31,.93,5.14,1.15,2.12,2.49,4.12,3.86,6.1,.29,.41,.85,.51,1.26,.23,.38-.26,.51-.77,.26-1.16-.2-.31-.42-.64-.65-.98-1.09-1.62-2.38-3.53-2.18-5.25,0-.03,0-.05,.01-.08,.02-.14,.05-.28,.09-.42,.06-.21,.15-.42,.28-.63,.17-.29,.57-.23,.73,.06,.11,.19,.21,.37,.33,.55l.24,.14h0l-.22-.12c.05,.08,.1,.16,.15,.24h0c1.08,1.67,2.36,2.88,3.57,4.04,2.54,2.41,4.83,4.6,4.66,10.11l-7.36,3.43c-.14-.32-.29-.63-.45-.94-1.13-2.2-2.69-4.19-4.26-6.18Zm14.57,7.02l-9.07,4.23c-.18,.08-.39,0-.48-.17l-.78-1.68c-.08-.18,0-.39,.17-.48l9.07-4.23c.18-.08,.39,0,.48,.17l.78,1.68c.08,.18,0,.39-.17,.48Z"/>
</svg>
