<svg viewBox="0 0 48 48" xmlns="http://www.w3.org/2000/svg">
  <path fill="currentColor" fill-rule="evenodd" d="M28.02,22.74l9.24-5.97c1.71-1.11,2.74-3,2.74-5.04V2h2V0H6V2h2V11.73c0,2.04,1.03,3.93,2.74,5.04l9.24,5.97c.91,.59,.91,1.93,0,2.52l-9.24,5.97c-1.71,1.11-2.74,3-2.74,5.04v9.73h-2v2H42v-2h-2v-9.73c0-2.04-1.03-3.93-2.74-5.04l-9.24-5.97c-.91-.59-.91-1.93,0-2.52Zm-.81,3.78l9.24,5.97c1.28,.83,2.06,2.25,2.06,3.78v9.73h-3.5l-9.41-11.13c-.98-1.16-2.19-1.16-3.18,0l-9.41,11.13h-3.5v-9.73c0-1.53,.77-2.95,2.06-3.78l9.24-5.97c1.83-1.18,1.83-3.86,0-5.04l-9.24-5.97c-1.28-.83-2.06-2.25-2.06-3.78V2h29V11.73c0,1.53-.77,2.95-2.06,3.78l-9.23,5.97c-1.83,1.18-1.83,3.86,0,5.04Z"/>
  <path fill="currentColor" fill-rule="evenodd" d="M28.58,13h-9.16c-1.45,0-1.96,2.04-.7,2.8l4.58,2.77c.44,.26,.97,.26,1.41,0l4.58-2.77c1.26-.76,.75-2.8-.7-2.8Z"/>
</svg>
