<svg viewBox="0 0 48 48" xmlns="http://www.w3.org/2000/svg" xmlns:xlink="http://www.w3.org/1999/xlink" xml:space="preserve">
	<rect fill="currentColor" x="42.2" y="28" width="1.3" height="2"/>
	<rect fill="currentColor" x="42.2" y="23" width="1.3" height="2"/>
	<path fill="currentColor" d="M23.4,24.7c-2.3,0-4.2-1.9-4.2-4.2s1.9-4.2,4.2-4.2s4.2,1.9,4.2,4.2S25.7,24.7,23.4,24.7z M23.4,17.7
		c-1.5,0-2.8,1.3-2.8,2.8s1.3,2.8,2.8,2.8c1.5,0,2.8-1.3,2.8-2.8S24.9,17.7,23.4,17.7z"/>
	<rect fill="currentColor" x="32.9" y="31.8" width="6" height="1.3"/>
	<path fill="currentColor" d="M39.6,38.7h-7.3V26.3h7.3V38.7z M33.6,37.3h4.7v-9.7h-4.7V37.3z"/>
	<rect fill="currentColor" x="9.9" y="31.8" width="6" height="1.3"/>
	<path fill="currentColor" d="M16.6,38.7H9.2V26.3h7.3V38.7z M10.6,37.3h4.7v-9.7h-4.7V37.3z"/>
	<polygon fill="currentColor" points="42.9,17.7 35,17.7 23.9,6 12.8,17.7 4.9,17.7 4.9,16.3 12.2,16.3 23.9,4 35.6,16.3 42.9,16.3 "/>
	<polygon fill="currentColor" points="26.6,43 25.2,43 25.2,33.7 21.6,33.7 21.6,43 20.2,43 20.2,32.3 26.6,32.3 "/>
	<polygon fill="currentColor" points="43.6,21 42.2,21 42.2,17.3 39.9,7.7 25.9,7.7 25.9,6.3 40.9,6.3 43.6,17.2 "/>
	<polygon fill="currentColor" points="43.6,43.7 4.2,43.7 4.2,17.1 6.9,6.3 22,6.3 22,7.7 7.9,7.7 5.6,17.4 5.6,42.3 42.2,42.3 42.2,34 43.6,34 "/>
</svg>
