<svg viewBox="0 0 48 48" xmlns="http://www.w3.org/2000/svg" xmlns:xlink="http://www.w3.org/1999/xlink" xml:space="preserve">
	<path fill-rule="evenodd" clip-rule="evenodd" fill="currentColor" d="M41.4,6l0,6.1l6.1,0v29.1H6.1l0-6.1H0v-3.3h1.5v1.8h4.6l0-2.8c0-3.6,2.2-6.6,5.4-7.9
		c-1.4-1-2.3-2.6-2.3-4.4c0-3,2.4-5.4,5.4-5.4s5.3,2.4,5.3,5.4c0,1.8-0.9,3.4-2.3,4.4c3.1,1.2,5.3,4.1,5.4,7.6l0,0.3l0,2.8h14.8v1.5
		H7.6v4.6H46V13.6h-4.6l0,14.1h-1.5l0-20.3H25.8V6H41.4z M40.6,33.6L40.6,33.6l0.8,0v1.5h-1.6v-1.5H40.6z M14.6,23.8
		c-3.7,0-6.8,3-6.9,6.7l0,0.2l0,2.8h13.8l0-2.8C21.5,26.9,18.4,23.8,14.6,23.8z M41.4,29.8v2h-1.5v-2H41.4z M1.5,27.8v2H0v-2H1.5z
        M15.7,6v1.5H1.5v18.2H0V6H15.7z M36,22.9v1.5h-2v-1.5H36z M32,22.9v1.5h-5.2v-1.5H32z M14.6,14.6c-2.1,0-3.9,1.7-3.9,3.9
		s1.7,3.9,3.9,3.9s3.8-1.7,3.8-3.9S16.7,14.6,14.6,14.6z M36,16.7v1.5h-9.2v-1.5H36z M23.7,6v1.5h-2V6H23.7z M19.8,6v1.5h-2V6H19.8z" />
</svg>
