<svg viewBox="0 0 48 48" xmlns="http://www.w3.org/2000/svg" xmlns:xlink="http://www.w3.org/1999/xlink">
    <path fill="currentColor" d="M22.7,22.5c-0.4-0.1-1.1,0.2-1.1,0.7c0,0.1,0,0.2,0.1,0.3c0.3,0.3,1.3,0.9,3.8,0.9s3.5-0.6,3.8-0.9
        c0.1-0.1,0.1-0.2,0.1-0.3c0-0.4-0.7-0.8-1.1-0.7c-0.6,0.2-1.5,0.4-2.8,0.4C24.2,22.9,23.3,22.7,22.7,22.5z"/>
    <path fill="currentColor" d="M11,22.5c-0.4-0.1-1.1,0.2-1.1,0.7c0,0.1,0,0.2,0.1,0.3c0.3,0.3,1.3,0.9,3.8,0.9s3.5-0.6,3.8-0.9
        c0.1-0.1,0.1-0.2,0.1-0.3c0-0.4-0.7-0.8-1.1-0.7c-0.6,0.2-1.5,0.4-2.8,0.4C12.5,22.9,11.6,22.7,11,22.5z"/>
    <path fill="currentColor" d="M15.6,33.7c0,0.4,0.7,0.8,1.1,0.7c0.6-0.2,1.5-0.4,2.8-0.4c1.3,0,2.2,0.2,2.8,0.4c0.4,0.1,1.1-0.2,1.1-0.7
        c0-0.1,0-0.2-0.1-0.3c-0.3-0.3-1.3-0.9-3.8-0.9s-3.5,0.6-3.8,0.9C15.6,33.5,15.6,33.6,15.6,33.7z"/>
    <path fill="currentColor" fill-rule="evenodd" clip-rule="evenodd" d="M34.9,20.6c0.4-1.5,0.7-3.1,1-4.6l-0.1,0c-0.5,0-0.9-0.1-1.4-0.2c-0.2,1.3-0.5,2.5-0.7,3.6
        c-0.3-0.1-0.7-0.2-1.1-0.3c-1-0.3-2-0.9-2.6-1.7c-0.1-0.1-0.2-0.4-0.3-0.8c-0.1-0.4-0.2-1-0.2-1.6c-0.1-1.2-0.1-2.7-0.1-4.2
        c0-1.4,0.1-2.8,0.2-3.8c0-0.4,0.1-0.8,0.1-1c0,0,0,0,0.1,0c0.4,0.1,0.9,0.2,1.4,0.4c0.2,0.1,0.3,0.1,0.5,0.2
        c0.2-0.4,0.4-0.9,0.6-1.3C32.1,5.1,31.9,5,31.7,5c-0.6-0.2-1.1-0.3-1.6-0.4c-0.2,0-0.3-0.1-0.5-0.1c-0.5-1.4-1.6-2.3-3-3
        C25,0.7,23,0.3,21.1,0.1c-2-0.2-4.1-0.2-5.9,0c-1.8,0.2-3.4,0.5-4.4,0.9c-3.3,1.3-5.7,3.3-7.1,6c-1.5,2.6-2,5.7-1.9,9l0,0.4l0.4,0.2
        c0.6,0.3,1.4,0.6,2.4,0.8v3.2c-2,0.4-3.6,2.2-3.6,4.4c0,2.3,1.7,4.1,3.8,4.4c0.5,3,2,5.9,4.1,8.1c2.8,2.9,6.6,4.5,10.6,4.5h0
        c4,0,7.8-1.6,10.6-4.5c2.2-2.3,3.6-5.1,4.2-8.2c2.1-0.3,3.8-2.2,3.8-4.4C38.2,22.9,36.8,21.1,34.9,20.6z M2.6,24.9
        c0-1.3,0.8-2.4,2-2.7v4.4c0,0.4,0,0.7,0,1.1C3.4,27.3,2.6,26.2,2.6,24.9z M3.2,15.4c-0.1-2.9,0.5-5.5,1.7-7.7
        c1.3-2.3,3.4-4.2,6.4-5.3c0.8-0.3,2.3-0.6,4-0.8c1.7-0.2,3.7-0.2,5.6,0c1.9,0.2,3.7,0.6,5,1.2c1.3,0.6,2.1,1.4,2.4,2.4
        c0,0.1,0,0.2,0,0.3c0,0.2,0,0.4,0,0.6l0,0.1l0,0.1c0,0.4,0,0.9-0.1,1.4c-0.1,1.2-0.3,2.6-1,4c-0.6,1.4-1.6,2.7-3.3,3.7
        c-1.7,1-4.1,1.7-7.6,1.7c-2.6,0-5.4-0.2-7.9-0.5C6.2,16.3,4.3,15.8,3.2,15.4z M33,26.7c0,3.7-1.4,7.1-3.9,9.7c-2.5,2.6-5.9,4-9.5,4
        h0c-3.6,0-7-1.4-9.5-4.1c-2.5-2.6-3.9-6.1-3.9-9.8v-8.9c0.6,0.1,1.3,0.2,2,0.3c2.5,0.3,5.4,0.6,8.1,0.6c3.6,0,6.3-0.7,8.3-1.9
        c1.6-1,2.8-2.2,3.5-3.5c0,0.7,0,1.3,0.1,1.9c0.1,0.7,0.1,1.3,0.3,1.8c0.1,0.5,0.3,1,0.6,1.4c0.8,1.1,2.2,1.8,3.2,2.2
        c0.3,0.1,0.5,0.2,0.8,0.3V26.7z M34.5,27.7c0-0.3,0-0.6,0-1v-4.5c1.2,0.3,2,1.4,2,2.7C36.6,26.2,35.7,27.3,34.5,27.7z"/>
    <path fill="currentColor" fill-rule="evenodd" clip-rule="evenodd" d="M39.8,9.4c-0.1-0.4-0.2-0.8-0.4-1.2c-0.6-1.6-1.7-3.4-2.3-4.5l-1.3-2.2l-1.3,2.2c-0.6,1.1-1.7,3-2.3,4.5
        c-0.2,0.4-0.3,0.8-0.4,1.2c-0.1,0.3-0.2,0.7-0.2,1.1c0,2.3,1.9,4.2,4.2,4.2s4.2-1.9,4.2-4.2C40,10.1,39.9,9.7,39.8,9.4z M35.8,13.2
        c-1.5,0-2.7-1.2-2.7-2.8c0-0.3,0.2-0.9,0.5-1.7C34,7.9,34.5,6.9,35,6c0.3-0.6,0.6-1.1,0.8-1.5c0.2,0.4,0.5,0.9,0.8,1.5
        c0.5,0.9,1,1.9,1.4,2.8c0.3,0.8,0.5,1.4,0.5,1.7C38.5,12,37.3,13.2,35.8,13.2z"/>
    <path fill="currentColor" d="M42,32c0.2,0,0.4,0.1,0.5,0.2c0.1,0.1,0.2,0.3,0.2,0.5v7.9c0.6,0.2,1.1,0.6,1.4,1.1c0.3,0.5,0.4,1.1,0.3,1.7
        c-0.1,0.6-0.4,1.1-0.8,1.5c-0.5,0.4-1,0.6-1.6,0.6s-1.2-0.2-1.6-0.6c-0.5-0.4-0.8-0.9-0.8-1.5c-0.1-0.6,0-1.2,0.3-1.7
        c0.3-0.5,0.8-0.9,1.4-1.1v-7.9c0-0.2,0.1-0.4,0.2-0.5C41.6,32.1,41.8,32,42,32z"/>
    <path fill="currentColor" fill-rule="evenodd" clip-rule="evenodd" d="M47,42.7l0-0.3c-0.1-1.2-0.7-2.4-1.6-3.2l-0.1-0.1l0-10l0-0.2c0-0.8-0.4-1.6-1-2.2C43.6,26.3,42.8,26,42,26
        l-0.2,0l-0.2,0c-0.8,0.1-1.5,0.5-2.1,1.1c-0.5,0.6-0.8,1.4-0.8,2.2l0,10l-0.1,0.1l-0.2,0.2c-0.6,0.6-1,1.3-1.3,2.1
        c-0.2,0.8-0.3,1.6-0.1,2.4c0.2,0.8,0.5,1.6,1,2.2c0.5,0.6,1.2,1.1,1.9,1.5c0.8,0.3,1.6,0.4,2.4,0.4c0.8-0.1,1.6-0.4,2.3-0.8
        c0.7-0.5,1.2-1.1,1.6-1.8c0.4-0.7,0.6-1.5,0.6-2.4L47,42.7z M45.3,44.2c-0.3,0.7-0.7,1.3-1.3,1.7c-0.6,0.4-1.3,0.6-2.1,0.6
        c-0.7,0-1.4-0.3-2-0.7c-0.6-0.4-1-1.1-1.2-1.8c-0.2-0.7-0.2-1.4,0-2.1c0.2-0.7,0.7-1.3,1.3-1.7l0.3-0.2V29.2l0-0.1
        c0-0.4,0.2-0.8,0.6-1.1c0.3-0.3,0.7-0.5,1.2-0.5c0.5,0,0.9,0.2,1.2,0.5c0.3,0.3,0.5,0.8,0.5,1.2l0,10.7l0.3,0.2l0.2,0.1
        c0.6,0.5,1,1.1,1.2,1.8C45.6,42.8,45.5,43.5,45.3,44.2z"/>
</svg>
