<svg viewBox="0 0 48 48" xmlns="http://www.w3.org/2000/svg" xmlns:xlink="http://www.w3.org/1999/xlink" xml:space="preserve">
	<path fill="currentColor" d="M27.5,25.5l7.4,13h-1.7l-5.7-10c-2,3.3-3.9,6.6-5.8,10H20c0.3-0.6,0.6-1.1,0.9-1.7l-2.5-4.3c-1.2,2-2.3,4-3.5,6h-1.7
		c1.7-3,3.5-6,5.2-9l3.3,5.8C23.7,32,25.6,28.8,27.5,25.5z"/>
	<path fill="currentColor" d="M19.5,20.5c-2.7,0-5-2.2-5-5s2.2-5,5-5s5,2.2,5,5S22.2,20.5,19.5,20.5z M19.5,12c-1.9,0-3.5,1.5-3.5,3.5s1.5,3.5,3.5,3.5
		s3.5-1.5,3.5-3.5S21.4,12,19.5,12z"/>
	<path fill="currentColor" d="M40.5,45.5h-33v-43h33V45.5z M9,44h30V4H9V44z"/>
</svg>
