<svg viewBox="0 0 48 48" xmlns="http://www.w3.org/2000/svg" xmlns:xlink="http://www.w3.org/1999/xlink" xml:space="preserve">
	<path fill-rule="evenodd" clip-rule="evenodd" fill="currentColor" d="M30.9,43.3c0.4,0,0.7,0.3,0.8,0.7l0,0.1v3.2c0,0.4-0.3,0.7-0.7,0.8l-0.1,0H17.3
		c-0.4,0-0.7-0.3-0.8-0.7l0-0.1v-3.2c0-0.4,0.3-0.8,0.8-0.8c0.4,0,0.7,0.3,0.8,0.7l0,0.1l0,2.4h12.1l0-2.4c0-0.4,0.3-0.7,0.7-0.8
		L30.9,43.3z M24.1,0C36,0,45.7,9.7,45.7,21.6c0,11.9-9.7,21.6-21.6,21.6c-11.9,0-21.6-9.7-21.6-21.6C2.5,9.7,12.2,0,24.1,0z
        M24.1,1.5C13,1.5,4,10.5,4,21.6c0,11.1,9,20.1,20.1,20.1c11.1,0,20.1-9,20.1-20.1C44.2,10.5,35.2,1.5,24.1,1.5z M24.1,5
		c9.2,0,16.6,7.4,16.6,16.6c0,9.2-7.4,16.6-16.6,16.6c-9.2,0-16.6-7.4-16.6-16.6C7.5,12.4,14.9,5,24.1,5z M24.1,6.5
		C15.8,6.5,9,13.3,9,21.6c0,8.3,6.8,15.1,15.1,15.1c8.3,0,15.1-6.8,15.1-15.1C39.2,13.3,32.5,6.5,24.1,6.5z M26,18.6l0.2,0.2v9.2
		c0,0.3,0.1,0.5,0.2,0.7c0.1,0.2,0.3,0.3,0.5,0.4c0.2,0.1,0.3,0.1,0.5,0.2c0.2,0.1,0.4,0.1,0.6,0.1v0.8h-7.3v-0.8
		c0.2,0,0.4,0,0.6-0.1c0.2,0,0.4-0.1,0.5-0.1c0.2-0.1,0.4-0.2,0.5-0.4c0.1-0.2,0.2-0.4,0.2-0.7v-6.7c0-0.3-0.1-0.5-0.2-0.7
		c-0.1-0.2-0.3-0.4-0.5-0.5c-0.1-0.1-0.3-0.2-0.6-0.3c-0.3-0.1-0.5-0.1-0.8-0.2v-0.8L26,18.6z M24,12.3c0.6,0,1.2,0.2,1.6,0.6
		c0.4,0.4,0.7,0.9,0.7,1.5c0,0.6-0.2,1.1-0.7,1.5c-0.5,0.4-1,0.6-1.6,0.6c-0.6,0-1.2-0.2-1.6-0.6c-0.5-0.4-0.7-0.9-0.7-1.5
		c0-0.6,0.2-1.1,0.7-1.5C22.8,12.5,23.4,12.3,24,12.3z"/>
</svg>
