<svg viewBox="0 0 48 48" xmlns="http://www.w3.org/2000/svg">
  <path fill="currentColor" fill-rule="evenodd" d="M43.43,9.86h-5.71v-2.29c0-2.52-2.05-4.57-4.57-4.57H14.86c-2.52,0-4.57,2.05-4.57,4.57v2.29H4.57c-2.52,0-4.57,2.05-4.57,4.57v26.29c0,2.52,2.05,4.57,4.57,4.57H43.43c2.53,0,4.57-2.05,4.57-4.57V14.43c0-2.52-2.05-4.57-4.57-4.57ZM12,7.57c0-1.58,1.28-2.86,2.86-2.86h18.29c1.58,0,2.86,1.28,2.86,2.86v2.29H12v-2.29ZM46.29,40.72c0,1.58-1.28,2.86-2.86,2.86H4.57c-1.58,0-2.86-1.28-2.86-2.86V24.5l6.29,.7v2.95c0,.63,.51,1.14,1.14,1.14s1.14-.51,1.14-1.14v-2.69l13.71,1.27,13.71-1.27v2.69c0,.63,.51,1.14,1.14,1.14s1.14-.51,1.14-1.14v-2.95l6.29-.7v16.22Zm0-17.94l-6.29,.7v-2.19c0-.63-.51-1.14-1.14-1.14s-1.14,.51-1.14,1.14v2.44l-13.71,1.27-13.71-1.27v-2.44c0-.63-.51-1.14-1.14-1.14s-1.14,.51-1.14,1.14v2.19l-6.29-.7V14.43c0-1.58,1.28-2.86,2.86-2.86H43.43c1.58,0,2.86,1.28,2.86,2.86v8.34Z"/>
</svg>
