<svg viewBox="0 0 48 48" xmlns="http://www.w3.org/2000/svg" xmlns:xlink="http://www.w3.org/1999/xlink">
    <path fill="currentColor" d="M33.3,30.2c-0.3-0.3-0.8-0.3-1.1,0c-0.3,0.3-0.3,0.8,0,1.1l3.7,3.7l-3.7,3.7c-0.3,0.3-0.3,0.8,0,1.1
        c0.3,0.3,0.8,0.3,1.1,0l3.7-3.7l3.7,3.7c0.3,0.3,0.8,0.3,1.1,0s0.3-0.8,0-1.1L38.1,35l3.7-3.7c0.3-0.3,0.3-0.8,0-1.1s-0.8-0.3-1.1,0
        L37,33.9L33.3,30.2z"/>
    <path fill="currentColor" fill-rule="evenodd" clip-rule="evenodd" d="M38,24V12c0-2.2-1.8-4-4-4h-5V6c0-2.2-1.8-4-4-4H13c-2.2,0-4,1.8-4,4v2H4c-2.2,0-4,1.8-4,4v21c0,2.2,1.8,4,4,4
        h22.2c0.9,5.1,5.4,9,10.8,9c6.1,0,11-4.9,11-11C48,29.3,43.6,24.6,38,24z M10.5,6c0-1.4,1.1-2.5,2.5-2.5h12c1.4,0,2.5,1.1,2.5,2.5v2
        h-17V6z M1.5,12c0-1.4,1.1-2.5,2.5-2.5h30c1.4,0,2.5,1.1,2.5,2.5v7.3L31,19.9V18c0-0.6-0.4-1-1-1s-1,0.4-1,1v2.1l-10,1.1L9,20.1V18
        c0-0.6-0.4-1-1-1c-0.6,0-1,0.4-1,1v1.9l-5.5-0.6V12z M26,35.5H4c-1.4,0-2.5-1.1-2.5-2.5V20.8L7,21.4V24c0,0.6,0.4,1,1,1
        c0.6,0,1-0.4,1-1v-2.4l10,1.1l10-1.1V24c0,0.6,0.4,1,1,1s1-0.4,1-1v-2.6l5.5-0.6V24C30.7,24.3,26,29.1,26,35
        C26,35.2,26,35.3,26,35.5z M37,44.5c-5.2,0-9.5-4.3-9.5-9.5s4.3-9.5,9.5-9.5s9.5,4.3,9.5,9.5S42.2,44.5,37,44.5z"/>
</svg>
