<svg viewBox="0 0 48 48" xmlns="http://www.w3.org/2000/svg" xmlns:xlink="http://www.w3.org/1999/xlink" xml:space="preserve">
	<path fill-rule="evenodd" clip-rule="evenodd" fill="currentColor" d="M31.9,0.2c4.8,0,8.7,3.9,8.7,8.7c0,0.2,0,0.5,0,0.7l7.2-3.6v32.4L32,46.9l-16-8.1L0.2,47.4V14.9
		L16,6.5l7.4,3.5c-0.1-0.4-0.1-0.7-0.1-1.1C23.2,4.1,27.1,0.2,31.9,0.2z M16.8,8.5v29.1l14.5,7.3V23.3l-0.6-0.7L30,21.8L29.4,21
		l-0.6-0.8l-0.6-0.8l-0.5-0.7c-1.9-2.7-3.2-4.9-3.9-6.8L16.8,8.5z M15.2,8.6L1.8,15.8v29l13.5-7.3V8.6z M46.2,8.5l-6.1,3
		c-0.3,1-0.9,2.1-1.6,3.4l-0.2,0.4L37.9,16l-0.2,0.3L37.3,17c-0.2,0.3-0.4,0.6-0.6,0.9l-0.3,0.5l-0.5,0.7c-0.2,0.2-0.4,0.5-0.5,0.7
		L35,20.2L34.5,21l-0.3,0.4l-0.6,0.8L32.9,23l-0.1,0.1v21.7l13.5-7.3V8.5z M31.9,1.8c-4,0-7.2,3.2-7.2,7.2c0,1.4,0.7,3.2,2,5.5
		l0.2,0.3l0.4,0.6c0.1,0.2,0.3,0.4,0.4,0.6l0.2,0.3l0.4,0.7l0.5,0.7l0.5,0.7l0.3,0.4l0.5,0.7l0.6,0.7l0.3,0.4l0.6,0.8l0.4,0.5
		l0.4-0.5l0.3-0.4l0.6-0.8l0.6-0.7l0.5-0.7l0.5-0.7l0.5-0.7l0.2-0.3l0,0l0.2-0.3l0.4-0.6l0.4-0.6c1.6-2.5,2.4-4.6,2.5-6.1l0-0.2
		l0-0.2C39.1,5,35.9,1.8,31.9,1.8z M31.9,4.6c2.4,0,4.4,2,4.4,4.4s-2,4.4-4.4,4.4s-4.4-2-4.4-4.4S29.5,4.6,31.9,4.6z M31.9,6.1
		c-1.6,0-2.9,1.3-2.9,2.9s1.3,2.9,2.9,2.9c1.6,0,2.9-1.3,2.9-2.9S33.5,6.1,31.9,6.1z"/>
</svg>
