<svg viewBox="0 0 48 48" xmlns="http://www.w3.org/2000/svg" xmlns:xlink="http://www.w3.org/1999/xlink" xml:space="preserve">
    <path fill-rule="evenodd" clip-rule="evenodd" fill="#3B3B3B" d="M39.7,6.5L36.4,0l-3.3,6.5l-7.3,1l5.3,5.1l-1.2,7.2l6.5-3.4l6.5,3.4l-1.2-7.2L47,7.6L39.7,6.5z M34.3,8l2.2-4.3
        L38.6,8l4.8,0.7l-3.5,3.4l0.8,4.8l-4.3-2.2l-4.3,2.2l0.8-4.8l-3.5-3.4L34.3,8z M22.1,9.2V7.6H0.5V40h7.1l8,8l8-8h20.2V22.7h-1.6
        v15.6H23l-7.4,7.3l-7.3-7.3H2.1V9.2H22.1z M16,17v1.6H7.9V17H16z M29.2,27.4v-1.6H7.9v1.6H29.2z"/>
</svg>
