<svg viewBox="0 0 48 48" xmlns="http://www.w3.org/2000/svg" xmlns:xlink="http://www.w3.org/1999/xlink" xml:space="preserve">
	<path fill-rule="evenodd" clip-rule="evenodd" fill="currentColor" d="M29.9,23.1c0.3,0,0.6,0.3,0.6,0.6l0,0v8.6l3.2,3.1c1.7,1.6,2.3,4,1.6,6.2l0,0L34,45.7
		c-0.4,1.4-1.7,2.3-3.1,2.3c-0.3,0-0.7-0.1-1-0.2c-0.8-0.3-1.5-0.8-1.9-1.6c-0.4-0.8-0.5-1.7-0.2-2.5l0,0l1.2-3.8l-2.9-2.7
		c-0.8,0.4-1.6,0.5-2.5,0.5c-0.8,0-1.7-0.2-2.5-0.5l0,0l-2.9,2.7l1.2,3.8c0.3,0.8,0.2,1.7-0.2,2.5c-0.4,0.8-1.1,1.4-1.9,1.6
		c-0.3,0.1-0.7,0.2-1,0.2c-1.4,0-2.7-0.9-3.1-2.3l0,0l-1.3-4.1c-0.7-2.2-0.1-4.6,1.6-6.2l0,0l3.2-3v-8.7c0-0.3,0.3-0.6,0.6-0.6
		s0.6,0.3,0.6,0.6l0,0v8.1c0.1,0,0.3,0,0.5,0.1c1.4,0.4,3.1,2.3,3.5,3.6c0.1,0.3,0.1,0.5,0,0.7c1.2,0.5,2.5,0.5,3.7,0
		c0-0.2,0-0.4,0-0.7c0.3-1.4,2.1-3.2,3.5-3.6c0.1,0,0.3-0.1,0.4-0.1l0,0v-8.1C29.4,23.4,29.6,23.1,29.9,23.1z M29.5,33
		c0,0-0.1,0-0.2,0c-0.9,0.3-2.4,1.8-2.7,2.8c0,0.2,0,0.3,0,0.3l0,0l3.4,3.3c0.2,0.2,0.2,0.4,0.2,0.6l0,0l-1.3,4.1
		c-0.2,0.5-0.1,1.1,0.1,1.6c0.3,0.5,0.7,0.9,1.2,1c0.2,0.1,0.4,0.1,0.6,0.1c0.9,0,1.7-0.6,2-1.5l0,0l1.3-4.1c0.6-1.8,0.1-3.7-1.3-5
		l0,0L29.5,33C29.5,33,29.5,33,29.5,33z M17.8,33C17.7,33,17.7,33,17.8,33L17.8,33l-3.5,3.3c-1.3,1.3-1.8,3.2-1.3,5l0,0l1.3,4.1
		c0.3,0.9,1.1,1.5,2,1.5c0.2,0,0.4,0,0.6-0.1c0.5-0.2,1-0.5,1.2-1c0.3-0.5,0.3-1.1,0.1-1.6l0,0l-1.3-4.1c-0.1-0.2,0-0.5,0.2-0.6l0,0
		l3.4-3.3l0,0c0,0,0-0.1,0-0.3c-0.2-0.9-1.7-2.5-2.7-2.8C17.9,33,17.8,33,17.8,33z M30,19.2c1-0.6,2.4-0.5,3.2,0.4l0,0l4.5,4.6
		c1.3,1.3,1.3,3.5,0,4.9c-1.3,1.3-3.5,1.3-4.9,0c-0.2-0.2-0.2-0.6,0-0.8c0.2-0.2,0.6-0.2,0.8,0c0.9,0.9,2.3,0.9,3.2,0
		c0.9-0.9,0.9-2.3,0-3.2l0,0l-4.5-4.6c-0.5-0.5-1.2-0.6-1.8-0.2c-2.1,1.3-4.5,2-7,2c-2.5,0-4.9-0.7-7-2c-0.6-0.3-1.3-0.3-1.8,0.2l0,0
		L10.3,25c-0.9,0.9-0.9,2.3,0,3.2c0.9,0.9,2.3,0.9,3.2,0c0.2-0.2,0.6-0.2,0.8,0c0.2,0.2,0.2,0.6,0,0.8c-0.7,0.7-1.5,1-2.4,1
		c-0.9,0-1.8-0.3-2.4-1c-1.3-1.3-1.3-3.5,0-4.9l0,0l4.5-4.5c0.9-0.9,2.2-1,3.2-0.4c1.9,1.2,4.1,1.8,6.3,1.8
		C25.9,21,28.1,20.4,30,19.2z M26.7,28.5c0.3,0,0.6,0.3,0.6,0.6s-0.3,0.6-0.6,0.6l0,0h-6.1c-0.3,0-0.6-0.3-0.6-0.6s0.3-0.6,0.6-0.6
		l0,0H26.7z M23.7,0L23.7,0c5.1,0,9.2,4.1,9.2,9.2c0,5.1-4.2,9.2-9.3,9.2c-5.1,0-9.3-4.1-9.3-9.2S18.5,0,23.7,0L23.7,0L23.7,0L23.7,0
		z M23.6,1.2c-0.9,0-1.7,0.8-1.7,1.7c0,0.9,0.8,1.7,1.7,1.7c0.5,0,0.9-0.2,1.3-0.5c0.2-0.2,0.6-0.2,0.8,0c0.2,0.2,0.2,0.6,0,0.8
		c-0.5,0.6-1.3,0.9-2.1,0.9c-1.6,0-2.9-1.3-2.9-2.9c0-0.5,0.1-0.9,0.3-1.3c-3.2,1-5.6,4.1-5.6,7.6c0,4.4,3.6,8,8.1,8s8.1-3.6,8.1-8
		C31.7,4.8,28.1,1.2,23.6,1.2z M25.6,12.2c0.3-0.2,0.6-0.1,0.8,0.2c0.2,0.3,0.1,0.6-0.2,0.8c-0.7,0.4-1.5,0.8-2.6,0.8
		c-1.1,0-1.9-0.4-2.6-0.8c-0.3-0.2-0.4-0.5-0.2-0.8c0.2-0.3,0.5-0.4,0.8-0.2c0.7,0.4,1.3,0.7,2,0.7S24.9,12.6,25.6,12.2z M20.5,8.1
		c0.3,0,0.6,0.3,0.6,0.6l0,0v1c0,0.3-0.3,0.6-0.6,0.6s-0.6-0.3-0.6-0.6l0,0v-1C19.9,8.3,20.2,8.1,20.5,8.1z M26.7,8.1
		c0.3,0,0.6,0.3,0.6,0.6l0,0v1c0,0.3-0.3,0.6-0.6,0.6c-0.3,0-0.6-0.3-0.6-0.6l0,0v-1C26.1,8.3,26.3,8.1,26.7,8.1z"/>
</svg>
