<svg viewBox="0 0 48 48" xmlns="http://www.w3.org/2000/svg" xmlns:xlink="http://www.w3.org/1999/xlink" xml:space="preserve">
	<path fill-rule="evenodd" clip-rule="evenodd" fill="currentColor" d="M18.3,5l4,4l3.3-3.3l9.3,9.3l7.2,0l5.8,10.5l-5.5,0l0,17H3.9l0-23.6l-2.6,5.2L0,23.5
		l3.9-7.8l0-0.6l4.3,0L18.3,5z M29.4,18.7l0,22.4h11.5l0-15.5l-7.7,0L29.4,18.7z M27.9,16.6H5.4v24.5h22.5V16.6z M19.6,21.9
		c1.3,0,2.4,1.1,2.4,2.4l0,0V25c0,1.3-1.1,2.4-2.4,2.4l0,0h-7.1c-1.3,0-2.4-1.1-2.4-2.4l0,0v-0.7c0-1.3,1.1-2.4,2.4-2.4l0,0H19.6z
		M19.6,23.4h-7.1c-0.5,0-0.9,0.4-0.9,0.9l0,0V25c0,0.5,0.4,0.9,0.9,0.9l0,0h7.1c0.5,0,0.9-0.4,0.9-0.9l0,0v-0.7
		C20.5,23.8,20.1,23.4,19.6,23.4L19.6,23.4z M41.2,16.6H29.9l4.2,7.5h11.3L41.2,16.6z M25.6,7.8l-2.2,2.2l5,5h4.5L25.6,7.8z
		M18.3,7.1l-7.9,7.9h15.9L18.3,7.1z"/>
</svg>
