<svg viewBox="0 0 48 48" xmlns="http://www.w3.org/2000/svg">
    <path fill="currentColor" fill-rule="evenodd" d="M32.35,.34c-4.43,0-7.16,6.51-7.16,10.63,0,3.43,1.7,7.54,5.11,7.54,4.43,0,7.16-6.51,7.16-10.63,0-3.43-1.7-7.54-5.11-7.54Zm-2.04,16.67c-1,0-1.85-.57-2.54-1.74-.69-1.19-1.07-2.8-1.07-4.3,0-1.78,.61-4.18,1.72-6.11,1.14-1.97,2.53-3.02,3.94-3.02,1,0,1.85,.57,2.54,1.74,.69,1.19,1.07,2.8,1.07,4.3,0,1.78-.61,4.18-1.72,6.11-1.14,1.97-2.53,3.02-3.94,3.02Z"/>
    <path fill="currentColor" fill-rule="evenodd" d="M15.31,0C11.9,0,10.2,4.12,10.2,7.54c-.34,4.46,2.39,10.97,7.16,10.97,3.41,0,5.11-4.11,5.11-7.54C22.47,6.52,19.74,0,15.31,0Zm5.66,10.97c0,1.5-.38,3.11-1.07,4.3-.68,1.17-1.54,1.74-2.54,1.74-1.62,0-3.09-1.1-4.19-3.05-1.09-1.94-1.62-4.38-1.47-6.3v-.11c0-1.5,.38-3.11,1.08-4.3,.68-1.17,1.54-1.74,2.54-1.74,1.41,0,2.8,1.05,3.93,3.05,1.11,1.96,1.72,4.45,1.72,6.42Z"/>
    <path fill="currentColor" fill-rule="evenodd" d="M42.57,15.09c-4.43,0-7.5,6.17-7.5,10.63,0,3.09,1.36,6.17,4.43,6.17,4.43,0,7.5-6.17,7.5-10.63,0-3.09-1.7-6.17-4.43-6.17Zm-3.07,15.3c-.93,0-1.6-.43-2.09-1.22-.53-.85-.84-2.09-.84-3.45,0-1.93,.68-4.31,1.86-6.19,1.2-1.91,2.67-2.94,4.14-2.94,.72,0,1.41,.39,1.99,1.26,.58,.88,.94,2.12,.94,3.41,0,1.93-.68,4.31-1.86,6.19-1.2,1.91-2.67,2.94-4.14,2.94Z"/>
    <path fill="currentColor" fill-rule="evenodd" d="M5.43,15.09c-3.07,0-4.43,3.09-4.43,6.17,0,4.46,3.41,10.63,7.5,10.63,3.07,0,4.43-3.09,4.43-6.17,0-4.46-3.41-10.63-7.5-10.63Zm6,10.63c0,1.35-.3,2.6-.84,3.45-.5,.79-1.16,1.22-2.09,1.22-1.28,0-2.76-1.01-4.02-2.96-1.23-1.89-1.97-4.27-1.97-6.17,0-1.35,.3-2.6,.84-3.45,.5-.79,1.16-1.22,2.09-1.22,1.28,0,2.76,1.01,4.02,2.96,1.23,1.89,1.97,4.27,1.97,6.17Z"/>
    <path fill="currentColor" fill-rule="evenodd" d="M36.21,35.38c-.8-.8-1.56-1.55-2.06-2.51-.83-1.59-1.42-3.16-1.97-4.61-1.57-4.17-2.78-7.4-8.35-7.4s-6.78,3.23-8.35,7.4c-.55,1.45-1.14,3.02-1.97,4.61-.5,.96-1.26,1.71-2.06,2.51-1.72,1.71-3.63,3.62-3.63,8.16,0,3.43,2.39,4.46,5.11,4.46,2.09,0,3.91-.72,5.69-1.42,1.71-.67,3.38-1.33,5.21-1.33,1.66,0,3.25,.65,4.86,1.32,1.7,.7,3.44,1.42,5.36,1.42,2.73,0,5.79-.69,5.79-4.46,0-4.54-1.91-6.45-3.63-8.16Zm1.01,10.51c-.76,.44-1.87,.61-3.17,.61-1.53,0-2.97-.56-4.67-1.26l-.21-.09c-1.55-.64-3.38-1.4-5.34-1.4-2.12,0-4.03,.75-5.67,1.4l-.2,.08c-1.77,.69-3.31,1.27-5.03,1.27-1.22,0-2.12-.24-2.69-.65-.48-.35-.92-.98-.92-2.3,0-2.95,.88-4.52,1.9-5.74,.4-.48,.81-.88,1.25-1.32,.18-.18,.36-.36,.56-.56,.63-.65,1.31-1.4,1.81-2.36,.85-1.63,1.46-3.23,1.99-4.64l.03-.08c.53-1.41,.97-2.58,1.51-3.56,.54-.97,1.13-1.67,1.91-2.13,.78-.47,1.87-.8,3.55-.8s2.78,.33,3.55,.8c.77,.47,1.37,1.16,1.91,2.13,.54,.98,.98,2.15,1.51,3.56l.03,.08c.53,1.41,1.14,3.01,1.99,4.64,.5,.95,1.18,1.71,1.81,2.36,.19,.2,.38,.38,.56,.56,.44,.44,.85,.84,1.25,1.32,1.02,1.21,1.9,2.79,1.9,5.74,0,1.39-.51,1.99-1.13,2.35Z"/>
</svg>
