<svg viewBox="0 0 48 48" xmlns="http://www.w3.org/2000/svg">
    <path fill="currentColor" d="M39.6 47H4V1H39.599V11.2741H37.9703V2.63452H5.62871V45.3655H37.97V33H39.6V47Z"/>
    <path fill="currentColor" d="M10.515 27.7359H26.3367V29.2537H10.515V27.7359Z"/>
    <path fill="currentColor" d="M26.3367 19.7969H10.515V21.3147H26.3367V19.7969Z"/>
    <path fill="currentColor" d="M10.515 11.8578H18.4258V13.3755H10.515V11.8578Z"/>
    <path fill="currentColor" d="M14.9431 38.2244C14.9266 37.9936 14.6325 37.9071 14.4937 38.0922L11.6004 41.95L10.4004 41.0499L13.2937 37.1922C14.2653 35.8967 16.3239 36.5023 16.4393 38.1175L16.583 40.1302C16.5987 40.349 16.8684 40.4431 17.0167 40.2813L19.3807 37.7024C20.3286 36.6683 22.0339 37.5567 21.7295 38.9261C21.6448 39.3072 22.0167 39.6303 22.3823 39.4932L24.237 38.7977L24.7637 40.2022L22.909 40.8977C21.5617 41.403 20.1933 40.3649 20.2162 39.0108L18.1224 41.2949C17.0847 42.427 15.1963 41.7689 15.0868 40.2371L14.9431 38.2244Z"/>
    <path fill="currentColor" fill-rule="evenodd" clip-rule="evenodd" d="M43.7362 18.1212L32.2362 38.0398L27.1381 40.8699L27.04 35.0398L38.54 15.1212C39.0923 14.1646 40.3155 13.8368 41.2721 14.3891L43.0041 15.3891C43.9607 15.9414 44.2885 17.1646 43.7362 18.1212ZM28.5468 35.43L37.0266 20.7426L39.6247 22.2426L31.1449 36.93L28.5959 38.345L28.5468 35.43ZM37.7766 19.4435L40.3747 20.9435L42.4372 17.3712C42.5752 17.132 42.4933 16.8262 42.2541 16.6882L40.5221 15.6882C40.2829 15.5501 39.9771 15.632 39.8391 15.8712L37.7766 19.4435Z"/>
</svg>
