<svg viewBox="0 0 48 48" xmlns="http://www.w3.org/2000/svg">
  <path fill="currentColor" fill-rule="evenodd" d="M12,0C5.37,0,0,5.37,0,12v24c0,6.63,5.37,12,12,12s12-5.37,12-12V12C24,5.37,18.63,0,12,0Zm10.5,36c0,5.8-4.7,10.5-10.5,10.5S1.5,41.8,1.5,36v-11.25H22.5v11.25Zm0-12.75H1.5V12C1.5,6.2,6.2,1.5,12,1.5s10.5,4.7,10.5,10.5v11.25Z"/>
  <path fill="currentColor" fill-rule="evenodd" d="M36.5,25c-6.35,0-11.5,5.15-11.5,11.5s5.15,11.5,11.5,11.5,11.5-5.15,11.5-11.5-5.15-11.5-11.5-11.5Zm-10,11.5c0-5.52,4.48-10,10-10,2.49,0,4.77,.91,6.52,2.42l-14.1,14.1c-1.51-1.75-2.42-4.03-2.42-6.52Zm10,10c-2.49,0-4.77-.91-6.52-2.42l14.1-14.1c1.51,1.75,2.42,4.03,2.42,6.52,0,5.52-4.48,10-10,10Z"/>
</svg>
