<svg viewBox="0 0 48 48" xmlns="http://www.w3.org/2000/svg" xmlns:xlink="http://www.w3.org/1999/xlink" xml:space="preserve">
	<path fill="currentColor" d="M11.6,39.3l-1-0.8c-3.6-3.2-5.9-7.6-6.4-12.1l-0.1-0.5l0.6-0.3c1.2-0.5,2.6-0.3,3.4,0.7l1.2,1.1c0.5,0.5,1,0.8,1.5,0.8
		c1.4,0.3,2.5,1.5,2.5,3v0.2c0,0.9-0.2,1.8-0.7,2.5c-0.3,0.5-0.6,1.2-0.7,1.9L11.6,39.3z M5.6,26.7c0.5,3.6,2.3,7.1,5,9.9l0.1-1
		c0.1-0.9,0.4-1.8,0.9-2.5c0.3-0.5,0.5-1.1,0.5-1.7v-0.2c0-0.8-0.6-1.5-1.3-1.6C10,29.5,9.2,29,8.5,28.4l-1.3-1.2
		C6.8,26.7,6.2,26.6,5.6,26.7z"/>
	<path fill="currentColor" d="M5.8,22.7H4.1l0.1-0.8c0.4-3.3,1.6-6.5,3.6-9.3l0.4-0.5l2.5,1.5c0.8,0.3,1.5,1.2,1.6,2.2l0.1,0.2c0.3,1.3-0.4,2.7-1.6,3.4
		l-1.3,0.7c-0.5,0.3-0.9,0.6-1.2,1.1C7.7,22.2,6.8,22.7,5.8,22.7z M5.7,21.3h0.1c0.7,0,1.2-0.4,1.5-0.8c0.4-0.6,0.9-1.1,1.6-1.5
		l1.3-0.7c0.7-0.4,1.1-1.2,1-1.9L11,16.1c-0.1-0.6-0.4-1.1-0.9-1.3l-1.5-0.9C7.1,16.2,6.1,18.7,5.7,21.3z"/>
	<path fill="currentColor" d="M41.8,21.7c-0.9,0-1.6-0.6-1.8-1.3c-0.2-0.6-0.4-1.3-0.6-1.7c-0.3-0.7-1-0.8-1.3-0.9l-0.1,0c-0.6,0-1.1,0.2-1.5,0.6
		c-0.8,0.9-2,2.2-3.4,2c0,0,0,0,0,0c-1.1,0-1.7-1.1-1.8-1.2c-1.4-2.7-3.5-4.6-6.1-5.6c-1.6-0.5-3-0.5-3.4-0.5l-0.1,0
		c-0.4,0-0.9,0.2-1.5,0.4c-1.3,0.4-2.5,0.1-3.3-0.9c-0.7-0.8-0.9-2.2,0-3.3L16.9,9c0.4-0.4,1-0.7,1.6-0.7c2.6-0.2,4.6-1.4,6-3.7
		l0.2-0.3l0.4,0c9.3,0.6,17,7.5,18.3,16.5l0.1,0.8h-0.8c-0.1,0-0.3,0-0.4,0C42.2,21.6,42,21.7,41.8,21.7z M38,16.4h0.2
		c1.2,0.1,2,0.7,2.4,1.6c0.3,0.5,0.5,1.2,0.7,2c0.1,0.3,0.4,0.3,0.7,0.3c-1.5-7.8-8.3-13.9-16.6-14.6c-1.7,2.4-4,3.7-6.9,4
		c-0.3,0-0.5,0.1-0.7,0.3l-0.1,0.1c-0.4,0.6-0.3,1.2,0,1.6c0.3,0.3,0.9,0.8,1.9,0.5c0.6-0.2,1.3-0.4,1.9-0.4l0.1,0
		c0.5,0,2.1,0,3.9,0.5c3,1.1,5.3,3.2,6.9,6.2c0.1,0.2,0.4,0.5,0.7,0.5c0.4,0,1.1-0.2,2.3-1.6C36.2,16.8,37,16.4,38,16.4z"/>
	<path fill="currentColor" d="M34.6,38l-2.3-2l0.8-3.8l3.1-2.8l1,4.6L34.6,38z M33.8,35.5l0.5,0.4l1.5-2.2L35.5,32l-1.1,1L33.8,35.5z"/>
	<path fill="currentColor" d="M26.2,38.7c-0.7,0-1.3-0.4-1.6-1l-0.7-2.2l-1.3-5.2c0-0.1-0.1-0.2-0.1-0.3c0,0,0-0.1-0.1-0.2l-0.7-1.4
		c-0.2-0.4-0.6-0.9-1.4-0.9c-0.2,0-0.3,0-0.5,0.1l-0.6,0.2c-0.5,0.2-1.1,0-1.5-0.4l-2.1-1.8c-0.4-0.3-0.6-0.7-0.6-1.3v-0.7
		c0-0.4,0.2-0.7,0.3-0.9l2.7-3.9c0.2-0.2,0.7-0.6,1.3-0.6h2.1l2.6,1.6c0.4,0.2,0.7,0.3,1.1,0.2l1.5-0.3c0.7-0.1,1.5,0.2,1.8,1
		l1.3,3.1c0.1,0.4,0.4,0.6,0.7,0.8l1.4,0.9c0.2,0.2,0.6,0.6,0.6,1.2c0,0.4,0,0.9-0.4,1.3l-1.1,1.4c-0.2,0.3-0.4,0.7-0.4,1.1v2.2
		c0,0.5-0.2,0.8-0.5,1.2l-0.6,0.7c-0.1,0.1-0.1,0.2-0.1,0.2c0,0.1-0.1,0.1-0.1,0.2l-1.6,2.8c-0.2,0.4-0.5,0.6-0.8,0.7l-0.2,0.1
		C26.5,38.7,26.4,38.7,26.2,38.7z M25.3,35.4l0.7,1.8c0.1,0.2,0.2,0.2,0.4,0.2c0.1,0,0.1-0.1,0.1-0.1l1.6-2.8c0-0.1,0.1-0.2,0.2-0.3
		c0-0.1,0.1-0.1,0.1-0.2l0.1-0.1l0.7-0.8c0.1-0.1,0.1-0.2,0.1-0.3v-2.2c0-0.6,0.2-1.4,0.6-1.9l1.2-1.5c0.1-0.1,0.1-0.3,0.1-0.4
		c0,0-0.1-0.1-0.1-0.2l-1.2-0.8c-0.5-0.4-0.9-0.7-1.2-1.4l-1.3-3.1c0,0-0.1-0.2-0.3-0.2l-1.5,0.3c-0.8,0.1-1.4,0-2.1-0.4l-2.2-1.4
		h-1.7c0,0-0.2,0-0.3,0.2l-2.6,3.6c0,0-0.1,0.2-0.1,0.2v0.7c0,0.2,0.1,0.2,0.1,0.2l2.2,1.8c0.1,0.1,0.1,0.1,0.1,0.1l0.6-0.2
		c0.4-0.1,0.7-0.1,0.9-0.1c1.1,0,2.1,0.6,2.6,1.7l0.7,1.4c0.1,0.1,0.1,0.2,0.1,0.3c0,0,0,0.1,0.1,0.2l0.1,0.1L25.3,35.4z"/>
	<path fill="currentColor" d="M23.9,43.7C13.1,43.7,4.2,34.8,4.2,24S13.1,4.3,23.9,4.3c10.8,0,19.7,8.8,19.7,19.7S34.7,43.7,23.9,43.7z M23.9,5.7
		C13.8,5.7,5.6,13.9,5.6,24s8.2,18.3,18.3,18.3c10.1,0,18.3-8.2,18.3-18.3S34,5.7,23.9,5.7z"/>
</svg>
