<svg viewBox="0 0 48 48" xmlns="http://www.w3.org/2000/svg">
  <path fill="currentColor" fill-rule="evenodd" d="M46,6H2c-1.1,0-2,.9-2,2v27c0,1.1,.9,2,2,2H19.55l-.8,4H6.55v2H41.45v-2h-12.2l-.8-4h17.55c1.1,0,2-.9,2-2V8c0-1.1-.9-2-2-2Zm.5,29c0,.28-.22,.5-.5,.5H2c-.28,0-.5-.22-.5-.5V8c0-.28,.22-.5,.5-.5H46c.28,0,.5,.22,.5,.5v27Z"/>
  <path fill="currentColor" fill-rule="evenodd" d="M15,11H6c-.55,0-1,.45-1,1V31c0,.55,.45,1,1,1H15c.55,0,1-.45,1-1V12c0-.55-.45-1-1-1Zm-.5,19.5H6.5V12.5H14.5V30.5Z"/>
  <rect fill="currentColor" x="20" y="12.25" width="20" height="1.5"/>
  <rect fill="currentColor" x="20" y="17.25" width="20" height="1.5"/>
  <rect fill="currentColor" x="20" y="22.25" width="8" height="1.5"/>
  <path fill="currentColor" fill-rule="evenodd" d="M38.57,28.15l3.18-.98c.07-.02,.14-.07,.18-.13,.04-.06,.07-.14,.07-.21s-.02-.15-.07-.21c-.04-.06-.11-.11-.18-.13l-9.25-3.45c-.07-.02-.14-.03-.21-.02-.07,.01-.13,.05-.18,.1-.05,.05-.08,.11-.1,.18-.02,.07-.01,.14,.01,.21l3.47,9.27c.03,.07,.08,.13,.14,.18s.14,.06,.22,.06c.08,0,.15-.03,.21-.07s.11-.11,.13-.18l.99-3.22,3.36,3.28c.07,.07,.16,.11,.26,.11s.19-.04,.26-.11l.87-.87c.07-.07,.11-.16,.11-.26s-.04-.19-.11-.26l-3.35-3.26Z"/>
</svg>
