<svg viewBox="0 0 48 48" xmlns="http://www.w3.org/2000/svg" xmlns:xlink="http://www.w3.org/1999/xlink" xml:space="preserve">
	<path fill-rule="evenodd" clip-rule="evenodd" fill="currentColor" d="M25.1,0c1.5-0.1,3.1,0.3,4.4,1.2c1.8,1.2,3.2,3.1,4,5.5c0.8,2.8,0.9,6.1,0.2,10
		c-0.1,0.3-0.3,0.5-0.6,0.5c0,0-0.1,0-0.1,0c-0.3-0.1-0.5-0.4-0.5-0.7c0.7-3.6,0.7-6.8-0.1-9.4c-0.7-2.2-1.9-3.9-3.5-4.9
		C27,1,24.7,0.8,22.6,1.8c1.5,0.6,2.4,1.6,3.1,3.2c0.7,1.8,1,4.3,1,8.5c0,1.7,0.6,3.1,1.6,4.1c2.6,2.4,7.3,2,7.4,2
		c0.3,0,0.6,0.2,0.6,0.5c0,0.3-0.2,0.6-0.5,0.6c-0.1,0-0.4,0-1,0c-0.7,0-1.7,0-2.8-0.3l0,0l3.8,5.8c0,0,0.1,0.1,0.1,0.2
		c1.3,2.1,1,4.8-0.7,6.7l0,0l-6.5,7c0.1,0.2,0.2,0.4,0.3,0.6c1.1,2.1,2.3,4.3,2.5,6.7c0,0.3-0.2,0.6-0.5,0.6c0,0,0,0-0.1,0
		c-0.3,0-0.5-0.2-0.6-0.5c-0.2-2.1-1.3-4.2-2.4-6.3c-0.7-1.3-1.4-2.7-1.9-4.1c0,0,0-0.1,0-0.1c-0.3-0.9-0.5-1.9-0.5-2.9
		c0-4.5,2.8-8.4,2.9-8.6c0.1-0.1,0.3-0.2,0.4-0.2c0.2,0,0.4,0.1,0.5,0.2l0,0l2.7,3.1c0,0,0,0,0,0.1c0.2,0.4,0.2,0.8,0,1.2l0,0
		L27.3,37c0.2,0.7,0.5,1.3,0.9,2l0,0l6.2-6.7c1.3-1.5,1.6-3.6,0.6-5.3l0,0l-0.1-0.1L30.4,20c0,0,0,0,0,0c-1-0.3-2-0.9-2.8-1.6
		c-1.3-1.2-2-2.9-2-5c0-7.5-1-10.1-4.3-10.8c-1.5,0.9-1.6,2.2-1.6,3.6c0,1-0.1,2.1-0.8,2.9c0,2.6,0.8,3.4,3,3.4
		c0.2,0,0.4,0.1,0.5,0.3c0,0,0.6,1.2,0.4,2.9c-0.4,2.2-2,4.3-4.7,6.2c-1.3,0.9-2.1,2.1-2.1,3.2c0,0.9,0.4,1.7,1.2,2.3
		c0.2,0.1,0.3,0.3,0.2,0.5c0,0.2-0.1,0.4-0.3,0.5c-0.1,0-5.4,3.2-5.4,8.7c0,3.7,1.6,5.8,2.9,7.6c0.7,0.9,1.3,1.8,1.6,2.7
		c0.1,0.3-0.1,0.6-0.4,0.7c0,0-0.1,0-0.1,0c-0.3,0-0.5-0.2-0.6-0.4c-0.2-0.7-0.7-1.4-1.4-2.3c-1.3-1.8-3.1-4.2-3.1-8.3
		c0-2.5,1-5,3-7.2c0.9-1,1.7-1.7,2.3-2.1c-0.7-0.7-1.1-1.7-1.1-2.7c0-1.5,0.9-3,2.6-4.1c2.4-1.7,3.9-3.5,4.2-5.3
		c0.2-0.9,0-1.6-0.1-1.9c-3.3-0.2-3.7-2.5-3.7-4.8c0-0.2,0.1-0.3,0.2-0.4c0.6-0.6,0.6-1.4,0.6-2.3c0-1.1,0.1-2.4,1-3.5l0,0L21,1.4
		C22.3,0.5,23.7,0.1,25.1,0z M20.7,34c0.8,0,1.6,0.3,2.1,0.9c1.2,1.2,1.3,3,0.2,4.6c-1.6,2.3-4.2,3.7-4.3,3.7c-0.1,0-0.2,0.1-0.3,0.1
		s-0.2,0-0.3-0.1c-0.1-0.1-2.7-1.4-4.3-3.7c-1.1-1.6-1-3.4,0.2-4.6c0.6-0.6,1.3-0.9,2.1-0.9c0.8,0,1.6,0.3,2.1,0.9
		c0,0,0.1,0.1,0.1,0.1c0,0,0.1-0.1,0.1-0.1C19.2,34.3,19.9,34,20.7,34z M20.7,35.2c-0.5,0-1,0.2-1.3,0.5c-0.1,0.1-0.3,0.3-0.5,0.5
		l0,0l0,0c-0.2,0.2-0.6,0.2-0.8,0l0,0l0,0c-0.2-0.2-0.4-0.4-0.5-0.5c-0.4-0.4-0.8-0.5-1.3-0.5c-0.5,0-1,0.2-1.3,0.5l0,0l-0.1,0.1
		c-0.7,0.8-0.6,1.9,0.1,3c1.1,1.7,2.9,2.8,3.6,3.2c0.7-0.4,2.5-1.5,3.6-3.2c0.8-1.1,0.8-2.3,0-3.1C21.7,35.4,21.2,35.2,20.7,35.2z
		 M29,26.9c-0.7,1.3-2.3,4.2-2.3,7.3c0,0.4,0,0.9,0.1,1.3l0,0l4.2-6.2L29,26.9z"/>
</svg>
