<svg viewBox="0 0 48 48" xmlns="http://www.w3.org/2000/svg">
  <path fill="currentColor" fill-rule="evenodd" d="M43.98,20.4c2.27-.27,4.02-2.2,4.02-4.54,0-2.17-1.51-3.99-3.54-4.46-.47-2.03-2.28-3.54-4.46-3.54-.64,0-1.25,.13-1.8,.37-.54-.74-1.14-1.45-1.81-2.11-3.31-3.3-7.71-5.12-12.39-5.12h0c-4.69,0-9.1,1.85-12.41,5.2-.64,.64-1.22,1.33-1.74,2.05-.56-.25-1.19-.39-1.85-.39-2.17,0-3.99,1.51-4.46,3.54-2.03,.47-3.54,2.28-3.54,4.46,0,2.34,1.76,4.27,4.02,4.54,.37,.65,.89,1.2,1.52,1.6-1.9,.74-3.25,2.58-3.25,4.74,0,2.59,1.95,4.73,4.47,5.05,.63,3.48,2.29,6.69,4.83,9.25,3.32,3.35,7.72,5.2,12.41,5.2h0c4.68,0,9.08-1.82,12.39-5.12,2.59-2.58,4.26-5.82,4.88-9.34,2.5-.32,4.44-2.46,4.44-5.04,0-2.15-1.35-4-3.25-4.74,.63-.4,1.15-.95,1.52-1.6ZM12.9,7.49c2.97-3,6.91-4.65,11.1-4.65h0c4.19,0,8.13,1.63,11.09,4.58,.59,.58,1.12,1.2,1.6,1.86-.78,.82-1.26,1.93-1.26,3.16,0,1.08,.38,2.07,1,2.86-.63,.78-1,1.78-1,2.86,0,.34,.04,.66,.11,.98-1.03-.62-2.24-.98-3.53-.98-3.4,0-6.22,2.47-6.76,5.71h-2.48c-.54-3.24-3.36-5.71-6.76-5.71-1.29,0-2.5,.36-3.53,.98,.07-.32,.11-.64,.11-.98,0-1.08-.38-2.07-1-2.86,.63-.78,1-1.78,1-2.86,0-1.2-.47-2.3-1.23-3.12,.47-.64,.99-1.25,1.56-1.83Zm24.24,17.51c0,2.84-2.3,5.14-5.14,5.14s-5.14-2.3-5.14-5.14,2.3-5.14,5.14-5.14,5.14,2.3,5.14,5.14Zm-16,0c0,2.84-2.3,5.14-5.14,5.14s-5.14-2.3-5.14-5.14,2.3-5.14,5.14-5.14,5.14,2.3,5.14,5.14Zm-17.02,1.74c0-1.47,.99-2.72,2.34-3.12v4.97c0,.43,.02,.86,.05,1.28-1.38-.38-2.39-1.64-2.39-3.13Zm1.39-7.19l-.43-.75-.86-.1c-1.41-.17-2.51-1.38-2.51-2.84,0-1.36,.95-2.49,2.21-2.78l1.05-.24,.24-1.05c.29-1.27,1.43-2.21,2.78-2.21,1.58,0,2.86,1.28,2.86,2.86,0,.68-.23,1.3-.63,1.78l-.86,1.07,.86,1.07c.39,.49,.63,1.11,.63,1.78,0,1.58-1.28,2.86-2.86,2.86-1.06,0-1.99-.58-2.49-1.45Zm34.18,9.21c0,4.18-1.63,8.1-4.6,11.06-2.96,2.95-6.9,4.58-11.09,4.58h0c-4.19,0-8.13-1.65-11.1-4.65-2.96-2.99-4.59-6.96-4.59-11.16v-5.88c.47-.03,.92-.13,1.34-.3-.33,.8-.51,1.68-.51,2.59,0,3.79,3.07,6.86,6.86,6.86s6.54-2.77,6.83-6.29h2.33c.29,3.52,3.24,6.29,6.83,6.29,3.79,0,6.86-3.07,6.86-6.86,0-.92-.18-1.79-.51-2.59,.42,.16,.87,.27,1.34,.3v6.06Zm4.18-2.03c0,1.49-1.01,2.74-2.38,3.13,.02-.37,.04-.73,.04-1.1v-5.15c1.35,.4,2.34,1.64,2.34,3.12Zm-1.39-7.19c-.49,.87-1.42,1.45-2.49,1.45-1.58,0-2.86-1.28-2.86-2.86,0-.68,.23-1.3,.63-1.78l.86-1.07-.86-1.07c-.39-.49-.63-1.11-.63-1.78,0-1.58,1.28-2.86,2.86-2.86,1.36,0,2.49,.95,2.78,2.21l.24,1.05,1.05,.24c1.27,.29,2.21,1.43,2.21,2.78,0,1.46-1.1,2.67-2.51,2.84l-.86,.1-.43,.75Z"/>
  <path fill="currentColor" fill-rule="evenodd" d="M20.44,11.59c.88-.16,2.22-.36,3.56-.36s2.68,.2,3.56,.36c.51,.1,1.01-.29,1.01-.82,0-.37-.25-.69-.61-.76-.83-.17-2.4-.44-3.96-.44s-3.13,.27-3.96,.44c-.36,.07-.61,.39-.61,.76,0,.52,.49,.91,1.01,.82Z"/>
  <path fill="currentColor" fill-rule="evenodd" d="M15.86,16.15c1.6-.33,4.87-.92,8.14-.92s6.54,.59,8.14,.92c.51,.11,1-.28,1-.81,0-.37-.25-.69-.61-.77-1.39-.31-4.96-1-8.53-1s-7.14,.7-8.53,1c-.36,.08-.61,.4-.61,.77,0,.52,.49,.91,1,.81Z"/>
  <path fill="currentColor" fill-rule="evenodd" d="M27.16,35.89c-.69,.23-1.7,.43-3.16,.43s-2.48-.2-3.16-.43c-.47-.16-1.27,.27-1.27,.76,0,.12,.04,.23,.13,.31,.36,.3,1.52,1.02,4.3,1.02s3.94-.72,4.3-1.02c.09-.08,.13-.19,.13-.31,0-.49-.81-.92-1.27-.76Z"/>
  <path fill="currentColor" fill-rule="evenodd" d="M16.57,23.66c-.95,0-1.71,.77-1.71,1.72s.77,1.72,1.71,1.72,1.71-.77,1.71-1.72-.77-1.72-1.71-1.72Z"/>
  <path fill="currentColor" fill-rule="evenodd" d="M31.43,23.66c-.95,0-1.71,.77-1.71,1.72s.77,1.72,1.71,1.72,1.71-.77,1.71-1.72-.77-1.72-1.71-1.72Z"/>
</svg>
