<svg viewBox="0 0 48 48" xmlns="http://www.w3.org/2000/svg" xmlns:xlink="http://www.w3.org/1999/xlink" xml:space="preserve">
    <path fill="currentColor" d="M15.7,5.7v1.5H3.4v38.5h28.7V27.9h1.5v19.2H1.9V5.7H15.7z M20.5,34.4v1.5h-14v-1.5H20.5z M20.5,25.7v1.5h-14
		v-1.5H20.5z M37.2,6.7c5.5,0,10,4.5,10,10s-4.5,10-10,10c-2.9,0-5.6-1.2-7.5-3.4L29.5,23l1.1-0.9c1.6,1.9,4,3.1,6.6,3.1
		c4.7,0,8.5-3.8,8.5-8.5s-3.8-8.5-8.5-8.5l-0.2,0l-0.2,0l-0.1-1.5C36.9,6.7,37,6.7,37.2,6.7z M37.7,19.5c1.4,0,2.6,0.4,3.4,1.1
		l0.1,0.1l-1,1c-0.4-0.4-1.4-0.8-2.5-0.8c-1,0-2,0.3-2.4,0.7l-0.1,0.1l-1-1C34.9,20,36.2,19.5,37.7,19.5z M26.5,1.8
		c5.5,0,10,4.5,10,10s-4.5,10-10,10s-10-4.5-10-10S21,1.8,26.5,1.8z M26.5,3.3c-4.7,0-8.5,3.8-8.5,8.5s3.8,8.5,8.5,8.5
		s8.5-3.8,8.5-8.5S31.2,3.3,26.5,3.3z M13.7,16.9v1.5H6.5v-1.5H13.7z M29.4,13.9l1.3,0.7c-0.8,1.4-2.4,2.3-4.2,2.3
		c-1.7,0-3.2-0.8-4-2.1l-0.1-0.2l1.3-0.7c0.6,1,1.7,1.6,2.9,1.6c1.2,0,2.2-0.5,2.8-1.4L29.4,13.9z M40.6,13.2c0.5,0,1,0.4,1,1
		s-0.4,1-1,1c-0.5,0-1-0.4-1-1S40.1,13.2,40.6,13.2z M23.1,8.4c0.5,0,1,0.4,1,1s-0.4,1-1,1c-0.5,0-1-0.4-1-1S22.5,8.4,23.1,8.4z
        M29.9,8.4c0.5,0,1,0.4,1,1s-0.4,1-1,1c-0.5,0-1-0.4-1-1S29.4,8.4,29.9,8.4z"/>
</svg>
