<svg viewBox="0 0 48 48" xmlns="http://www.w3.org/2000/svg" xmlns:xlink="http://www.w3.org/1999/xlink" xml:space="preserve">
	<path fill="currentColor" d="M14.7,42.7c-2.2,0-4.4-0.6-6.4-1.6c-2.8-1.5-5-3.9-6.2-6.8c-1.3-2.9-1.6-6.1-0.8-9.3c0.8-3.1,2.5-5.8,5-7.8
		c2.4-2,5.4-3.1,8.6-3.1c3,0,6,1,8.4,2.8c0.3,0.2,0.4,0.7,0.2,1s-0.7,0.4-1,0.2c-2.2-1.6-4.9-2.6-7.6-2.6c-2.8,0-5.5,1-7.6,2.7
		c-2.2,1.8-3.8,4.2-4.4,7c-0.7,2.8-0.4,5.8,0.8,8.3c1.1,2.6,3,4.7,5.6,6c2.5,1.3,5.3,1.8,8,1.2c2.6-0.5,5.1-1.9,7.1-4.1
		c1.8-2,2.9-4.7,3.1-7.6c0.2-2.8-0.6-5.7-2.2-8c-0.2-0.3-0.1-0.8,0.2-1c0.3-0.2,0.8-0.1,1,0.2c1.8,2.6,2.6,5.8,2.4,9
		c-0.2,3.3-1.5,6.3-3.5,8.6c-2.2,2.4-5,4-7.9,4.5C16.4,42.6,15.5,42.7,14.7,42.7z"/>
	<path fill="currentColor" d="M33.8,42.7c-3,0-6-1-8.4-2.9c-0.3-0.3-0.4-0.7-0.1-1.1s0.7-0.4,1.1-0.1c2.1,1.6,4.7,2.5,7.4,2.5c2.8,0,5.5-1,7.6-2.7
		c2.2-1.8,3.8-4.3,4.4-7c0.7-2.7,0.4-5.6-0.8-8.2c-1.1-2.6-3.1-4.7-5.6-6c-2.5-1.3-5.3-1.8-8-1.3c-2.7,0.6-5.2,2-7.1,4.1
		c-1.8,2.2-2.9,4.9-3.1,7.6c-0.2,2.9,0.5,5.7,2,8c0.1,0.1,0.1,0.2,0.2,0.3c0.3,0.3,0.3,0.7,0,1c-0.3,0.3-0.8,0.3-1.1,0
		c-0.1-0.1-0.2-0.3-0.2-0.3c-1.8-2.6-2.6-5.7-2.4-9c0.2-3.1,1.4-6,3.5-8.5c2.1-2.4,4.9-3.9,7.9-4.6c3.1-0.5,6.3,0,9,1.5
		c2.7,1.5,4.9,3.9,6.2,6.8c1.3,2.9,1.6,6.1,0.8,9.2c-0.7,3-2.5,5.8-5,7.8C40,41.6,36.9,42.7,33.8,42.7z"/>
	<path fill="currentColor" d="M16.7,13.9h-4c-0.3,0-0.5-0.2-0.7-0.4l-2-3.8c-0.1-0.3-0.1-0.6,0.1-0.8l2-2.7c0.1-0.2,0.4-0.3,0.6-0.3h4
		c0.2,0,0.5,0.1,0.6,0.3l1.9,2.7c0.2,0.2,0.2,0.5,0.1,0.8l-1.9,3.8C17.2,13.7,17,13.9,16.7,13.9z M13.2,12.4h3.1l1.5-3l-1.4-2h-3.2
		l-1.5,2L13.2,12.4z"/>
</svg>
