<svg viewBox="0 0 48 49" xmlns="http://www.w3.org/2000/svg">
    <path fill="currentColor" fill-rule="evenodd" clip-rule="evenodd" d="M26.05 4.47741V7.42759L27.3714 7.72329C33.7356 9.14746 37.3 14.1741 37.3 20.7013V28.3469C37.3 31.3376 38.5751 34.1888 40.8154 36.2658L42.2347 37.5815C42.2852 37.6283 42.3 37.6775 42.3 37.7139V38.3014C42.3 38.3399 42.2862 38.3853 42.2362 38.4324C42.185 38.4805 42.105 38.5192 42 38.5192H6C5.89505 38.5192 5.81501 38.4805 5.76385 38.4324C5.71386 38.3853 5.7 38.3399 5.7 38.3014V37.7139C5.7 37.6775 5.71484 37.6283 5.76532 37.5815L7.18458 36.2658C9.42489 34.1888 10.7 31.3376 10.7 28.3469V20.7013C10.7 14.1741 14.2644 9.14746 20.6286 7.72329L21.95 7.42759V4.47741C21.95 3.62823 22.8494 2.66616 24 2.66616C25.1506 2.66616 26.05 3.62823 26.05 4.47741ZM42 40.1845C43.1046 40.1845 44 39.3414 44 38.3014V37.7139C44 37.2094 43.785 36.726 43.4032 36.372L41.984 35.0562C40.075 33.2864 39 30.8694 39 28.3469V20.7013C39 13.5165 35 7.7222 27.75 6.0998V4.47741C27.75 2.62325 26 1.00085 24 1.00085C22 1.00085 20.25 2.62325 20.25 4.47741V6.0998C13 7.7222 9 13.5165 9 20.7013V28.3469C9 30.8694 7.92504 33.2864 6.01604 35.0562L4.59679 36.372C4.21499 36.726 4 37.2094 4 37.7139V38.3014C4 39.3414 4.89543 40.1845 6 40.1845H42ZM24 48.0213C26.75 48.0213 29 45.8512 29 43.1987H19C19 45.8512 21.25 48.0213 24 48.0213Z"/>
</svg>
