<svg viewBox="0 0 48 48" xmlns="http://www.w3.org/2000/svg" xmlns:xlink="http://www.w3.org/1999/xlink">
    <path fill="currentColor" fill-rule="evenodd" clip-rule="evenodd" d="M9.9,13c0-0.4,0.3-0.8,0.7-1v-0.3c0-0.1,0-0.2,0-0.3c-0.1-0.6-0.4-2.1-0.9-3C9.2,7.5,8.3,6.5,7.4,5.8
        C6.3,4.8,6.1,3.1,7.2,2c0.9-0.9,2.3-1,3.3-0.2L11,2.2c0.6,0.5,1.5,0.7,2.3,0.4c1.1-0.4,2.8-0.9,4.4-1.2c1.6-0.3,3.4-0.5,4.8-0.2
        c2.3,0.5,4.2,1.4,5.3,2.5c0.5,0.5,1,1.2,1,1.9c0,0.8-0.4,1.5-1,2c-0.6,0.5-1.3,0.7-2,0.5c-0.6-0.1-1.1-0.4-1.6-0.7
        c-0.1-0.1-0.2-0.1-0.2-0.1c-0.8-0.5-1.6-1-2.7-1c-3.5,0-5.3,1.6-6,2.3c-0.1,0.1-0.2,0.3-0.2,0.5V12c0.4,0.1,0.7,0.5,0.7,1v2
        c0,0.4-0.3,0.8-0.7,1v28.8c0,1.3-1,2.3-2.3,2.3c-1.3,0-2.3-1-2.3-2.3V15.9c-0.4-0.1-0.7-0.5-0.7-1V13z M18,2.9
        c-1.6,0.3-3.1,0.8-4.2,1.2c-1.3,0.4-2.8,0.2-3.9-0.7L9.5,3C9.2,2.8,8.7,2.8,8.4,3.1C8,3.5,8,4.2,8.5,4.6c0.9,0.8,2,1.9,2.6,3
        c0.6,1.1,0.9,2.9,1,3.5c0,0.2,0.1,0.4,0.1,0.6V12h1.4V9.1c0-0.5,0.2-1.1,0.6-1.6c0.9-1,3.2-2.8,7.2-2.8c1.6,0,2.8,0.8,3.6,1.3
        C25,6,25.1,6,25.2,6.1c0.4,0.3,0.7,0.4,1,0.5c0.2,0,0.4,0,0.7-0.2c0.3-0.3,0.4-0.5,0.4-0.6c0-0.2-0.1-0.5-0.5-0.9
        C26,4,24.4,3.2,22.2,2.7C21.1,2.5,19.6,2.6,18,2.9z M13.6,44.7V16h-1.4v28.7c0,0.4,0.3,0.7,0.7,0.7C13.3,45.4,13.6,45.1,13.6,44.7z"/>
    <path fill="currentColor" fill-rule="evenodd" clip-rule="evenodd" d="M40.8,29.8c0,0,0-0.1,0-0.1l-2.5-6c0,0,0,0,0-0.1c-0.4-0.7-0.8-1.3-1.4-1.8c-0.6-0.5-1.4-0.7-2.3-0.7
        c-0.4,0-0.8,0.4-0.8,0.8s0.4,0.8,0.8,0.8c0.6,0,1,0.1,1.3,0.4c0.3,0.2,0.6,0.6,0.9,1.2l1.3,3.1c-0.5-0.2-1-0.3-1.6-0.3
        c-1.9,0-3.5,1.1-4.3,2.6c-0.5-0.4-1.1-0.6-1.7-0.6s-1.2,0.2-1.7,0.6c-0.8-1.5-2.4-2.6-4.3-2.6c-0.6,0-1.1,0.1-1.6,0.3l1.3-3.1
        c0.3-0.6,0.6-1,0.9-1.2c0.3-0.2,0.7-0.4,1.4-0.4c0.4,0,0.8-0.4,0.8-0.8s-0.4-0.8-0.8-0.8c-0.9,0-1.7,0.2-2.3,0.7
        c-0.6,0.4-1,1.1-1.4,1.8c0,0,0,0,0,0.1l-2.5,6c0,0,0,0.1,0,0.1c-0.3,0.7-0.5,1.4-0.5,2.2c0,2.7,2.1,4.8,4.8,4.8s4.8-2.1,4.8-4.8
        c0-0.3,0.1-0.6,0.4-0.8c0.2-0.2,0.5-0.4,0.8-0.4s0.6,0.1,0.8,0.4c0.2,0.2,0.4,0.5,0.4,0.8c0,2.7,2.1,4.8,4.8,4.8s4.8-2.1,4.8-4.8
        C41.3,31.2,41.1,30.5,40.8,29.8z M24.5,35.2c-1.8,0-3.2-1.4-3.2-3.2c0-1.8,1.4-3.2,3.2-3.2s3.2,1.4,3.2,3.2
        C27.7,33.8,26.3,35.2,24.5,35.2z M36.5,35.2c-1.8,0-3.2-1.4-3.2-3.2c0-1.8,1.4-3.2,3.2-3.2s3.2,1.4,3.2,3.2
        C39.7,33.8,38.3,35.2,36.5,35.2z"/>
</svg>
