<svg viewBox="0 0 48 48" xmlns="http://www.w3.org/2000/svg">
  <path fill="currentColor" fill-rule="evenodd" d="M44.5,1H4.5c-1.93,0-3.5,1.57-3.5,3.5V20.5c0,1.93,1.57,3.5,3.5,3.5H22.5v3.91l-1.76-1.32c-.64-.48-1.43-.72-2.22-.68-.79,.04-1.54,.35-2.12,.87l-5.57,4.32c-.36-.94-1.27-1.6-2.33-1.6h-2.49c-1.38,0-2.5,1.12-2.5,2.5v13.47c0,1.38,1.12,2.5,2.5,2.5h2.49c.95,0,1.78-.53,2.2-1.31H27.3c.93,0,1.71-.31,2.24-.84,.53-.52,.8-1.22,.8-1.91,0-.53-.15-1.06-.47-1.52,.34-.14,.63-.34,.87-.58,.53-.52,.8-1.22,.8-1.91,0-.6-.2-1.21-.6-1.7,.19-.11,.36-.25,.51-.4,.53-.52,.8-1.22,.8-1.91s-.26-1.39-.8-1.91c-.06-.06-.13-.12-.19-.17,.45-.51,.7-1.2,.7-1.92s-.29-1.43-.81-1.95c-.52-.52-1.22-.81-1.95-.81h-2.71v-5.12h18c1.93,0,3.5-1.57,3.5-3.5V4.5c0-1.93-1.57-3.5-3.5-3.5ZM9.49,45.47c0,.55-.45,1-1,1h-2.49c-.55,0-1-.45-1-1v-13.47c0-.55,.45-1,1-1h2.49c.55,0,1,.45,1,1v13.47Zm19.72-14.85c.33,0,.65,.13,.89,.37,.24,.24,.37,.55,.37,.89,0,.77-.48,1.25-1.1,1.25h-2.83c-.41,0-.75,.34-.75,.75s.34,.75,.75,.75h2.67c.59,0,.97,.19,1.19,.41,.23,.23,.35,.53,.35,.84s-.12,.62-.35,.84c-.22,.22-.6,.41-1.19,.41h-2.67c-.41,0-.75,.34-.75,.75s.34,.75,.75,.75h1.97c.59,0,.97,.19,1.19,.41,.23,.23,.35,.53,.35,.84s-.12,.62-.35,.84c-.22,.22-.6,.41-1.19,.41h-1.97c-.16,0-.3,.05-.42,.13-.04,.03-.08,.06-.11,.09-.14,.14-.22,.32-.22,.53,0,.41,.34,.75,.75,.75h.76c.59,0,.97,.19,1.19,.41,.23,.23,.35,.53,.35,.84s-.12,.62-.35,.84c-.22,.22-.6,.41-1.19,.41H11v-12.29l6.34-4.92s.03-.03,.05-.04c.33-.3,.76-.48,1.2-.5,.45-.02,.89,.11,1.25,.38l1.77,1.33h-1.76c-.41,0-.75,.34-.75,.75s.34,.75,.75,.75h4s.01,0,.02,0h5.34Zm17.29-10.12c0,1.1-.9,2-2,2H4.5c-1.1,0-2-.9-2-2V4.5c0-1.1,.9-2,2-2H44.5c1.1,0,2,.9,2,2V20.5Z"/>
  <path fill="currentColor" fill-rule="evenodd" d="M15.46,13.01c-.3-.28-.69-.53-1.16-.76-.47-.22-1.03-.43-1.67-.61-.47-.13-.87-.27-1.21-.41-.33-.14-.61-.29-.83-.46-.21-.17-.37-.35-.48-.54-.1-.2-.15-.42-.15-.66,0-.35,.08-.67,.25-.95,.17-.28,.43-.49,.78-.66,.35-.16,.79-.24,1.33-.24,.57,0,1.04,.1,1.41,.29,.37,.19,.65,.45,.83,.78,.18,.33,.27,.71,.27,1.13h1.5c0-.59-.16-1.15-.47-1.67-.31-.53-.77-.95-1.37-1.27-.59-.33-1.32-.49-2.17-.49-.58,0-1.11,.08-1.59,.23-.47,.16-.88,.38-1.23,.66-.34,.28-.6,.6-.78,.98s-.27,.78-.27,1.23,.09,.84,.26,1.18c.17,.34,.42,.65,.74,.91,.32,.27,.71,.5,1.16,.71,.45,.2,.96,.39,1.52,.55,.54,.16,.98,.31,1.33,.46,.35,.15,.63,.31,.83,.48,.2,.17,.34,.35,.42,.56,.08,.2,.12,.44,.12,.7,0,.37-.1,.69-.29,.96-.19,.27-.46,.48-.83,.62-.36,.15-.81,.22-1.34,.22-.36,0-.72-.04-1.05-.12-.33-.09-.63-.22-.9-.41-.26-.18-.47-.41-.62-.69-.15-.28-.23-.62-.23-1.01h-1.5c0,.57,.12,1.07,.37,1.5,.25,.43,.58,.79,.99,1.08,.42,.29,.88,.51,1.38,.66,.51,.15,1.03,.22,1.55,.22,.6,0,1.14-.07,1.62-.21,.49-.15,.91-.35,1.26-.62,.35-.27,.62-.59,.8-.96s.28-.79,.28-1.26-.08-.84-.23-1.19c-.15-.35-.37-.67-.68-.95Z"/>
  <path fill="currentColor" fill-rule="evenodd" d="M27.79,7.97c-.4-.48-.88-.84-1.45-1.09-.56-.25-1.18-.38-1.88-.38s-1.29,.12-1.85,.38c-.56,.25-1.04,.61-1.45,1.09-.41,.47-.72,1.05-.95,1.73-.22,.67-.33,1.43-.33,2.29v.72c0,.85,.11,1.62,.34,2.3,.22,.68,.54,1.25,.95,1.73,.41,.47,.9,.84,1.45,1.09,.56,.25,1.18,.38,1.85,.38s1.32-.12,1.88-.38c.56-.25,1.04-.61,1.45-1.09,.4-.47,.71-1.05,.92-1.73,.21-.68,.32-1.44,.32-2.3v-.72c0-.85-.11-1.62-.33-2.29-.21-.68-.52-1.25-.93-1.73Zm-.23,4.73c0,.68-.07,1.29-.2,1.81-.14,.52-.34,.96-.6,1.32-.26,.35-.58,.62-.96,.8-.38,.18-.82,.27-1.3,.27s-.89-.09-1.27-.27c-.38-.18-.7-.45-.98-.8-.27-.36-.48-.8-.62-1.32-.15-.53-.22-1.13-.22-1.81v-.73c0-.68,.07-1.28,.22-1.8,.15-.52,.35-.96,.62-1.31,.27-.35,.59-.62,.97-.8,.38-.18,.8-.27,1.27-.27s.92,.09,1.3,.27c.39,.18,.71,.45,.98,.8,.27,.35,.47,.79,.6,1.31,.14,.52,.21,1.12,.21,1.8v.73Z"/>
  <path fill="currentColor" fill-rule="evenodd" d="M39.98,13.01c-.3-.28-.69-.53-1.16-.76-.47-.22-1.03-.43-1.67-.61-.47-.13-.87-.27-1.21-.41-.33-.14-.61-.29-.83-.46-.21-.17-.37-.35-.48-.54-.1-.2-.15-.42-.15-.66,0-.35,.08-.67,.25-.95,.17-.28,.43-.49,.78-.66,.35-.16,.79-.24,1.33-.24,.57,0,1.04,.1,1.41,.29,.37,.19,.65,.45,.83,.78,.18,.33,.27,.71,.27,1.13h1.5c0-.59-.16-1.15-.47-1.67-.31-.53-.77-.95-1.37-1.27-.59-.33-1.32-.49-2.17-.49-.58,0-1.11,.08-1.59,.23-.47,.16-.88,.38-1.23,.66-.34,.28-.6,.6-.78,.98-.18,.38-.27,.78-.27,1.23s.09,.84,.26,1.18c.17,.34,.42,.65,.74,.91,.32,.27,.71,.5,1.16,.71,.45,.2,.96,.39,1.52,.55,.54,.16,.98,.31,1.33,.46,.35,.15,.63,.31,.83,.48,.2,.17,.34,.35,.42,.56,.08,.2,.12,.44,.12,.7,0,.37-.1,.69-.29,.96-.19,.27-.46,.48-.83,.62-.36,.15-.81,.22-1.34,.22-.36,0-.72-.04-1.05-.12-.33-.09-.63-.22-.9-.41-.26-.18-.47-.41-.62-.69-.15-.28-.23-.62-.23-1.01h-1.5c0,.57,.12,1.07,.37,1.5,.25,.43,.58,.79,.99,1.08,.42,.29,.88,.51,1.38,.66,.51,.15,1.03,.22,1.55,.22,.6,0,1.14-.07,1.62-.21,.49-.15,.91-.35,1.26-.62,.35-.27,.62-.59,.8-.96s.28-.79,.28-1.26-.08-.84-.23-1.19c-.15-.35-.37-.67-.68-.95Z"/>
</svg>
