<svg viewBox="0 0 48 48" xmlns="http://www.w3.org/2000/svg" xmlns:xlink="http://www.w3.org/1999/xlink" xml:space="preserve">
    <path fill="currentColor" d="M41.4,46.6H5.1c-0.3,0-0.6-0.3-0.6-0.6V18.4c0-6.6,3.5-12.5,9-15.5c3.1-1.6,6.3-2.5,9.5-2.5
        c10.2,0,18.6,8.5,18.6,19L42,46c0,0.2-0.1,0.3-0.2,0.4C41.7,46.5,41.6,46.6,41.4,46.6z M5.7,45.4h35.1l-0.3-25.8
        c0-9.8-7.8-17.9-17.4-17.9c-3,0-6.1,0.8-9,2.3c-5.2,2.7-8.4,8.2-8.4,14.4V45.4z"/>
    <path fill="currentColor" d="M29,16.7H17.5c-0.3,0-0.6-0.3-0.6-0.6c0-0.3,0.3-0.6,0.6-0.6H29c0.3,0,0.6,0.3,0.6,0.6
        C29.6,16.5,29.4,16.7,29,16.7z"/>
    <path fill="currentColor" d="M23.3,26.9c-0.3,0-0.6-0.3-0.6-0.6V8.9c0-0.3,0.3-0.6,0.6-0.6s0.6,0.3,0.6,0.6v17.5
        C23.9,26.7,23.6,26.9,23.3,26.9z"/>
    <path fill="currentColor" d="M34.4,32.6H12.2c-0.3,0-0.6-0.3-0.6-0.6c0-0.3,0.3-0.6,0.6-0.6h22.2c0.3,0,0.6,0.3,0.6,0.6
        C34.9,32.3,34.7,32.6,34.4,32.6z"/>
    <path fill="currentColor" d="M34.4,35.8H12.2c-0.3,0-0.6-0.3-0.6-0.6c0-0.3,0.3-0.6,0.6-0.6h22.2c0.3,0,0.6,0.3,0.6,0.6
        C34.9,35.5,34.7,35.8,34.4,35.8z"/>
    <path fill="currentColor" d="M34.4,39H12.2c-0.3,0-0.6-0.3-0.6-0.6c0-0.3,0.3-0.6,0.6-0.6h22.2c0.3,0,0.6,0.3,0.6,0.6
        C34.9,38.7,34.7,39,34.4,39z"/>
</svg>
