<svg viewBox="0 0 48 48" xmlns="http://www.w3.org/2000/svg">
  <path fill="currentColor" fill-rule="evenodd" d="M11.9,15.8L21.03,6.68c.73,.81,1.79,1.32,2.97,1.32s2.24-.51,2.97-1.32l9.12,9.12h2.4L27.84,5.14c.11-.36,.16-.74,.16-1.13C28,1.79,26.21,0,24,0s-4,1.79-4,4c0,.39,.06,.77,.16,1.13L9.5,15.8h2.4ZM24,1.7c1.27,0,2.3,1.03,2.3,2.3s-1.03,2.3-2.3,2.3-2.3-1.03-2.3-2.3,1.03-2.3,2.3-2.3Z"/>
  <path fill="currentColor" fill-rule="evenodd" d="M44,18H4c-2.21,0-4,1.79-4,4v22c0,2.21,1.79,4,4,4H44c2.21,0,4-1.79,4-4V22c0-2.21-1.79-4-4-4Zm2.5,26c0,1.38-1.12,2.5-2.5,2.5H4c-1.38,0-2.5-1.12-2.5-2.5V22c0-1.38,1.12-2.5,2.5-2.5H44c1.38,0,2.5,1.12,2.5,2.5v22Z"/>
  <path fill="currentColor" fill-rule="evenodd" d="M12.7,34.79c.34-.35,.66-.7,.95-1.05,.29-.35,.53-.7,.74-1.04,.21-.35,.38-.7,.49-1.05s.17-.7,.17-1.05c0-.64-.14-1.2-.42-1.66-.28-.47-.68-.83-1.21-1.09-.53-.26-1.18-.38-1.94-.38-.81,0-1.5,.16-2.07,.49-.57,.32-1.01,.76-1.31,1.31-.3,.55-.45,1.15-.45,1.81h1.88c0-.41,.07-.78,.22-1.09,.15-.32,.36-.58,.65-.76,.29-.18,.64-.27,1.06-.27,.36,0,.67,.08,.93,.24,.26,.16,.45,.37,.58,.65,.14,.27,.2,.59,.2,.95,0,.26-.05,.52-.15,.79-.09,.27-.26,.57-.49,.9-.23,.33-.55,.73-.96,1.19l-3.7,4.04v1.29h7.62v-1.5h-5.25l2.46-2.71Z"/>
  <path fill="currentColor" fill-rule="evenodd" d="M23.37,27.63h-1.94l-4.91,7.69,.06,1.13h4.9v2.55h1.88v-2.55h1.42v-1.5h-1.42v-7.32Zm-1.88,7.32h-3l2.82-4.52,.18-.31v4.83Z"/>
  <polygon fill="currentColor" fill-rule="evenodd" points="25.2 39.98 26.67 39.98 31.1 27.63 29.63 27.63 25.2 39.98"/>
  <polygon fill="currentColor" fill-rule="evenodd" points="31.97 29.13 37.86 29.13 33.32 39 35.3 39 39.85 28.66 39.85 27.63 31.97 27.63 31.97 29.13"/>
  <path fill="currentColor" fill-rule="evenodd" d="M4.8,22.08c-.53,0-.96,.43-.96,.96s.43,.96,.96,.96,.96-.43,.96-.96-.43-.96-.96-.96Z"/>
  <path fill="currentColor" fill-rule="evenodd" d="M4.8,42.24c-.53,0-.96,.43-.96,.96s.43,.96,.96,.96,.96-.43,.96-.96-.43-.96-.96-.96Z"/>
  <path fill="currentColor" fill-rule="evenodd" d="M43.2,22.08c-.53,0-.96,.43-.96,.96s.43,.96,.96,.96,.96-.43,.96-.96-.43-.96-.96-.96Z"/>
  <path fill="currentColor" fill-rule="evenodd" d="M43.2,42.24c-.53,0-.96,.43-.96,.96s.43,.96,.96,.96,.96-.43,.96-.96-.43-.96-.96-.96Z"/>
</svg>
