<svg viewBox="0 0 48 48" xmlns="http://www.w3.org/2000/svg" xmlns:xlink="http://www.w3.org/1999/xlink" xml:space="preserve">
    <path fill="currentColor" d="M33.8,8.7h-2c-0.4,0-0.7-0.3-0.7-0.7s0.3-0.7,0.7-0.7h2c0.4,0,0.7,0.3,0.7,0.7S34.1,8.7,33.8,8.7z"/>
    <path fill="currentColor" d="M48,8.7h-2c-0.4,0-0.7-0.3-0.7-0.7s0.3-0.7,0.7-0.7h2c0.4,0,0.7,0.3,0.7,0.7S48.4,8.7,48,8.7z"/>
    <path fill="currentColor" d="M39.9,16.7c-0.4,0-0.7-0.3-0.7-0.7v-2c0-0.4,0.3-0.7,0.7-0.7s0.7,0.3,0.7,0.7v2C40.5,16.4,40.2,16.7,39.9,16.7z
        "/>
    <path fill="currentColor" d="M39.9,2.7c-0.4,0-0.7-0.3-0.7-0.7V0c0-0.4,0.3-0.7,0.7-0.7s0.7,0.3,0.7,0.7v2C40.5,2.4,40.2,2.7,39.9,2.7z"/>
    <path fill="currentColor" d="M34.1,14.3c-0.2,0-0.3-0.1-0.5-0.2c-0.3-0.3-0.3-0.7,0-1l1.4-1.4c0.3-0.3,0.7-0.3,1,0c0.3,0.3,0.3,0.7,0,1
        l-1.4,1.4C34.5,14.3,34.3,14.3,34.1,14.3z"/>
    <path fill="currentColor" d="M44.2,4.4c-0.2,0-0.3-0.1-0.5-0.2c-0.3-0.3-0.3-0.7,0-1l1.4-1.4c0.3-0.3,0.7-0.3,1,0c0.3,0.3,0.3,0.7,0,1
        l-1.4,1.4C44.5,4.4,44.4,4.4,44.2,4.4z"/>
    <path fill="currentColor" d="M45.6,14.3c-0.2,0-0.3-0.1-0.5-0.2l-1.4-1.4c-0.3-0.3-0.3-0.7,0-1c0.3-0.3,0.7-0.3,1,0l1.4,1.4
        c0.3,0.3,0.3,0.7,0,1C46,14.3,45.8,14.3,45.6,14.3z"/>
    <path fill="currentColor" d="M35.6,4.4c-0.2,0-0.3-0.1-0.5-0.2l-1.4-1.4c-0.3-0.3-0.3-0.7,0-1c0.3-0.3,0.7-0.3,1,0L36,3.3
        c0.3,0.3,0.3,0.7,0,1C35.9,4.4,35.7,4.4,35.6,4.4z"/>
    <path fill="currentColor" d="M39.9,12.7c-2.6,0-4.7-2.1-4.7-4.7s2.1-4.7,4.7-4.7s4.7,2.1,4.7,4.7S42.5,12.7,39.9,12.7z M39.9,4.7
        c-1.9,0-3.4,1.5-3.4,3.3s1.5,3.3,3.4,3.3s3.4-1.5,3.4-3.3S41.7,4.7,39.9,4.7z"/>
    <path fill="currentColor" d="M13.4,46.2c-0.1,0-0.1,0-0.2,0c-0.4-0.1-0.6-0.5-0.5-0.8c1.3-4.3,2-8.3,2.4-11.7c-1.1,3.7-2.8,7.9-5.3,11.3
        C9.7,45.2,9.3,45.3,9,45c-0.3-0.2-0.4-0.6-0.1-0.9c6-8,7-20.5,7-20.6c0-0.4,0.3-0.6,0.7-0.6c0,0,0,0,0,0c0.4,0,0.6,0.3,0.7,0.6
        c0,0.1,0.5,10.3-3.1,22.2C14,46,13.7,46.2,13.4,46.2z"/>
    <path fill="currentColor" d="M0.6,21.8c-0.1,0-0.3,0-0.4-0.1c-0.2-0.1-0.3-0.3-0.3-0.5c-0.1-1.6,0.6-3.3,1.8-4.6C3.2,15,5.6,14,8.1,13.9
        c4.6-0.1,9,3.2,9.1,7.1c0,0.4-0.3,0.7-0.7,0.7c-0.4,0-0.7-0.3-0.7-0.7c-0.1-3.1-3.8-5.9-7.7-5.8C6,15.3,4,16.1,2.7,17.5
        c-0.7,0.8-1.2,1.7-1.4,2.7c1.6-0.5,3.2-0.8,4.8-1c0.4,0,0.7,0.2,0.7,0.6c0,0.4-0.2,0.7-0.6,0.7c-1.9,0.2-3.7,0.7-5.5,1.3
        C0.7,21.8,0.7,21.8,0.6,21.8z"/>
    <path fill="currentColor" d="M32.3,21.7C32.3,21.7,32.3,21.7,32.3,21.7c-0.4,0-0.7-0.3-0.7-0.7c0-1.5-0.7-2.9-1.9-4c-1.3-1.1-3.1-1.8-5-1.8
        c-2.4,0-4.7,0.9-6,2.5c-1,1.1-1.5,2.4-1.5,3.3c0,0.4-0.3,0.7-0.7,0.7c-0.4,0-0.7-0.3-0.7-0.7c0-1.7,1.3-3.5,1.9-4.1
        c1.6-1.9,4.2-3,7.1-3c2.2,0,4.3,0.8,5.9,2.1c1.6,1.4,2.4,3.2,2.4,5.1C33,21.5,32.7,21.7,32.3,21.7z"/>
    <path fill="currentColor" d="M7.9,29.7c-0.2,0-0.4-0.1-0.5-0.2c-0.9-1-1.4-2.3-1.4-3.7C6.1,24,7,22.2,8.4,20.9c0.9-0.8,1.9-1.4,3.1-1.7
        c2.1-0.6,4-0.1,5.5,1.4c0.2,0.2,0.2,0.4,0.2,0.6s-0.2,0.4-0.4,0.5c-3.5,1.6-6.3,4.2-8.2,7.8C8.4,29.6,8.2,29.7,7.9,29.7
        C8,29.7,8,29.7,7.9,29.7z M13.2,20.2c-0.4,0-0.9,0.1-1.3,0.2c-0.9,0.3-1.8,0.8-2.5,1.4c-1.2,1.1-1.9,2.5-1.9,4c0,0.7,0.1,1.4,0.4,2
        c1.9-3,4.4-5.4,7.4-7C14.6,20.4,14,20.2,13.2,20.2z"/>
    <path fill="currentColor" d="M28.4,31.7c0,0-0.1,0-0.1,0c-0.2,0-0.4-0.2-0.5-0.4c-3.2-7.8-5.7-8.6-11.5-9.6c-0.2,0-0.4-0.2-0.5-0.4
        c-0.1-0.2,0-0.5,0.1-0.7c2.6-2.9,7.2-3.4,11.1-1.3c2.4,1.3,3.9,3.2,4.3,5.3c0.4,2.2-0.5,4.7-2.4,6.9C28.8,31.6,28.6,31.7,28.4,31.7z
        M17.9,20.6c5.2,1.1,7.8,2.5,10.7,9.1c1.2-1.7,1.7-3.4,1.4-4.9c-0.3-1.7-1.5-3.2-3.6-4.3C23.6,18.8,20.2,19,17.9,20.6z"/>
    <path fill="currentColor" d="M16.5,21.7C16.5,21.7,16.4,21.7,16.5,21.7c-0.4,0-0.7-0.4-0.7-0.7c0-0.1,0-0.5,0-0.9c0-0.4,0-0.8,0-0.9
        c0.1-1.7-0.2-3.5-1-5.2c-1-2.2-2.9-4-5-4.7C8.3,8.8,6.8,8.7,5.5,9.1c0.9,1,1.8,2.1,2.6,3.2c0.2,0.3,0.1,0.7-0.2,0.9
        c-0.3,0.2-0.7,0.1-0.9-0.2C6,11.7,5,10.5,3.8,9.3C3.7,9.2,3.6,8.9,3.7,8.7c0-0.2,0.2-0.4,0.4-0.5c1.9-0.9,4.1-1,6.2-0.2
        c2.5,0.9,4.6,2.9,5.8,5.5c0.8,1.8,1.2,3.9,1.1,5.8c0,0,0,0.4,0,0.7c0,0.5,0,1,0,1C17.1,21.4,16.8,21.7,16.5,21.7z"/>
    <path fill="currentColor" d="M32.3,21.7c-0.1,0-0.2,0-0.3-0.1l-0.9-0.5c-0.3-0.2-0.4-0.6-0.2-0.9c0.2-0.3,0.6-0.4,0.9-0.2l0.9,0.5
        c0.3,0.2,0.4,0.6,0.2,0.9C32.8,21.6,32.6,21.7,32.3,21.7z"/>
    <path fill="currentColor" d="M30.2,48.7c-0.2,0-0.3-0.1-0.5-0.2c-4.3-4.2-9.3-7.3-14.8-9.3c-0.4-0.1-0.5-0.5-0.4-0.9
        c0.1-0.4,0.5-0.5,0.9-0.4c5.7,2,10.9,5.2,15.3,9.6c0.3,0.3,0.3,0.7,0,1C30.6,48.6,30.4,48.7,30.2,48.7z M13,38.6c-0.1,0-0.1,0-0.2,0
        c-7.1-2-12.5-1.4-12.5-1.4c-0.4,0.1-0.7-0.2-0.8-0.6c0-0.4,0.2-0.7,0.6-0.8c0.2,0,5.7-0.7,13.1,1.4c0.4,0.1,0.6,0.5,0.5,0.8
        C13.6,38.4,13.3,38.6,13,38.6z"/>
</svg>
