<svg viewBox="0 0 48 48" xmlns="http://www.w3.org/2000/svg">
  <path fill="currentColor" d="M11.44,1.2l-2.92,2.92,2.69,2.69-4.39,4.39-2.69-2.69-2.92,2.92-1.21-1.21L10.24,0l1.21,1.21h0Z"/>
  <path fill="currentColor" fill-rule="evenodd" d="M41.71,40.51l.71-4.28c.36-2.17-.35-4.39-1.91-5.95L14.49,4.26,4.26,14.49l26.02,26.03c1.56,1.56,3.77,2.27,5.95,1.91l4.28-.71,6.28,6.28,1.21-1.21-6.28-6.28h0Zm-20.43-11.4l-4.26-4.26,3.18-3.18-1.21-1.21-3.18,3.18-3.91-3.91,3.18-3.18-1.21-1.21-3.18,3.18-4.04-4.04,7.82-7.82,22.45,22.45h-15.64Z"/>
</svg>
