<svg viewBox="0 0 48 48" xmlns="http://www.w3.org/2000/svg">
    <path fill="currentColor" fill-rule="evenodd" d="M24,5c-5.52,0-10,4.48-10,10s4.48,10,10,10,10-4.48,10-10-4.48-10-10-10Zm7.36,5.75h-3.84c-.3-1.24-.7-2.25-1.11-3.03-.21-.4-.41-.74-.61-1.02,2.37,.51,4.38,2.02,5.56,4.06Zm-4.87,4.25c0,1.02-.08,1.93-.2,2.75h-4.59c-.13-.82-.2-1.73-.2-2.75s.08-1.93,.2-2.75h4.59c.13,.82,.2,1.73,.2,2.75Zm-2.64-8.03c.05-.06,.1-.12,.14-.16,.04,.05,.09,.1,.14,.16,.25,.3,.59,.77,.94,1.44,.32,.61,.64,1.38,.9,2.34h-3.96c.26-.96,.58-1.73,.9-2.34,.35-.67,.69-1.14,.94-1.44Zm-1.66-.28c-.2,.29-.4,.63-.61,1.02-.41,.79-.82,1.79-1.11,3.03h-3.83c1.18-2.04,3.18-3.54,5.56-4.06Zm-6.69,8.31c0-.96,.16-1.89,.45-2.75h4.23c-.12,.83-.19,1.75-.19,2.75s.07,1.92,.19,2.75h-4.23c-.29-.86-.45-1.79-.45-2.75Zm1.14,4.25h3.83c.3,1.24,.7,2.25,1.11,3.03,.21,.4,.41,.74,.61,1.02-2.37-.51-4.38-2.02-5.56-4.06Zm7.5,3.78c-.05,.06-.1,.12-.14,.16-.04-.05-.09-.1-.14-.16-.25-.3-.59-.77-.94-1.44-.32-.61-.64-1.38-.9-2.34h3.96c-.26,.96-.58,1.73-.9,2.34-.35,.67-.69,1.14-.94,1.44Zm1.66,.28c.2-.29,.4-.63,.61-1.02,.41-.79,.82-1.79,1.11-3.03h3.84c-1.18,2.04-3.19,3.55-5.56,4.06Zm2.01-5.56c.12-.83,.19-1.75,.19-2.75s-.07-1.92-.19-2.75h4.24c.29,.86,.45,1.79,.45,2.75s-.16,1.89-.45,2.75h-4.24Z"/>
    <path fill="currentColor" d="M30,42.5v-1.5h-12v1.5h12Z"/>
    <path fill="currentColor" d="M33,36v1.5H15v-1.5h18Z"/>
    <path fill="currentColor" d="M33,32.5v-1.5H15v1.5h18Z"/>
    <path fill="currentColor" fill-rule="evenodd" d="M6,0V48H42V0H6ZM40.5,46.5H7.5V1.5H40.5V46.5Z"/>
</svg>
