<svg viewBox="0 0 712 903" xmlns="http://www.w3.org/2000/svg" xmlns:xlink="http://www.w3.org/1999/xlink" xml:space="preserve">
	<path fill="#3077B7" d="M429.2,67c9.9,0,14.2,5.1,16.1,9.5l0.2,0.4l0,0l0.2,0.4c0,0.1,0.1,0.1,0.1,0.2l0.1,0.4
		c0,0.1,0,0.1,0.1,0.2l0.1,0.4l0,0l0.1,0.4l0,0l0.1,0.4l0,0l0.1,0.4l0,0l0.1,0.4l0,0l0.1,0.5l0,0l0.1,0.3l0,0l0.1,0.5l0,0l0,0.4l0,0
		l0,0.5l0,0l0,0.3l0,0l0,0.2l0,0c0,4.4-1.3,7.7-2.6,10.3l-0.3,0.6l0,0l-0.3,0.5l0,0l-0.8,1.5l0,0l-0.2,0.5c0,0.1-0.1,0.1-0.1,0.2
		l-0.2,0.4c0,0.1-0.1,0.1-0.1,0.2l-0.2,0.4c-0.2,0.6-0.4,1.2-0.4,1.7c0,0.3,0.3,0.9,0.7,1.7l0.3,0.5l0,0l0.3,0.6l0,0l0.6,1l0,0
		l1.2,1.9l0,0l2.3,3.6l0,0l1,1.5l0,0l1,1.6l0,0l0.7,1.1l0,0l0.7,1.2l0,0l0.7,1.2l0,0l0.7,1.3c0.1,0.2,0.2,0.4,0.4,0.6l0.7,1.3
		c6.6,11.6,13.7,26.9,13.7,41.3l0,1.6c0,1.1,0,2.2,0,3.3l0,1.7c0.8,25.6,6.4,54.4,28.9,77.8l-0.6-0.1l0,0l-0.9-0.2l0,0l-0.8-0.2l0,0
		l-0.7-0.2l0,0l-0.7-0.2l0,0l-0.8-0.2l0,0l-0.6-0.2l0,0l-0.6-0.2l0,0l-0.6-0.2l0,0l-0.7-0.2l0,0l-0.7-0.2l0,0l-0.7-0.2l0,0l-0.7-0.3
		c-0.2-0.1-0.5-0.2-0.7-0.3l-0.8-0.3l0,0l-0.8-0.3c-0.1-0.1-0.3-0.1-0.4-0.2l-0.8-0.3c-0.7-0.3-1.4-0.6-2.1-0.9l-0.9-0.4
		c-5-2.5-10.6-6-15.8-11.2c-3.4-3.2-5.4,57.6,5.2,75.3c0.9,1.3,0.6,1.9-0.4,1.9l-0.2,0c0,0-0.1,0-0.1,0l-0.2,0l0,0l-0.2-0.1
		c0,0-0.1,0-0.1,0l-0.3-0.1c0,0-0.1,0-0.1,0l-0.3-0.1l0,0l-0.3-0.1l0,0l-0.3-0.1l0,0l-0.3-0.1l0,0l-0.3-0.2l0,0l-0.3-0.2l0,0
		l-0.4-0.2c-0.1,0-0.1-0.1-0.2-0.1l-0.4-0.2l0,0l-0.4-0.2l0,0l-0.4-0.3c-0.1,0-0.1-0.1-0.2-0.1l-0.4-0.3l0,0l-0.4-0.3
		c-0.1-0.1-0.1-0.1-0.2-0.2l-0.4-0.3l0,0l-0.4-0.3c-0.2-0.2-0.4-0.4-0.6-0.6l-0.4-0.4c-0.1-0.1-0.3-0.3-0.4-0.4l-0.4-0.4l0,0
		l-0.4-0.4l0,0l-0.4-0.5c-0.2-0.2-0.4-0.5-0.6-0.7l-0.4-0.5l0,0l-0.8-1.1l0,0l-1-1.4l0,0l-0.8-1.1l0,0l-2-2.8l0,0l-1-1.4l0,0
		l-0.7-0.9l0,0l-0.5-0.6l0,0l-0.5-0.6l0,0l-0.3-0.4l0,0l-0.3-0.3l0,0l-0.3-0.3l0,0l-0.3-0.3l0,0l-0.3-0.3l0,0l-0.3-0.3
		c-1.3-1.2-2.4-1.6-3.1-0.4l-0.1,0.1l0,0l-0.2,0.3l0,0l-0.2,0.4l0,0l-0.2,0.4l0,0l-0.3,0.5l0,0l-0.3,0.6l0,0l-0.3,0.7l0,0l-0.3,0.7
		l0,0l-0.4,0.8c-0.1,0.1-0.1,0.3-0.2,0.4l-0.4,0.9c-0.1,0.3-0.3,0.6-0.4,1l-0.4,1l0,0l-0.4,1.1c-5.1,13.6-11.2,40.4,3.7,64.7
		c5.4,7.9-17.7-1.6-25.8-17.5c-2.9-5.2-16.2,44,2.7,82.3c1.3,2.6-0.3,2.3-3.2,0.6l-0.5-0.3c-0.1-0.1-0.2-0.1-0.3-0.2l-0.5-0.4l0,0
		l-0.6-0.4l0,0l-0.9-0.6l0,0l-0.6-0.4l0,0l-0.6-0.5l0,0l-0.9-0.7l0,0l-0.6-0.5l0,0l-0.6-0.5l0,0l-0.6-0.5l0,0l-1-0.8l0,0l-0.6-0.5
		l0,0l-1-0.8l0,0l-1-0.8l0,0l-0.6-0.6l0,0l-0.6-0.6l0,0l-0.6-0.6l0,0l-0.6-0.6l0,0l-0.6-0.5l0,0L406,413l0,0l-0.5-0.5
		c-0.2-0.2-0.3-0.3-0.5-0.5l-0.5-0.5l0,0L404,411l0,0l-0.4-0.5c-0.1-0.1-0.1-0.2-0.2-0.2l-0.4-0.5c-0.1-0.1-0.1-0.1-0.2-0.2l-0.3-0.4
		c-0.1-0.1-0.2-0.3-0.3-0.4l-0.1-0.2c-4.3-6.4-10.3,6.6,1.3,29l3.8,7.4l0,0l5.3,10.3l0,0l1.9,3.7l0,0l1.9,3.6l0,0l1.2,2.3l0,0
		l0.9,1.7l0,0l0.9,1.7l0,0l0.9,1.6l0,0l0.6,1.1l0,0l0.9,1.5l0,0l0.6,1l0,0l0.6,1l0,0l0.6,1l0,0l0.8,1.4l0,0l0.6,0.9l0,0l0.5,0.9
		c0.1,0.1,0.2,0.3,0.3,0.4l0.5,0.8c0.1,0.1,0.2,0.3,0.3,0.4l0.5,0.8l0,0l0.5,0.8l0,0l0.5,0.8l0,0l0.5,0.7l0,0l0.5,0.7l0,0l0.5,0.7
		l0,0l0.5,0.6c1,1.3,1.9,2.3,2.8,3.2c2.3,2.2,6,4.6,10.3,7.1l1.2,0.7c0.4,0.2,0.8,0.5,1.3,0.7l1.3,0.7l0,0l1.3,0.7l0,0l1.3,0.7l0,0
		l1.3,0.7l0,0l2,1l0,0l2,1l0,0l8.9,4.5l0,0l1.7,0.9l0,0l1.1,0.6l0,0l1,0.5l0,0l1,0.5l0,0l0.9,0.5c0.3,0.2,0.6,0.3,0.9,0.5l0.8,0.5
		c0.1,0.1,0.3,0.1,0.4,0.2l0.5,0.3l0,0l0.9,0.6l0,0l1.8,1.1l0,0l3.6,2.3l0,0l2.1,1.3l0,0l1.7,1l0,0l1.2,0.7l0,0l1.2,0.7l0,0l1.3,0.8
		c0.2,0.1,0.4,0.3,0.6,0.4l1.3,0.8l0,0l1.4,0.8c0.2,0.1,0.5,0.3,0.7,0.4l1.4,0.8c0.2,0.1,0.5,0.3,0.7,0.4l1.5,0.8
		c0.7,0.4,1.5,0.8,2.2,1.2l1.5,0.8c13.7,7.2,30.6,14,46.6,14c30.1,0,45.8-22.2,45.8-32.2c0-0.1-0.6-0.2-1.8-0.4l-1-0.1l0,0l-2.5-0.3
		c-0.2,0-0.5-0.1-0.7-0.1l-1.6-0.2c-22.7-3.4-89.4-17.6-89.4-98.6c0-60.1,53.1-99.8,69-110.4l1.1-0.7l0,0l0.9-0.6l0,0l0.8-0.5l0,0
		l0.9-0.6l0,0l0.8-0.5l15.3,16.8l-0.5,0.3l0,0l-0.7,0.5l0,0l-0.7,0.5l0,0l-0.8,0.6l0,0L578,314l0,0l-1,0.8l0,0l-1.1,0.8l0,0l-1.2,0.9
		c-0.2,0.2-0.4,0.3-0.7,0.5l-1.4,1.1c-18.2,14.2-57.7,49.8-57.7,90c0,52.2,46,78,75.7,78l0.1-0.2l0,0l0.1-0.2l0,0l0.1-0.3
		c0-0.1,0-0.1,0.1-0.2l0.1-0.4c2-6.5,6.9-35.2-51-62.1l0.3-0.1l0,0l0.6-0.1l0,0l0.6-0.1l0,0l0.5-0.1l0,0l0.9-0.2l0,0l0.6-0.1
		c0.2,0,0.5-0.1,0.7-0.1l0.7-0.1c0.1,0,0.3,0,0.4-0.1l0.8-0.1c10.3-1.2,31-0.6,43,19.2c3.2,3.6,5.3,3.8,6.9,2.8l0.2-0.1
		c0.1-0.1,0.2-0.2,0.3-0.2l0.2-0.2l0,0l0.2-0.2c0,0,0.1-0.1,0.1-0.1l0.2-0.2l0,0l0.2-0.2l0,0l0.2-0.2l0,0l0.2-0.2l0,0l0.2-0.2l0,0
		l0.1-0.2l0.2-0.3l0,0l0.4-0.6l0,0l0.2-0.2l0,0l0.2-0.3l0,0l0.2-0.2l0,0l0.3-0.3l0,0l0.3-0.4l0,0l0.4-0.4l0,0l0.3-0.3l0,0l0.3-0.3
		l0,0l0.3-0.3l0,0l0.3-0.3l0,0l0.4-0.3l0,0l0.4-0.3l0,0l0.4-0.3l0,0l0.4-0.3l0,0l0.4-0.3c0.1-0.1,0.3-0.2,0.4-0.3l0.5-0.3
		c0.1-0.1,0.2-0.1,0.2-0.2l0.5-0.3c0.2-0.2,0.5-0.3,0.7-0.4l0.5-0.3l0,0l0.5-0.3c4.5-2.3,10.5-3.7,17.4-1.2l-0.4,0.3l0,0l-0.2,0.2
		l0,0l-0.4,0.4l0,0l-0.3,0.3l0,0l-0.3,0.3l0,0l-0.4,0.4l0,0l-0.4,0.4l0,0l-0.4,0.5l0,0l-0.5,0.5c-0.1,0.1-0.2,0.2-0.2,0.3l-0.5,0.6
		c-5.8,7.1-15.1,22.9-6.5,45.7l0.4-0.1l0,0l0.4-0.1l0,0l0.5-0.1l0,0l0.6-0.2l0,0l0.7-0.2c0.1,0,0.3-0.1,0.4-0.1l0.8-0.3l0,0l0.9-0.3
		c13.4-4.8,50.7-22.5,50.7-70.6c0-38.2-28.7-66.5-54.8-89.2l-2.4-2.1l0,0l-2.4-2l0,0l-7-6l0,0l-2.3-1.9c-8.6-7.3-16.1-14.1-21.2-20.4
		c-3.6-4.4-7.5-8.6-11.6-12.9l-1.6-1.6l0,0l-1.6-1.6l0,0l-1.6-1.6l0,0l-2.4-2.4l0,0l-4-4l0,0l-1.6-1.6l0,0l-1.6-1.6l0,0l-1.6-1.6l0,0
		l-1.6-1.6c-16.6-17.1-32-36.3-34.8-64.4l-0.5-0.2l0,0l-0.5-0.2l0,0l-0.5-0.2l0,0l-0.4-0.2l0,0l-0.4-0.2l0,0l-0.4-0.2l0,0l-0.4-0.2
		l0,0l-0.5-0.2l0,0l-0.5-0.3l0,0l-0.5-0.3c-6.2-3.6-16.6-12.6-16.6-32.1c0-17.9,13.8-36,24.4-47.1l1-1l0,0l1-1l0,0l0.9-0.9
		c0.2-0.2,0.3-0.3,0.5-0.5l0.9-0.9c0.1-0.1,0.3-0.3,0.4-0.4l0.8-0.8l0,0l0.8-0.8c0.1-0.1,0.3-0.2,0.4-0.4l0.7-0.7l0,0l0.7-0.6l0,0
		l0.6-0.6l0,0l0.6-0.5l0,0l0.5-0.5l0,0l0.5-0.4l0,0l0.4-0.3l0,0l0.4-0.3l0,0l0.3-0.2l0,0l0.2-0.2c0,0,0.1,0,0.1-0.1
		c0.3-0.2,0.4,0.1,0.3,0.9l-0.1,0.4l0,0l-0.1,0.4l0,0l-0.1,0.5l0,0l-0.1,0.5l0,0l-0.2,0.9l0,0l-0.8,3.2l0,0l-0.4,1.6l0,0l-0.3,1.3
		l0,0l-0.2,0.9l0,0l-0.2,0.9l0,0l-0.2,0.9l0,0l-0.2,0.9c-0.1,0.6-0.2,1.2-0.3,1.8l-0.2,0.9c-1.1,6.9-0.9,13.5,4.8,13.5
		c5.8,0,13.4-6.1,20.1-13.1l0.8-0.9l0,0l0.8-0.9c0.6-0.6,1.1-1.2,1.6-1.8l0.8-0.9c0.1-0.2,0.3-0.3,0.4-0.5l0.8-0.9
		c0.1-0.1,0.3-0.3,0.4-0.4l0.7-0.9l0,0l0.7-0.9c0.1-0.1,0.2-0.3,0.3-0.4l0.7-0.9l0,0l0.7-0.8l0,0l0.6-0.8l0,0l0.6-0.8
		c0.1-0.1,0.2-0.3,0.3-0.4l0.6-0.8l0,0l0.5-0.7l0,0l0.5-0.7l0,0l0.5-0.7c0.1-0.1,0.1-0.2,0.2-0.3l0.4-0.6l0,0l0.4-0.6l0,0l0.3-0.5
		c0.1-0.1,0.1-0.2,0.2-0.3l0.3-0.5c0-0.1,0.1-0.1,0.1-0.2l0.2-0.4c0.1-0.2,0.2-0.4,0.2-0.5l0.1-0.1c0.3-0.9,0.6-0.9,0.7-0.3l0,0.2
		c0,0.1,0,0.2,0,0.3l0,0.3c0,0.1,0,0.1,0,0.2l0,0.4c0,0.1,0,0.1,0,0.2l0,0.4c0,0.1,0,0.1,0,0.2l0,0.5l0,0l-0.1,0.5l0,0l-0.1,0.5l0,0
		L567,103l0,0l-0.1,0.6l0,0l-0.1,0.6c0,0.1,0,0.2-0.1,0.3l-0.1,0.7l0,0l-0.1,0.7c0,0.1-0.1,0.2-0.1,0.4l-0.2,0.8
		c0,0.1-0.1,0.3-0.1,0.4l-0.2,0.8c0,0.1-0.1,0.3-0.1,0.4l-0.2,0.8c-0.1,0.3-0.2,0.6-0.2,0.8l-0.3,0.9c0,0.1-0.1,0.3-0.1,0.4l-0.3,0.9
		c-1.8,5.2-4.6,11.4-8.9,17.3c-1,1.4-2,2.7-3.1,4l-0.8,1c-0.1,0.2-0.3,0.3-0.4,0.5l-0.8,1l0,0l-0.8,0.9l0,0l-0.8,0.9l0,0L548,139l0,0
		l-0.8,0.9l0,0l-1.3,1.3l0,0l-1.7,1.8l0,0l-3.3,3.4l0,0l-1.6,1.6c-0.1,0.1-0.3,0.3-0.4,0.4l-1.1,1.2l0,0l-0.7,0.8l0,0l-0.7,0.8l0,0
		l-0.7,0.8c-5.6,6.4-8.6,11.9-4.6,16.8c4.7,5.7,12.4,2.1,18.8-3.4l0.7-0.6c0.4-0.4,0.9-0.8,1.3-1.2l0.6-0.6c0.1-0.1,0.2-0.2,0.3-0.3
		l0.6-0.6c0.2-0.2,0.4-0.4,0.6-0.6l0.6-0.6c0.2-0.2,0.4-0.4,0.6-0.6l0.5-0.6c0.1-0.1,0.2-0.2,0.3-0.3l0.5-0.6
		c0.1-0.1,0.2-0.2,0.2-0.3l0.5-0.6l0,0l0.5-0.6l0,0l0.4-0.6c0.1-0.1,0.1-0.2,0.2-0.3l0.4-0.6c0.3-0.4,0.5-0.7,0.7-1.1l0.3-0.5l0,0
		l0.3-0.5c0-0.1,0.1-0.2,0.1-0.2l0.1-0.2c1.1-2,1.3-1,0.8,1.8l-0.1,0.7c-1.8,8.4-10,29.5-26,37l-0.1,0.1l0,0l-0.1,0.1l0,0l-0.1,0.2
		l0,0l-0.1,0.2l0,0l-0.1,0.3c-1.4,4.1-3.4,24.5,61.2,82l2,1.6l0,0l4,3.2l0,0l3.8,3.1l0,0l2.7,2.2l0,0l2.6,2.2l0,0l2.5,2.1l0,0l2.4,2
		l0,0l3.1,2.6l0,0l3.7,3.1l0,0l2.1,1.8l0,0l2,1.7l0,0l1.9,1.7l0,0l3,2.6l0,0l2.8,2.5l0,0l2.6,2.3l0,0l2.3,2.1l0,0l2.1,1.9l0,0
		l1.5,1.4l0,0l2.4,2.2l0,0l2,1.9l0,0l1,0.9l0,0l1.2,1.2l0,0l1.1,1.1l0,0l0.2-0.1l0,0l0.2-0.2l0,0l0.1-0.1l0,0l0.1-0.1l0,0l0.2-0.1
		l0,0l0.3-0.3l0,0l0.2-0.2l0,0l0.2-0.2c0,0,0.1-0.1,0.1-0.1l0.2-0.3l0,0l0.2-0.3c0.1-0.1,0.1-0.2,0.2-0.3l0.2-0.3
		c0.1-0.1,0.1-0.2,0.2-0.4l0.2-0.4c1-1.9,1.9-4.6,2.1-8.6l0-0.4c0.2-9.8,4.3-20,9-23.8l-0.2,1.2l0,0l-0.2,2.1l0,0l-0.2,1.4l0,0
		l-0.2,1.6l0,0l-0.2,1.7l0,0l-0.1,1.2l0,0l-0.1,1.3l0,0l-0.2,2.1l0,0l-0.1,1.5l0,0l-0.1,1.5l0,0l-0.1,1.5l0,0l-0.1,1.6l0,0L663,307
		l0,0l-0.1,1.6c-0.7,15.7,0.2,34.7,7.7,38c3.4,1.1,5.2-0.5,6.4-3.6l0.2-0.4l0,0l0.2-0.5l0,0l0.1-0.5c0-0.1,0-0.2,0.1-0.2l0.1-0.5l0,0
		l0.1-0.5l0,0l0.1-0.5l0,0l0.1-0.6l0,0l0.2-0.9l0,0l0.2-0.9l0,0l0.4-1.9l0,0c0.3-1.7,0.9-3.4,1.7-5.1l0.3-0.6l0,0l0.3-0.6
		c0.1-0.1,0.1-0.2,0.2-0.3l0.3-0.5c0.3-0.4,0.6-0.9,0.8-1.3l0.3-0.5c1.9-2.5,4-4.2,5.4-3.8l-0.3,1.4l0,0l-0.3,1.2l0,0l-0.3,1.6l0,0
		l-0.2,0.9l0,0l-0.3,1.5l0,0l-0.2,1.1l0,0l-0.2,1.1l0,0l-0.3,1.8l0,0l-0.3,1.9l0,0l-0.2,1.4c0,0.2-0.1,0.5-0.1,0.7l-0.2,1.4l0,0
		l-0.2,1.5l0,0l-0.2,1.5c-2,14.5-2.5,32.6,5.8,36.8c1.1,0.4,1.9,0,2.7-0.8l0.2-0.2l0,0l0.2-0.2l0,0l0.2-0.2l0,0l0.9-1.1l0,0l0.2-0.3
		l0,0l0.3-0.3l0,0l0.3-0.3l0,0l0.3-0.3l0,0l0.3-0.3c0,0,0.1-0.1,0.2-0.1l0.3-0.3c2.6-2.3,6.9-4.2,15.6-1.7l-0.3,0.2l0,0l-0.4,0.3l0,0
		l-0.6,0.4l0,0l-0.3,0.2l0,0L710,374l0,0l-0.4,0.3c-0.1,0.1-0.1,0.1-0.2,0.2l-0.4,0.3l0,0l-0.5,0.4l0,0l-0.5,0.4
		c-0.1,0.1-0.2,0.1-0.3,0.2l-0.5,0.4l0,0l-0.5,0.5c-0.1,0.1-0.2,0.2-0.3,0.2l-0.6,0.5c-6,5.5-14,15.8-12.7,31.3l0.1,0.7
		c2.5,24.9-21.1,87.8-80.4,97.1l0,0.3l0,0l-0.1,0.5l0,0l-0.1,0.5l0,0l-0.1,0.6c0,0.1-0.1,0.2-0.1,0.3l-0.2,0.8
		c-2.9,11.7-17.2,53.3-76,48l0.6,0.6l0,0l0.7,0.8l0,0l0.6,0.7l0,0l1.1,1.3l0,0l0.9,1l0,0l1,1.1c0.2,0.2,0.3,0.4,0.5,0.6l1.1,1.3
		c14.9,17.8,50,65.8,47.9,118.3l-0.3-0.8l0,0l-0.3-0.8l0,0l-0.4-1l0,0l-0.5-1.2l0,0l-0.6-1.4c-8.8-22.1-47.3-108.9-121.6-150.8
		l-2.6-1.4l-0.1,0l0,0l-0.1,0l0,0l-0.1,0l0,0l-0.1,0l0,0l-0.1,0l0,0l-0.1,0l0,0l-0.1,0.1l0,0l-0.1,0.1c0,0,0,0-0.1,0l-0.1,0.1l0,0
		l-0.1,0.1c0,0-0.1,0.1-0.1,0.1l-0.1,0.1c0,0-0.1,0.1-0.1,0.1l-0.1,0.2c-0.5,0.7-0.9,1.9-0.9,3.9l0,0.5c0,1.1,0.2,2.5,0.6,4.1
		c1.1,5.3-0.5,13.2-2.9,20.8l-0.4,1.2c-0.3,0.8-0.5,1.6-0.8,2.4l-0.4,1.2c-0.1,0.2-0.1,0.4-0.2,0.6l-0.4,1.1
		c-0.1,0.2-0.1,0.4-0.2,0.6l-0.4,1.1l0,0l-0.5,1.1c-0.1,0.2-0.2,0.4-0.2,0.5l-0.5,1.1l0,0l-0.5,1c-0.1,0.2-0.2,0.3-0.2,0.5l-0.5,1
		c-0.1,0.2-0.2,0.3-0.2,0.5l-0.4,0.9c-0.1,0.3-0.3,0.6-0.4,0.9l-0.4,0.8c-0.1,0.1-0.1,0.3-0.2,0.4c-4.9,9.3-5.8,96.8,67.8,117.3
		c2.5,0.5,4.9,0.9,7.3,1.1l1,0.1c2.4,0.2,4.6,0.2,6.8,0.1l0.9,0l0,0l0.9,0l0,0l0.9-0.1l0,0l0.9-0.1l0,0l0.9-0.1l0,0l0.8-0.1l0,0
		l0.8-0.1l0,0l0.8-0.1l0,0l0.8-0.1l0,0l0.8-0.1l0,0l1.1-0.2l0,0l0.7-0.1l0,0l1-0.2l0,0l1-0.2l0,0l0.6-0.1l0,0l0.9-0.2l0,0l0.8-0.2
		l0,0l1-0.2l0,0l0.9-0.2l0,0l0.7-0.2l0,0l0.9-0.3l0,0l0.8-0.3l0,0l-0.2,0.3l0,0l-0.2,0.4l0,0l-0.2,0.2l0,0l-0.2,0.3l0,0l-0.2,0.3l0,0
		l-0.3,0.3l0,0l-0.3,0.4l0,0l-0.3,0.4l0,0l-0.4,0.4c-0.1,0.1-0.1,0.1-0.2,0.2l-0.4,0.5c-0.2,0.2-0.4,0.5-0.7,0.7l-0.5,0.5
		c-5.8,5.6-19.1,14-45.7,13.3c-10.8,0-9.4,17,5.6,17.2c4.5,0-19.1,88.9-49.4,122c-3.4,3.3-2.5,5.3-0.5,6.6l0.3,0.2
		c0,0,0.1,0.1,0.1,0.1l0.3,0.1c0,0,0.1,0,0.1,0.1l0.3,0.1l0,0l0.3,0.1l0,0l0.3,0.1l0,0l0.3,0.1l0,0l0.5,0.2l0,0l0.3,0.1l0,0l0.3,0.1
		l0,0l0.3,0.1l0.3,0.1l0,0l0.6,0.2l0,0l1.4,0.4l0,0l0.5,0.1l0,0l0.3,0.1c0.1,0,0.1,0,0.2,0.1l0.4,0.1l0,0l0.4,0.2l0,0l0.5,0.2l0,0
		l0.8,0.3l0,0l0.6,0.3l0,0l0.6,0.3l0,0l1,0.5l0,0l1,0.5l0,0l0.7,0.4l0,0l0.8,0.4l0,0l1.2,0.6l0,0l0.8,0.4l0,0l1.2,0.7
		c0.1,0.1,0.3,0.2,0.4,0.2l1.2,0.7l0,0l0.8,0.5l0,0l0.8,0.5l0,0l0.8,0.5l0,0l0.8,0.5c0.1,0.1,0.3,0.2,0.4,0.3l0.8,0.5l0,0l0.8,0.5
		l0,0l0.8,0.5l0,0l0.8,0.5c0.4,0.3,0.7,0.5,1.1,0.8l0.7,0.5c0.9,0.7,1.7,1.3,2.4,2l-0.7,0l0,0l-1.1,0l0,0l-0.7,0l0,0l-0.8,0l0,0
		l-0.5,0l0,0l-0.5,0l0,0l-0.8,0l0,0l-0.6,0c-0.3,0-0.6,0-0.8,0.1l-0.5,0.1c-1.6,0.2-2.9,0.6-3.3,1.3c0,0.1-0.1,0.1-0.1,0.2l-0.1,0.2
		l0,0l-0.1,0.2l0,0l-0.1,0.2l0,0l-0.1,0.4l0,0l-0.5,2.2l0,0l-0.2,0.8l0,0l-0.2,0.7l0,0l-0.1,0.4l0,0l-0.1,0.5l0,0l-0.1,0.5
		c0,0.1,0,0.2-0.1,0.2l-0.2,0.5l0,0l-0.2,0.5l0,0l-0.2,0.5c-0.1,0.2-0.1,0.3-0.2,0.5l-0.2,0.5c-1.8,4-5.2,7.9-12.3,7.9
		c-8.4,0-12.9-5.2-15.2-11.1l-0.2-0.6l0,0l-0.2-0.6c-0.2-0.5-0.3-1-0.5-1.5l-0.2-0.6l0,0l-0.1-0.6l0,0l-0.1-0.6c0-0.1,0-0.2-0.1-0.3
		l-0.1-0.6c0-0.1,0-0.2-0.1-0.3l-0.1-0.6l0,0l-0.1-0.6l0,0l-0.1-0.6l0,0l-0.1-0.6l0,0l-0.1-0.5l0,0l0-0.5c0-0.1,0-0.2,0-0.3l0-0.5
		l0,0l0-0.5c0-0.1,0-0.2,0-0.2l0-0.5c0-0.1,0-0.2,0-0.2c0-4.7-2.9-6.5-5.8-7l-0.4-0.1c-0.4-0.1-0.8-0.1-1.1-0.1l-0.4,0
		c-0.1,0-0.1,0-0.2,0l-0.4,0l0,0l-0.3,0c-0.1,0-0.1,0-0.2,0l-0.3,0l0,0l-0.3,0l0,0l-0.3,0c0,0-0.1,0-0.1,0l-0.4,0.1l0,0l-0.3,0.1l0,0
		l-0.4,0.1l0,0l-0.5,0.2l0,0l-0.4,0.1l0,0l-0.5,0.2l0,0l-0.5,0.2l0,0l-0.3,0.1l0,0l-0.4,0.2l0,0l-0.4,0.2c-0.1,0-0.1,0.1-0.2,0.1
		l-0.4,0.2l0,0l-0.4,0.2l0,0l-0.4,0.2l0,0l-0.4,0.2c-0.2,0.1-0.4,0.3-0.6,0.4l-0.4,0.3c-0.1,0.1-0.3,0.2-0.4,0.3l-0.4,0.3
		c-3.2,2.5-6.5,6.6-7.9,13.5l-0.3,1.6l0,0l-0.3,1.6l0,0l-0.3,1.5l0,0l-0.2,0.8l0,0l-0.2,0.8l0,0l-0.2,0.8l0,0l-0.3,1.1l0,0l-0.2,0.8
		l0,0l-0.2,0.8l0,0l-0.2,0.8l0,0l-0.2,0.7l0,0l-0.2,0.7l0,0l-0.2,0.7l0,0l-0.2,0.7l0,0l-0.3,0.7l0,0l-0.3,0.7l0,0l-0.3,0.7l0,0
		l-0.3,0.7c0,0.1-0.1,0.2-0.1,0.3l-0.3,0.7l0,0l-0.3,0.7l0,0l-0.3,0.6c-0.1,0.1-0.1,0.2-0.2,0.3l-0.3,0.6c-2.9,5.5-7,9.3-13.1,9.3
		c-9.3,0-13.7-5-15.4-10.9l-0.1-0.5c0-0.1,0-0.2-0.1-0.3l-0.1-0.5c-0.1-0.3-0.1-0.5-0.1-0.8l-0.1-0.5c0-0.3-0.1-0.5-0.1-0.8l-0.1-0.5
		c0-0.1,0-0.2,0-0.3l0-0.5l0,0l0-0.5l0,0l0-0.3c0-1.3-0.6-1.6-1.8-1.5l-0.3,0l0,0l-0.3,0l0,0l-0.6,0.1l0,0l-0.8,0.1l0,0l-0.7,0.1
		c-0.1,0-0.2,0-0.2,0l-0.5,0.1c-2.1,0.2-4.7,0.2-7.6-1.1l1.5-0.9l0,0l1.1-0.7l0,0l1.3-0.8l0,0l1.5-1l0,0l0.8-0.5l0,0l1.3-0.9l0,0
		l1.4-0.9l0,0l1.5-1l0,0l1-0.7l0,0l1-0.7l0,0l1-0.7l0,0l1.1-0.8l0,0l1.1-0.8l0,0l1.1-0.8c0.2-0.1,0.4-0.3,0.5-0.4l1.1-0.8
		c0.2-0.1,0.4-0.3,0.5-0.4l1.1-0.8c8.2-6.4,15.5-13.6,13.6-17.7c-2.7-5.8-6.6-6.6-9.7-5.7l-0.3,0.1l0,0l-0.3,0.1l0,0l-0.3,0.1l0,0
		l-0.3,0.1l0,0l-0.3,0.1l0,0l-0.3,0.1l0,0l-0.3,0.1l0,0l-0.3,0.2l0,0l-0.3,0.2l0,0l-0.2,0.2l0,0l-0.2,0.2l0,0l-0.2,0.2l0,0l-0.2,0.2
		l0,0l-0.6,0.5l0,0l-0.6,0.5l0,0l-1,0.7l0,0l-1.2,0.9l0,0l-1.1,0.8l0,0l-0.9,0.6l0,0l-0.6,0.4l0,0l-0.9,0.7l0,0l-0.7,0.5l0,0
		l-0.7,0.5l0,0l-1.1,0.7l0,0l-0.7,0.5l0,0l-0.7,0.5l0,0l-0.8,0.5l0,0l-0.8,0.5c-0.1,0.1-0.3,0.2-0.4,0.2l-0.8,0.5l0,0l-0.8,0.5l0,0
		l-0.8,0.5l0,0l-0.8,0.4c-0.5,0.3-1.1,0.6-1.6,0.9l-0.8,0.4c-0.1,0.1-0.3,0.1-0.4,0.2l-0.8,0.4c-3.2,1.5-6.4,2.6-9.2,2.9
		c-10.8,1.4-16.4-14.3-9.9-25.4c1-1.6,0.2-2.6-1.3-3.5l-0.3-0.2c-0.1,0-0.1-0.1-0.2-0.1l-0.4-0.2l0,0l-0.6-0.3l0,0l-1.7-0.9l0,0
		l-0.4-0.2l0,0l-0.4-0.2c-0.1-0.1-0.3-0.2-0.4-0.3l-0.4-0.3c-1.2-0.7-2.3-1.6-3.1-2.7l1.5,0.2l0,0l1.3,0.2l0,0l1.7,0.2l0,0l1.5,0.2
		l0,0l2.2,0.2l0,0l1.8,0.2l0,0l1.3,0.1l0,0l2,0.2l0,0l2.1,0.2l0,0l1.5,0.1l0,0l1.5,0.1c0.2,0,0.5,0,0.8,0l1.5,0.1c0.3,0,0.5,0,0.8,0
		l1.5,0.1c13.9,0.5,28.9-0.4,28-6.9c-0.7-5.2-2.9-7.9-5.7-9.2l-0.4-0.2l0,0l-0.4-0.1c-0.5-0.2-1.1-0.3-1.6-0.4l-0.4-0.1l0,0l-0.4-0.1
		l0,0l-0.4,0c-0.1,0-0.3,0-0.4,0l-0.4,0c-0.1,0-0.1,0-0.2,0l-0.4,0c-0.1,0-0.1,0-0.2,0l-0.4,0l0,0l-0.4,0l0,0l-0.4,0
		c-0.1,0-0.1,0-0.2,0l-0.4,0.1l0,0l-0.4,0.1l0,0l-0.4,0.1l0,0l-0.6,0.1l0,0l-0.4,0.1l0,0l-0.5,0.1l0,0l-0.3,0.1l0,0l-0.3,0.1l0,0
		l-0.5,0.1l0,0l-0.3,0.1c-0.2,0.1-0.5,0.2-0.8,0.2l-0.4,0.1l0,0l-0.4,0.1c-0.1,0-0.1,0-0.2,0l-0.4,0.1l0,0l-0.4,0l0,0l-0.4,0l0,0
		l-0.5,0c-0.2,0-0.5,0-0.7,0l-0.5,0l0,0l-0.5,0c-0.1,0-0.2,0-0.3,0l-0.5,0l0,0l-0.5,0l0,0l-0.5-0.1l0,0l-0.5-0.1l0,0l-0.5-0.1
		c-0.1,0-0.2,0-0.3,0l-0.5-0.1l0,0l-0.5-0.1c-5.3-1.2-10.6-4.5-10.8-11.3c-0.1-3,1.1-5.1,2.4-6.7l0.4-0.5l0,0l0.5-0.7l0,0l0.7-0.8
		c1.1-1.4,2-2.7,1.9-4.5c-0.2-2.4-1.8-4.3-3.1-5.4l-0.3-0.3l0,0l-0.3-0.3l0,0l-0.3-0.2l0,0l-0.3-0.2l0,0l-0.3-0.2l0,0l-0.3-0.2l0,0
		l-0.4-0.2l0,0l0.4-0.1l0,0l0.6-0.1l0,0l0.6-0.1l0,0l0.7-0.1l0,0l0.6-0.1l0,0l0.6-0.1l0,0l0.7-0.1l0,0l0.5,0l0,0l0.7-0.1l0,0l0.5,0
		l0,0l0.5,0c0.1,0,0.2,0,0.3,0l0.6,0l0,0l0.6,0c0.1,0,0.2,0,0.3,0l0.6,0c0.1,0,0.2,0,0.3,0l0.6,0c0.1,0,0.2,0,0.3,0l0.6,0l0,0
		l0.6,0.1c0.2,0,0.4,0,0.7,0.1l0.7,0.1c2.3,0.3,4.8,0.9,7.2,1.9c2,0.9,4.3,2.8,6.8,5.2l0.7,0.7c0.1,0.1,0.2,0.2,0.4,0.4l0.7,0.8l0,0
		l0.7,0.8l0,0l0.8,0.8l0,0l1.1,1.2l0,0l4.4,4.8l0,0l1.2,1.3l0,0l0.8,0.9l0,0l0.8,0.9c0.1,0.1,0.3,0.3,0.4,0.4l0.8,0.9
		c0.3,0.3,0.6,0.6,0.9,0.9l0.9,0.9c6,6,12.4,10.8,18.7,10.8c15,0,26.5-22.5,26.5-67.8l0-4l0,0l0-3.7l0,0l0-2.3l0,0l0-2.2l0,0l0-2.1
		l0,0l0-2l0,0l0-1.9c0-0.3,0-0.6,0-0.9l-0.1-1.8c0-0.3,0-0.6,0-0.9l-0.1-1.7c-0.8-16.6-3-20.1-8.5-22.9l-0.6-0.3
		c-0.1,0-0.2-0.1-0.3-0.1l-0.6-0.3l0,0l-0.6-0.3l0,0l-3-1.3c-0.1-0.1-0.2-0.1-0.4-0.2c-0.9-0.4-1.1-1.4-1.1-2.6l0-0.4l0,0l0-0.4l0,0
		l0-1.4l0-0.6c0-0.1,0-0.1,0-0.2l0-0.4c-0.2-2.4-0.9-4.8-4-6.1c-6.7-2.7-16.4,10.7-15.3,64.4l-0.3-0.7l0,0l-0.5-1l0,0l-0.5-1.2l0,0
		l-0.4-1l0,0l-0.3-0.8l0,0l-0.4-0.9l0,0l-0.4-1l0,0l-0.3-0.7l0,0l-0.3-0.7l0,0l-0.4-1.1l0,0l-0.4-1.2l0,0l-0.3-0.8l0,0l-0.3-0.9l0,0
		l-0.3-0.9l0,0l-0.3-0.9l0,0l-0.3-1l0,0l-0.3-1l0,0l-0.3-1l0,0l-0.3-1l0,0l-0.3-1.1l0,0l-0.3-1.1l0,0l-0.3-1.1c0-0.2-0.1-0.4-0.1-0.6
		l-0.3-1.1c-0.1-0.6-0.3-1.2-0.4-1.8l-0.3-1.2c0-0.2-0.1-0.4-0.1-0.6l-0.2-1.2c-0.2-1-0.4-2.1-0.6-3.2l-0.2-1.3
		c-0.7-4.4-1.2-9.2-1.3-14.2c0-0.8,0-1.6,0.1-2.3l0-0.9l0,0l0.1-0.9l0,0l0.1-0.9l0,0l0.1-0.9l0,0l0.1-1.3l0,0l0.1-1.3l0,0l0.1-1.2
		l0,0l0.3-2.4l0,0l0.1-0.8l0,0l0.1-1.1l0,0l0.1-0.7c0-0.1,0-0.2,0-0.3l0-0.7c0-0.1,0-0.2,0-0.3l0-0.6c0.1-2.5-0.2-4.3-1.4-5.3
		c-0.7-0.6-1.8-0.1-3.1,1.2l-0.4,0.3l0,0l-0.4,0.4l0,0l-0.4,0.4l0,0l-0.6,0.7l0,0l-0.7,0.7l0,0l-2.8,3.1l0,0l-0.9,0.9l0,0l-0.6,0.6
		l0,0l-0.9,1l0,0l-0.6,0.7l0,0l-0.7,0.7l0,0l-0.7,0.7l0,0l-0.7,0.7l0,0l-0.7,0.7c-4.4,4.2-9.8,8.4-16.4,11.2l0.7-1.1l0,0l0.7-1.2l0,0
		l0.4-0.7l0,0l0.8-1.4l0,0l0.7-1.3l0,0l0.8-1.4l0,0l0.6-1.2l0,0l0.4-0.8l0,0l0.6-1.3l0,0l0.4-0.9l0,0l0.4-0.9l0,0l0.4-0.9l0,0
		l0.4-0.9c0.1-0.2,0.1-0.3,0.2-0.5l0.4-1l0,0l0.4-1l0,0l0.4-1c0.1-0.2,0.1-0.3,0.2-0.5l0.4-1l0,0l0.4-1c0.1-0.2,0.1-0.3,0.2-0.5
		l0.4-1l0,0l0.4-1c2-5.5,3.5-11.3,3.5-16.3c0-4.4-1.6-6.9-4-9.8l-0.8-0.9l0,0l-1.1-1.3l0,0l-0.6-0.7c-0.1-0.1-0.2-0.2-0.3-0.4
		l-0.6-0.7c-6-7.5-13.4-20.6-13.4-60.4c0-3,0.1-5.7,0.3-8.2l0.1-1.2c0-0.2,0-0.4,0.1-0.6l0.1-1.2c0.1-0.6,0.1-1.1,0.2-1.7l0.1-1.1
		c0.2-1.3,0.4-2.5,0.6-3.6l0.2-1c0-0.2,0.1-0.3,0.1-0.5l0.2-0.9l0,0l0.2-0.9l0,0l0.2-0.9l0,0l0.2-0.9l0,0l0.3-1.3l0,0l0.2-0.9l0,0
		l0.2-0.8l0,0l0.3-1.2l0,0l0.3-1.2l0,0l0.5-1.6l0,0l1.1-3.8l0,0l0.4-1.3l0,0l0.4-1.3l0,0l0.2-0.9l0,0l0.2-0.9l0,0l0.2-0.9l0,0
		l0.2-0.9l0,0l0.2-0.9l0,0l0.2-0.9l0,0l0.2-0.9c1-4.6,1.6-9.9,1.6-16.8c0-16.8-20.9-34.7-41.8-49.5l-2-1.4l0,0l-2-1.4
		c-0.3-0.2-0.7-0.5-1-0.7l-1.9-1.3l0,0l-1.9-1.3l0,0l-2.9-1.9l0,0l-2.8-1.9l0,0l-8.8-5.9l0,0l-3.2-2.2l0,0l-1.5-1l0,0l-1.5-1
		c-0.7-0.5-1.4-1-2.1-1.5c-0.4-0.3-0.9-0.6-1.3-1l-1.3-1c-0.2-0.2-0.4-0.3-0.7-0.5l-1.3-1c-0.2-0.2-0.4-0.3-0.7-0.5l-1.3-1
		c-0.4-0.3-0.9-0.7-1.3-1l-1.3-1l0,0l-1.3-1l0,0l-1.3-1c-0.2-0.2-0.4-0.3-0.6-0.5l-1.3-1l0,0l-1.3-1l0,0l-1.3-1l0,0l-1.2-1l0,0
		l-1.2-1l0,0l-1.2-1l0,0l-1.2-1l0,0l-1.2-1l0,0l-1.2-1c-0.2-0.2-0.4-0.3-0.6-0.5l-1.1-1l0,0l-1.1-1l0,0l-1.7-1.5l0,0l-1.6-1.5l0,0
		l-1-1l0,0l-1-1l0,0l-1-1l0,0l-1-0.9l0,0l-0.9-0.9l0,0l-1.4-1.3l0,0l-0.9-0.9l0,0l-1.3-1.3l0,0l-0.8-0.8l0,0l-0.8-0.8l0,0l-1.1-1.2
		l0,0l-0.7-0.7l0,0l-1-1.1l0,0l-0.9-1l0,0l-0.8-1l0,0l-0.5-0.6l0,0l-0.5-0.6l0,0l-0.4-0.5l0,0l-0.4-0.5c-0.1-0.1-0.1-0.2-0.2-0.2
		l-0.3-0.4l0,0l-0.3-0.4c-0.1-0.2-0.3-0.4-0.4-0.6c-0.9-1.5,0.8-4.7,3.7-8.8l0.7-1c0.1-0.2,0.2-0.3,0.4-0.5l0.7-1l0,0l0.8-1l0,0
		l1.2-1.6l0,0l3.8-5l0,0l0.9-1.2l0,0l0.9-1.2c0.1-0.2,0.3-0.4,0.4-0.6l0.9-1.2c0.3-0.4,0.6-0.8,0.8-1.2l0.8-1.2l0,0l0.8-1.2
		c5.5-8.1,9.2-15.9,4.7-19.8c-4.7-4-8.4-3.1-11.7,0.2l-0.4,0.4c-0.1,0.1-0.1,0.1-0.2,0.2l-0.4,0.4l0,0l-0.4,0.4
		c-0.1,0.1-0.1,0.1-0.2,0.2l-0.4,0.4l0,0l-0.3,0.4c-0.1,0.1-0.1,0.2-0.2,0.2l-0.3,0.5l0,0l-0.3,0.5l0,0l-0.3,0.5l0,0l-0.3,0.5l0,0
		l-0.3,0.5l0,0l-0.5,0.8l0,0l-0.5,0.8l0,0l-0.9,1.4l0,0l-1.4,2.3l0,0l-1,1.6l-0.9,1.5l0,0l-0.4,0.7c-1,1.6-2,3.2-3,4.6
		c-0.2,0.3-0.5,0.7-0.8,1l-0.8,1l0,0l-0.8,1c-0.3,0.3-0.5,0.7-0.8,1l-0.8,1c-0.1,0.2-0.3,0.3-0.4,0.5l-0.8,1
		c-0.1,0.2-0.3,0.3-0.4,0.5l-0.8,1l0,0l-0.8,0.9c-0.3,0.3-0.5,0.6-0.8,0.9l-0.8,0.9l0,0l-0.8,0.9c-0.1,0.1-0.3,0.3-0.4,0.4l-0.8,0.9
		l0,0l-0.8,0.8l0,0l-0.8,0.8l0,0l-0.8,0.8c-0.1,0.1-0.3,0.3-0.4,0.4l-0.8,0.8l0,0l-0.8,0.7l0,0l-0.8,0.7l0,0l-0.8,0.7l0,0l-0.7,0.7
		l0,0l-0.7,0.6l0,0l-0.7,0.6l0,0l-0.7,0.6c-0.1,0.1-0.2,0.2-0.3,0.3l-0.7,0.5l0,0l-0.6,0.5c-0.4,0.3-0.8,0.6-1.2,0.9l-0.6,0.4
		c-0.4,0.2-0.7,0.5-1.1,0.7c-1.2,0.7-1.6-1.1-1.6-4.3l0-0.9l0,0l0-0.9c0-0.2,0-0.3,0-0.5l0.1-1l0,0l0.1-1.1l0,0l0.2-3.4l0,0l0.2-2.5
		l0,0l0.1-1.9l0,0l0.1-1.3l0,0l0.1-1.3c0-0.7,0.1-1.3,0.1-2l0-1.3c0.3-10-0.6-19.6-6.8-19.6c-8,0-11.1,5.1-12,10.3l-0.1,0.5
		c0,0.3-0.1,0.5-0.1,0.8l-0.1,0.5c0,0.2,0,0.4,0,0.5l0,0.5l0,0l0,0.5c0,0.1,0,0.2,0,0.3l0,0.5l0,0l0,0.5l0,0l0,0.5l0,0l0,0.5l0,0
		l0,0.5l0,0l0,0.5l0,0l0.1,0.4l0,0l0.1,0.4l0,0l0.1,0.4l0,0l0.1,0.4l0,0l0.1,0.4l0,0l0.1,0.4l0,0l0.1,0.3c0,0.1,0,0.1,0,0.2
		c0.4,1.4-0.5,1.9-2.2,2.2l-0.4,0l0,0l-0.4,0l0,0l-0.4,0l0,0l-0.4,0l0,0l-2.8,0.1l0,0l-0.9,0.1l0,0l-0.6,0l0,0l-0.6,0.1l0,0l-0.6,0.1
		c-0.1,0-0.2,0-0.3,0l-0.6,0.1c-0.1,0-0.2,0-0.3,0l-0.6,0.1c-4.2,0.7-8.7,2.4-12.3,6.9l-0.9,1.1l0,0l-1.9,2.3l0,0l-0.8,1l0,0
		l-0.6,0.8l0,0l-0.6,0.8l0,0l-0.4,0.5l0,0l-0.4,0.5l0,0l-0.4,0.6l0,0l-0.4,0.6l0,0l-0.4,0.6l0,0l-0.4,0.6l0,0l-0.4,0.6l0,0l-0.4,0.6
		l0,0l-0.4,0.7l0,0l-0.4,0.7l0,0l-0.4,0.7c-0.1,0.1-0.1,0.2-0.2,0.4l-0.4,0.7l0,0l-0.4,0.7l0,0l-0.4,0.8l0,0l-0.4,0.8
		c-0.1,0.1-0.1,0.3-0.2,0.4l-0.4,0.8l0,0l-0.4,0.8c-0.1,0.1-0.1,0.3-0.2,0.4l-0.4,0.9c-2.1,5.3-4,11.8-5.2,20.3l-0.2-0.5l0,0
		l-0.2-0.6l0,0l-0.3-0.9l0,0l-0.2-0.6l0,0l-0.2-0.7l0,0l-0.2-0.8l0,0l-0.2-0.6l0,0l-0.2-0.6l0,0l-0.2-0.6l0,0l-0.2-0.7l0,0l-0.2-0.7
		l0,0l-0.2-0.7l0,0l-0.1-0.7l0,0l-0.1-0.8c0-0.3-0.1-0.5-0.1-0.8l-0.1-0.8c-0.1-0.4-0.1-0.8-0.2-1.3l-0.1-0.9c0-0.3-0.1-0.6-0.1-0.9
		l-0.1-0.9c-0.5-6.4-0.1-14.3,3.2-22.4c1.1-2.3-2.4-3-10.1-2.3l-1.2,0.1l0,0l-1.2,0.1c-0.8,0.1-1.7,0.2-2.7,0.3l-1.4,0.2l0,0
		l-1.5,0.2l0,0l-1.5,0.2c-0.3,0-0.5,0.1-0.8,0.1l-1.6,0.3l0,0l-1.7,0.3l0,0l-1.7,0.3l0,0l-1.8,0.3l0,0l-1.9,0.4
		c-0.3,0.1-0.6,0.1-0.9,0.2l-1.9,0.4c-0.3,0.1-0.7,0.1-1,0.2l-2,0.4l0,0l-2.1,0.4l0,0l-2.1,0.5l0,0l-2.2,0.5
		c-0.4,0.1-0.7,0.2-1.1,0.2l-2.3,0.5l0,0l-2.3,0.5l0,0l-2.4,0.5l0,0l-3.7,0.9l0,0l-2.5,0.6l0,0l-2.6,0.6l0,0l-2.6,0.6l0,0l-2.7,0.7
		l0,0l-2.7,0.7l0,0l-2.8,0.7c-0.5,0.1-0.9,0.2-1.4,0.4l-0.4,0.1c-0.1,0-0.3,0.1-0.4,0.1l-0.4,0.1c-2.5,0.8-3.9,2.3-4.6,5.1l-0.1,0.4
		c0,0.1,0,0.1,0,0.2l-0.1,0.4l0,0l-0.1,0.5c0,0.1,0,0.2,0,0.2l-0.1,0.5l0,0l0,0.5l0,0l0,0.5l0,0l0,0.6l0,0l0,0.6l0,0l0,0.6l0,0l0,0.6
		l0,0l0,0.6l0,0l0,1l0,0l0,0.7l0,0l0,0.7l0,0l0,0.8l0,0l0.1,1.6l0,0l0.1,1.2l0,0l0.1,1.3l0,0l0.3,3.7l0,0l0.1,2l0,0l0.1,1.9l0,0
		l0.1,1.2l0,0l0.1,1.8l0,0l0.1,1.7l0,0l0.1,1.6l0,0l0,1l0,0l0,1.5l0,0l0,1.4l0,0l0,1.4l0,0l0,0.9l0,0l0,0.8l0,0l0,0.8
		c0,0.1,0,0.3,0,0.4l0,0.8l0,0l0,0.8l0,0l0,0.7l0,0l-0.1,0.7l0,0l-0.1,0.7l0,0l-0.1,0.7l0,0l-0.1,0.7l0,0l-0.1,0.7l0,0l-0.1,0.6l0,0
		l-0.1,0.6l0,0l-0.1,0.6c0,0.1,0,0.2-0.1,0.3l-0.1,0.6l0,0l-0.1,0.6c0,0.1,0,0.2-0.1,0.3c-0.1,0.8-0.4,0.8-0.7,0.4l-0.1-0.1l0,0
		l-0.1-0.2l0,0l-0.1-0.2l0,0l-0.1-0.2c0,0,0-0.1-0.1-0.1l-0.1-0.3l0,0l-0.1-0.3l0,0l-0.1-0.3l0,0l-0.2-0.5l0,0l-0.2-0.5l0,0l-0.2-0.5
		l0,0l-0.2-0.6l0,0l-0.1-0.4l0,0l-0.3-0.9l0,0l-0.1-0.4l-0.1-0.3l0,0l-0.2-0.6c0-0.2-0.1-0.4-0.1-0.6l-0.1-0.6
		c-0.1-0.7-0.2-1.4-0.2-1.9c0-0.5-0.7-0.6-1.9-0.5l-0.4,0c-0.1,0-0.2,0-0.2,0l-0.5,0.1l0,0l-0.8,0.1l0,0l-2.4,0.4l0,0l-1,0.1l0,0
		l-0.7,0.1l0,0l-0.7,0.1l0,0l-0.7,0.1l0,0l-0.7,0.1c-6.8,0.6-14.6-0.2-14.6-10.1c0-6.4,1.4-9.5,3.1-11.5l0.3-0.3
		c0.1-0.1,0.3-0.3,0.4-0.4l0.3-0.2l0,0l0.3-0.2l0,0l0.3-0.2c0,0,0.1-0.1,0.1-0.1l0.3-0.2l0,0l0.3-0.2l0,0l0.3-0.2l0,0l0.4-0.3l0,0
		l0.8-0.5l0,0l0.5-0.3l0,0l0.3-0.2l0,0l0.3-0.2c1.6-1.1,2.8-2.6,2.8-5.9c0-10-6.5-16.1-17.1-16.1c-3.3,0-6.2,2.1-9.1,5.1l-0.6,0.6
		l0,0l-0.6,0.6c-0.1,0.1-0.2,0.2-0.3,0.3l-0.9,1l0,0l-2.5,2.8l0,0l-0.6,0.7l0,0l-0.6,0.7c-0.1,0.1-0.2,0.2-0.3,0.3l-0.7,0.7l0,0
		l-0.7,0.7c-4.2,4.3-9.1,8-15.7,8c-9.6,0-14.1-4.2-16.2-8.5l-0.2-0.4c-0.1-0.2-0.2-0.4-0.3-0.6l-0.2-0.4l0,0L5.2,426l0,0l-0.1-0.4
		l0,0L5,425.2l0,0l-0.1-0.4l0,0l-0.1-0.4c0-0.1,0-0.1,0-0.2l-0.1-0.4l0,0l-0.1-0.4l0,0l-0.1-0.4l0,0l-0.1-0.4l0,0l0-0.3l0,0l-0.1-0.5
		l0,0l0-0.5l0,0l0-0.4l0,0l0-0.4l0,0c0-1.8,0.6-3.4,1.3-5l0.7-1.7c0.6-1.4,1.1-2.8,1.1-4.2c0-3.6-4.5-7.5-6.6-7.7l-0.1,0
		c-2,0,0.2-2.9,7.2-2.7c0.2,0,0.4,0,0.7,0l0.5,0l0,0l0.6,0.1l0,0l1,0.1l0,0l1.1,0.1l0,0l3.8,0.5l0,0l1.4,0.2l0,0l1.5,0.2l0,0l1,0.1
		l0,0l1,0.1l0,0l1.1,0.1l0,0l1.1,0.1l0,0l1.1,0.1c11,0.7,23.3-0.2,23.7-9.6l0-0.5c0.1-3.2-1.7-4-4.7-4l-0.4,0c-0.1,0-0.1,0-0.2,0
		l-0.4,0l0,0l-0.5,0l0,0l-0.7,0l0,0l-1,0.1l0,0l-2.7,0.2l0,0l-0.8,0.1l0,0l-0.9,0.1l0,0l-0.9,0l0,0l-0.6,0l0,0l-0.6,0l0,0l-0.6,0l0,0
		l-0.6,0c-0.3,0-0.6,0-0.9,0l-3-0.1l0,0l-1.3-0.1l0,0l-0.7,0l0,0l-1.1-0.1l0,0l-0.7-0.1l0,0l-0.7-0.1l0,0l-0.8-0.1
		c-0.1,0-0.3,0-0.4,0l-0.8-0.1c-0.1,0-0.3,0-0.4-0.1l-0.8-0.1c-0.1,0-0.3,0-0.4-0.1l-0.8-0.1c-0.1,0-0.3,0-0.4-0.1l-0.8-0.2
		c-8.4-1.8-16.8-6.3-16.8-18.7c0-5.6,3.3-9,6.5-11l0.4-0.3c0.1-0.1,0.3-0.2,0.4-0.2l0.4-0.2c0.1,0,0.1-0.1,0.2-0.1l0.4-0.2l0,0
		l0.4-0.2l0,0l0.4-0.2l0,0l0.6-0.2l0,0l0.4-0.1l0,0l0.3-0.1l0,0l0.5-0.2l0,0l0.4-0.1l0,0l0.3-0.1l0,0l0.3-0.1l0,0l0.4-0.1l0,0
		l0.1-0.2l0,0l0.2-0.3l0,0l0.2-0.3l0,0l0.1-0.2l0,0l0.1-0.3l0,0l0.1-0.3l0,0l0.1-0.3c0.1-0.2,0.1-0.3,0.2-0.5l0.1-0.4
		c0.1-0.3,0.2-0.7,0.3-1.1l0.1-0.5c0.3-1.7,0.3-3.7-0.4-6.1c-0.5-1.8,1.4-1,4.6,1.2l0.7,0.5c0.1,0.1,0.2,0.2,0.3,0.2l0.7,0.5l0,0
		l0.7,0.6l0,0l0.8,0.6l0,0l0.8,0.6l0,0l1.2,1l0,0l0.8,0.7l0,0l0.9,0.7l0,0l0.9,0.7l0,0l0.9,0.7l0,0l0.9,0.8l0,0l0.9,0.8l0,0l0.9,0.8
		l0,0l0.9,0.8l0,0l0.9,0.8l0,0l1.3,1.2l0,0l1.3,1.2l0,0l1.3,1.2l0,0l1.2,1.2l0,0l0.8,0.8l0,0l1.1,1.1l0,0l0.7,0.7l0,0l0.7,0.7l0,0
		l0.7,0.7l0,0l0.6,0.7l0,0l0.6,0.6c0.1,0.1,0.2,0.2,0.3,0.3l0.5,0.6c0.7,0.8,1.3,1.4,1.7,2l0.2,0.2c2.8,3.8,5.9,4.2,8.3,3.5l0.3-0.1
		c0.2-0.1,0.3-0.1,0.5-0.2l0.3-0.1c0,0,0.1,0,0.1-0.1l0.3-0.1l0,0l0.3-0.1c0,0,0.1,0,0.1-0.1l0.3-0.2l0,0l0.2-0.2l0,0l0.2-0.2l0,0
		l0.2-0.2l0,0l0.2-0.2l0,0l0.2-0.2l0,0l0.2-0.2l0,0l0.2-0.1l0,0l0.1-0.1l0,0l0.1-0.1l0,0l0.2-0.3l0,0l0.2-0.2l0,0l0.2-0.2l0,0
		l0.2-0.3l0,0l0.1-0.2l0,0l0.1-0.2l0,0l0.1-0.2l0,0l0.1-0.2l0,0l0.1-0.2l0,0l0.1-0.2l0,0l0.1-0.3l0,0l0.1-0.3c0,0,0-0.1,0-0.1
		l0.1-0.3c0,0,0-0.1,0-0.1l0.1-0.3c0,0,0-0.1,0-0.1l0-0.3c0.4-2.6-0.6-5.9-5.8-9.1l-0.3-0.2c-7.7-4.6-10.2-8.4-10.8-14.7l-0.1-0.7
		c0-0.3,0-0.7-0.1-1l0-0.7c0-0.1,0-0.2,0-0.4l0-0.7l0,0l0-0.8c0-0.1,0-0.3,0-0.4c0-5.7,3.5-8.3,6.7-9.6l0.4-0.2l0,0l0.4-0.1l0,0
		l0.4-0.1l0,0l0.4-0.1l0,0l0.4-0.1l0,0l0.4-0.1c0.1,0,0.1,0,0.2,0l0.3-0.1l0,0l0.5-0.1l0,0l0.4-0.1l0,0l0.4-0.1l0,0l0.6-0.1l0,0
		c2-0.2,3.8-7.5,1.3-12.2l-0.1-0.2c-0.7-1.2-0.2-1.3,1-0.7l0.3,0.2l0,0l0.3,0.2c0.1,0,0.1,0.1,0.2,0.1l0.4,0.3c0.1,0,0.1,0.1,0.2,0.1
		l0.4,0.3l0,0l0.4,0.3c0.1,0.1,0.1,0.1,0.2,0.2l0.4,0.4l0,0l0.5,0.4c0.1,0.1,0.2,0.1,0.2,0.2l0.5,0.4l0,0l0.5,0.5
		c0.1,0.1,0.2,0.2,0.3,0.2l0.5,0.5c0.1,0.1,0.2,0.2,0.3,0.3l0.5,0.5c0.1,0.1,0.2,0.2,0.3,0.3l0.5,0.6c0.2,0.2,0.4,0.4,0.6,0.6
		l0.6,0.6c0.2,0.2,0.4,0.4,0.6,0.6l0.6,0.7l0,0l0.6,0.7c0.5,0.6,0.9,1.2,1.4,1.8l0.6,0.7c2.5,3.4,4.8,7.3,6.5,11.4
		c0.7,1.7,1,3.7,1.2,6l0,0.8c0,0.1,0,0.3,0,0.4l0,0.8l0,0l0,1.2l0,0l0.1,3.3l0,0l0,0.8c0,0.1,0,0.3,0,0.4l0,0.9l0,0l0,0.9l0,0
		l0.1,0.9c0.6,8,3,16,14.9,19.4l0.9,0.2l0,0l0.2,0l0,0l0.2,0l0,0l0.3,0l0,0l0.3,0l0,0l0.3,0l0,0l0.5,0l0,0l0.4,0l0,0l0.4,0l0,0l0.5,0
		l0,0l0.5,0l0,0l0.4,0l0,0l0.4,0l0,0l0.6-0.1l0,0l0.6-0.1l0,0l0.7-0.1l0,0l0.5-0.1l0,0l0.5-0.1l0,0l0.8-0.2l0,0l0.6-0.1l0,0l0.6-0.2
		l0,0l0.9-0.3l0,0l0.6-0.2c0.1,0,0.2-0.1,0.3-0.1l0.7-0.2l0,0l0.7-0.2l0,0l0.7-0.2l0,0l0.7-0.3l0,0l0.8-0.3l0,0l1.2-0.4l0,0l0.8-0.3
		l0,0l0.8-0.3l0,0l0.9-0.4l0,0l2.1-0.9l0,0l1.7-0.7l0,0l3-1.2l0,0l4-1.6l0,0l4.1-1.6l0,0l7.2-2.8l0,0l6.8-2.6l0,0l12.1-4.5l0,0
		l4.3-1.6l0,0l23.6-8.8l0,0l25.4-9.4l0,0l0.6-0.2l0,0l0.3-0.1l0,0l0.5-0.2l0,0l0.3-0.1l0,0l0.5-0.2l0,0l0.5-0.2l0,0l0.6-0.3l0,0
		l0.4-0.2l0,0l0.4-0.2l0,0l0.4-0.2c0.1,0,0.1-0.1,0.2-0.1l0.4-0.2c3.3-1.9,6.5-5.1,4.5-9.5c-3.6-7.9-18.6-8.6-35.9,5.2
		c-17.3,13.8,23.4-59.6,61.5-59.6c5.1,0,7.4-2.8,8.1-5.2l0.1-0.3c0.1-0.5,0.2-0.9,0.2-1.3c0-0.1,0-0.3,0-0.4l0-0.2
		c0-0.2,0-0.3-0.1-0.5l0-0.2l0-0.2l0,0l0-0.2l0,0l0-0.2l0,0l-0.1-0.3l0,0l-0.1-0.2l0,0l-0.1-0.2c0,0,0-0.1,0-0.1l-0.1-0.2l0,0
		l-0.1-0.2c0,0,0-0.1-0.1-0.1l-0.1-0.2c-0.1-0.1-0.2-0.3-0.3-0.4l-0.2-0.2c-0.1-0.1-0.1-0.1-0.2-0.2l-0.2-0.2
		c-0.1-0.1-0.1-0.1-0.2-0.2l-0.2-0.2l0,0l-0.2-0.2c-0.1-0.1-0.3-0.2-0.4-0.3l-0.3-0.2l0,0l-0.3-0.2c-0.1,0-0.1-0.1-0.2-0.1l-0.3-0.2
		c-0.1-0.1-0.2-0.1-0.4-0.2l-0.4-0.2c-0.3-0.1-0.5-0.2-0.8-0.3l-0.5-0.1l0,0l-0.5-0.1l0,0l-0.5-0.1c-0.1,0-0.2,0-0.3-0.1l-0.5-0.1
		c-0.1,0-0.2,0-0.3-0.1l-0.6-0.1c-0.4-0.1-0.8-0.1-1.2-0.2l-0.7-0.1l0,0l-0.7-0.1l0,0l-0.7-0.1l0,0l-0.8-0.1l0,0l-0.8,0
		c-0.1,0-0.3,0-0.4,0l-0.8,0c-0.1,0-0.3,0-0.4,0l-0.9,0c-0.1,0-0.3,0-0.5,0c-15.7,0-38,16.6-46.3,31.5c-0.4,0.6-1,0.6-1.9,0.2
		l-0.3-0.1l0,0l-0.3-0.2c0,0-0.1-0.1-0.1-0.1l-0.3-0.2l0,0l-0.3-0.2l0,0l-0.5-0.4l0,0l-1.9-1.5l0,0l-0.7-0.5l0,0l-0.7-0.5l0,0
		l-0.5-0.4l0,0l-0.5-0.4c-0.1-0.1-0.2-0.1-0.3-0.2l-0.5-0.4c-0.1-0.1-0.2-0.1-0.3-0.2L175,278c-0.1-0.1-0.2-0.1-0.3-0.2l-0.6-0.4
		c-0.3-0.2-0.6-0.4-0.9-0.5l-0.7-0.3c-3.8-1.9-8.6-3.5-14.6-3.5l-1.2,0c-0.4,0-0.8,0-1.2,0l-1.2,0c-0.2,0-0.4,0-0.6,0l-1.2,0
		c-0.2,0-0.4,0-0.6,0l-1.1,0.1l0,0l-1.1,0.1l0,0l-1.1,0.1c-0.2,0-0.4,0-0.5,0l-1,0.1l0,0l-1,0.1l0,0l-1,0.1l0,0l-1,0.1l0,0l-1,0.1
		l0,0l-1.4,0.2l0,0l-0.9,0.1c-0.1,0-0.3,0-0.4,0.1l-0.9,0.1l0,0l-0.8,0.1l0,0l-0.8,0.1l0,0l-0.8,0.1l0,0l-1.2,0.2l0,0l-1.1,0.2l0,0
		l-1,0.2l0,0l-1,0.2l0,0l-0.6,0.1l0,0l-1.2,0.3l0,0l-1.1,0.3l0,0l-0.8,0.2l0,0l-0.9,0.3l0,0l-0.6,0.2l0,0l-0.9,0.3l0,0l-0.6,0.2l0,0
		l-0.5,0.2l0,0c-0.9,0.3-0.6-0.9,0.8-2.8l0.3-0.4c0.2-0.2,0.3-0.4,0.5-0.7l0.4-0.5c4.4-5.1,14.2-12.8,28.3-13l0.7,0
		c2.4,0,3.5-2.4,2-5.8l-0.2-0.4c-0.2-0.4-0.5-0.9-0.8-1.4l-0.3-0.4c-1.1-1.6-2.8-3.3-5.2-5l-0.3-0.2c-0.9-0.7-2-1.5-3.1-2.6l-0.6-0.6
		c-0.1-0.1-0.2-0.2-0.3-0.3l-0.6-0.6c-0.1-0.1-0.2-0.2-0.3-0.3l-0.7-0.7c-0.1-0.1-0.2-0.2-0.3-0.4l-0.7-0.7l0,0l-0.7-0.7l0,0
		l-0.7-0.8l0,0l-0.7-0.8l0,0l-0.7-0.8l0,0l-1.1-1.3l0,0l-1.1-1.3l0,0l-1.1-1.3l0,0l-1.1-1.3l0,0l-1.5-1.8l0,0l-1.2-1.4l0,0l-1-1.3
		l0,0l-1.7-2.1l0,0l-1.7-2.1l0,0l-2.6-3.3l0,0l-3.5-4.6l0,0l-4.4-5.7l0,0l-1.1-1.5l0,0l-0.4-0.5c0,0-0.1-0.1-0.1-0.1
		c-1.3-1.6-3.1-1-5.2,1l-0.3,0.3c-0.1,0.1-0.2,0.2-0.3,0.4l-0.3,0.4l0,0l-0.3,0.4c-0.1,0.1-0.1,0.1-0.2,0.2l-0.4,0.4l0,0l-0.4,0.5
		l0,0l-0.4,0.5l0,0l-0.4,0.5l0,0l-0.4,0.5l0,0l-0.4,0.5l0,0l-0.4,0.6l0,0l-0.4,0.6l0,0l-0.4,0.6l0,0l-0.4,0.6l0,0l-0.6,0.9l0,0
		l-0.6,1l0,0l-0.6,1l0,0l-0.8,1.4l0,0l-0.6,1l0,0l-0.6,1.1l0,0l-0.6,1.1l0,0l-0.8,1.5l0,0l-0.6,1.1l0,0l-0.6,1.1l0,0l-0.4,0.8l0,0
		l-0.5,0.9c-1,2-2,4.1-2.9,6l-1.1,2.3l0,0c-0.6,1.4-1.2,1.1-1.8,0l-0.1-0.3l0,0l-0.1-0.3l0,0l-0.1-0.3l0,0l-0.1-0.3l0,0l-0.1-0.3
		c0-0.1,0-0.1-0.1-0.2l-0.2-0.5l0,0l-0.1-0.4l0,0l-0.1-0.4l0,0l-0.1-0.6l0,0l-0.1-0.6l0,0l-0.1-0.6l0,0l-0.1-0.6l0,0l-0.1-0.4l0,0
		l-0.1-0.6l0,0l0-0.4l0,0l-0.1-0.5l0,0l0-0.5l0,0l0-0.3l0,0l0-0.3l0,0c0-0.6-0.5-1.1-1.3-1.5l-0.3-0.2l0,0l-0.3-0.2l0,0l-0.4-0.2l0,0
		L91,227l0,0l-0.8-0.3l0,0l-1.6-0.6l0,0l-0.7-0.3l0,0l-0.7-0.3c-0.1,0-0.2-0.1-0.3-0.1l-0.5-0.2l0,0l-0.5-0.2l0,0l-0.5-0.3l0,0
		l-0.5-0.3c-4.2-2.3-8.4-6.2-8.4-14.5c0-13.1,9.6-15.7,17.1-15l0.6,0.1c0.3,0,0.6,0.1,0.8,0.1l0.6,0.1l0,0l0.5,0.1
		c0.2,0,0.4,0.1,0.5,0.1l0.5,0.1c0.2,0,0.3,0.1,0.5,0.1l0.5,0.1l0,0l0.5,0.1l0,0l0.4,0.2l0,0l0.4,0.2c6.7,2.7,14.1-6.4,13-13.8
		l-0.1-0.5c-0.1-0.7-0.3-1.5-0.6-2.3l-0.2-0.5c-2.5-6.5-9.4-12.7-20.5-12l-0.4,0c-13.3,1.1-29.2-7.3-29.2-20.2
		c0-5.8,2.1-8.8,4.5-10.5l0.4-0.2c0.1-0.1,0.2-0.2,0.4-0.2l0.4-0.2l0,0l0.4-0.2l0,0l0.4-0.2l0,0l0.4-0.2l0,0l0.5-0.2l0,0l0.5-0.2l0,0
		l1.7-0.7l0,0l0.5-0.2l0,0l0.3-0.1l0,0l0.3-0.1l0,0l0.3-0.1l0,0l0.3-0.1c0,0,0.1-0.1,0.1-0.1l0.2-0.2c0.3-0.2,0.6-0.5,0.8-0.8
		c2-3.1,1.8-10.5,0.7-12.8l-0.1-0.1c-0.1-0.2,0-0.3,0.2-0.2l0.2,0.1l0,0l0.2,0.1l0,0l0.2,0.1l0,0l0.2,0.1l0,0l0.3,0.2l0,0l0.3,0.2
		l0,0l0.5,0.3l0,0l0.4,0.2l0,0l0.6,0.4l0,0l0.8,0.6l0,0l0.7,0.5l0,0l0.5,0.4l0,0l0.7,0.6l0,0l0.8,0.6l0,0l1.1,0.9l0,0l1.1,0.9l0,0
		l0.9,0.7l0,0l0.9,0.8l0,0l0.6,0.5l0,0l0.9,0.8l0,0l0.9,0.8l0,0l0.9,0.9l0,0l0.6,0.6l0,0l0.6,0.6l0,0l0.6,0.6
		c0.1,0.1,0.2,0.2,0.3,0.3l0.6,0.6l0,0l0.9,0.9l0,0l0.6,0.6l0,0l0.6,0.6l0,0l0.6,0.6l0,0l0.6,0.7l0,0l0.6,0.7
		c0.2,0.2,0.4,0.4,0.6,0.7l0.6,0.7c0.1,0.1,0.2,0.2,0.3,0.3l2.3,2.8l0,0l1.3,1.6l0,0l0.7,0.9l0,0l0.7,0.8l0,0l0.7,0.8l0,0l0.6,0.7
		l0,0l0.4,0.4l0,0l0.6,0.6l0,0l0.4,0.4l0,0l0.4,0.4l0,0l0.4,0.3l0,0l0.3,0.3l0,0l0.3,0.3c0.1,0,0.1,0.1,0.2,0.1l0.3,0.3
		c0.1,0,0.1,0.1,0.2,0.1l0.3,0.2c0,0,0.1,0.1,0.1,0.1l0.3,0.2c0,0,0.1,0.1,0.1,0.1l0.3,0.2c1.7,0.9,2.9,0.8,4.2-0.2l0.2-0.2l0,0
		l0.2-0.2l0,0l0.2-0.2l0,0l0.2-0.2c0,0,0.1-0.1,0.1-0.1l0.2-0.2l0,0l0.2-0.2c0,0,0.1-0.1,0.1-0.1l0.2-0.2c0,0,0.1-0.1,0.1-0.1
		l0.1-0.2c0.1-0.1,0.1-0.3,0.2-0.4l0.1-0.3l0,0l0.1-0.3l0,0l0.1-0.3l0,0l0.1-0.3c0-0.1,0.1-0.2,0.1-0.3l0.1-0.3l0,0l0-0.3
		c0.3-2.6-0.6-6-4-10.2l-0.5-0.6c-0.6-0.7-1.3-1.5-2.1-2.3l-0.6-0.6c-0.2-0.2-0.4-0.4-0.6-0.6l-0.7-0.6c-0.5-0.4-0.9-0.8-1.4-1.3
		l-0.4-0.3c-11.1-9.3-11.1-19.9-7.4-27.8l0.3-0.5l0,0l0.3-0.5l0,0l0.3-0.5c0.1-0.2,0.2-0.3,0.3-0.5l0.3-0.5l0,0l0.3-0.5
		c0.1-0.1,0.1-0.2,0.2-0.2c0.4-0.4,1.2-0.5,2.3-0.5l0.4,0l0,0l0.4,0l0,0l0.5,0l0,0l0.5,0.1l0,0l0.5,0.1l0,0l1.1,0.2l0,0l2.3,0.4l0,0
		l0.9,0.1l0,0l0.6,0.1l0,0l0.6,0.1l0,0l0.6,0.1l0,0l0.6,0.1c0.1,0,0.2,0,0.3,0l0.6,0.1c4.3,0.3,8.5-0.3,10.2-4.1l0.1-0.3
		c1.5-3.9,3.1-0.8,4.4,5.2l0.2,0.9c0,0.1,0.1,0.3,0.1,0.4l0.2,0.9c0,0.2,0.1,0.3,0.1,0.5l0.2,0.9c0,0.2,0.1,0.3,0.1,0.5l0.2,1l0,0
		l0.1,1l0,0l0.1,1l0,0l0.1,1l0,0l0.1,1.1l0,0l0.2,1.6l0,0l0.1,1.1l0,0l0.1,1.1l0,0l0.2,1.6c0,0.2,0,0.4,0,0.5l0.1,1.1l0,0l0.1,1.1
		l0,0l0.1,1.1l0,0l0.1,1.6l0,0l0.1,1.1l0,0l0,1l0,0l0,1l0,0l0,1l0,0l0,1c0,0.2,0,0.3,0,0.5l0,0.9l0,0l0,0.9l0,0l0,0.9
		c0,0.1,0,0.3,0,0.4c-0.2,9.7,2.1,12.3,6,12.5l0.3,0l0,0l0.5,0l0,0l0.5,0l0,0l0.2,0l0,0l0.2,0l0,0l0.2,0l0,0l0.2,0c0,0,0.1,0,0.1,0
		l0.2,0l0,0l0.2-0.1c0.1,0,0.1,0,0.2-0.1l0.2-0.1c0.2-0.1,0.3-0.2,0.5-0.2l0.2-0.1c0.5-0.3,0.9-0.8,1.3-1.4l0.1-0.3
		c0.1-0.2,0.2-0.4,0.3-0.6l0.1-0.3c0.2-0.6,0.4-1.3,0.5-2.2l0.1-0.5l0,0l0-0.5l0,0l0-0.5l0,0l0-0.6l0,0l0-0.6l0,0l0-0.6
		c0-0.1,0-0.2,0-0.3l0-0.7l0,0l0-0.7l0,0l0-0.7l0,0l-0.1-0.8c0-0.1,0-0.3,0-0.4l-0.1-0.8c0-0.1,0-0.3,0-0.4l-0.1-0.9l0,0l-0.1-0.9
		l0,0l-0.1-0.9l0,0l-0.1-1l0,0l-0.1-0.5c-1.6-10.9,1-15.7,3.8-17.9l0.3-0.2c0,0,0.1-0.1,0.1-0.1l0.3-0.2l0,0l0.3-0.2l0,0l0.3-0.2l0,0
		l0.3-0.1c0,0,0.1,0,0.1-0.1l0.3-0.1l0,0l0.4-0.2l0,0l0.2-0.1l0,0l0.4-0.1l0,0l0.4-0.2l0,0l0.4-0.1l0,0l0.5-0.1l0,0l0.2-0.1l0,0
		l0.4-0.1c3-0.7,7.9-0.7,11.3,2.6l0.2,0.2c2.3,2.4,5.8,0.9,8.2-1.9l0.3-0.3c0.1-0.1,0.2-0.2,0.3-0.4l0.2-0.4c0.9-1.3,1.5-2.9,1.6-4.3
		l0-0.2l0,0l0.2,0.4l0,0l0.2,0.5l0,0l0.2,0.5l0,0l0.1,0.4l0,0l0.2,0.5l0,0l0.1,0.4l0,0l0.2,0.6l0,0l0.1,0.4l0,0l0.2,0.7l0,0l0.1,0.5
		l0,0l0.1,0.5l0,0l0.1,0.5l0,0l0.1,0.5l0,0l0.1,0.5l0,0l0.1,0.6c0,0.1,0,0.2,0,0.3l0.1,0.6l0,0l0.1,0.6l0,0l0,0.6l0,0l0,0.6
		c0.2,4.6-0.5,10.1-3.9,15.3c-1.5,2.4-3.5,4.6-5.6,6.8l-2.7,2.8l0,0l-0.9,1l0,0l-0.7,0.8l0,0l-0.4,0.5l0,0l-0.7,0.8l0,0l-0.4,0.5l0,0
		l-0.4,0.5c-0.1,0.1-0.1,0.2-0.2,0.3l-0.4,0.5l0,0l-0.4,0.5l0,0l-0.4,0.5l0,0l-0.4,0.6c-4.5,6.7-6.5,14.8,0.3,27.3l0.3,0.5l70.1,73.5
		l0.2,0l0,0l0.2,0l0,0l0.1,0l0,0l0.1,0l0,0l0.1,0l0,0l0.2,0l0,0l0.2,0l0,0l0.2-0.1l0,0l0.2-0.1c0.9-0.4,1.5-1.5-0.2-4.3l-0.2-0.2
		c-3.3-5.1-2.5-12.4-0.1-15.7l0.1-0.2l0.2,0.2l0,0l0.4,0.4l0,0l0.3,0.3l0,0l0.3,0.3l0,0l0.4,0.3l0,0l0.5,0.4l0,0l0.5,0.4l0,0l0.6,0.4
		l0,0l0.6,0.4l0,0l0.7,0.5c0.5,0.3,1,0.7,1.5,1l0.8,0.5c10.1,6.3,31.2,15.7,63.9,12.1c47.6-5.2,66.7-37.9,59.3-46L356,192l0,0
		l-0.7,0.7l0,0l-0.5,0.5l0,0L354,194l0,0l-0.7,0.6l0,0l-0.5,0.5l0,0l-0.6,0.5l0,0l-0.6,0.5l0,0l-0.6,0.5l0,0l-0.7,0.6l0,0l-0.7,0.6
		l0,0l-0.7,0.6l0,0l-0.8,0.6l0,0l-0.8,0.6l0,0l-0.8,0.6l0,0l-0.8,0.6c-0.1,0.1-0.3,0.2-0.4,0.3l-0.9,0.6
		c-7.7,5.5-18.3,11.3-29.1,11.3c-20.7,0-31-20.6-25.2-34.2l0.2,0.3l0,0l0.3,0.3l0,0l0.4,0.4l0,0l0.3,0.3l0,0l0.5,0.5l0,0l0.4,0.4l0,0
		l0.5,0.4l0,0l0.4,0.3l0,0l0.4,0.3l0,0l0.4,0.3l0,0l0.4,0.3l0,0l0.4,0.3l0,0l0.5,0.4l0,0l0.5,0.4c0.1,0.1,0.2,0.1,0.3,0.2l0.5,0.4
		l0,0l0.5,0.4l0,0l0.6,0.4c0.1,0.1,0.2,0.1,0.3,0.2l0.6,0.4c4.4,2.6,10.6,5,18.1,5c16.8,0,34.1-20.4,29.9-30.2
		c-0.8-1.8-3.6-1.5-8.4-0.1l-1.1,0.3c-0.2,0.1-0.4,0.1-0.6,0.2l-1.2,0.4l0,0l-1.3,0.4l0,0l-5.7,1.9l0,0l-2.4,0.8
		c-0.3,0.1-0.6,0.2-0.8,0.3l-1.7,0.6l0,0l-1.8,0.6c-15.2,4.8-37.2,10.4-65.9,10.4c-57.3,0-66.7-56.5-26.1-80.5l-0.1,0.3l0,0l-0.2,0.4
		l0,0l-0.4,0.8l0,0l-0.3,0.7c-4.7,11.4-22.4,63.3,43.2,63.3c15.8,0.1,29.9-1.6,41.3-3.7l1.7-0.3c1.1-0.2,2.3-0.4,3.3-0.7l1.6-0.3l0,0
		l1.6-0.3c0.3-0.1,0.5-0.1,0.8-0.2l1.5-0.3c0.2-0.1,0.5-0.1,0.7-0.2l1.4-0.3l0,0l1.4-0.3l0,0l1.3-0.3l0,0l1.2-0.3l0,0l1.2-0.3l0,0
		l1.1-0.3l0,0l1.6-0.5l0,0l1.5-0.4l0,0l1.3-0.4l0,0l1.2-0.4l0,0l1.4-0.4l0,0l1.2-0.4l0,0l1.2-0.4l0,0l0.7-0.3l0,0l-0.1-0.4l0,0
		l-0.1-0.5l0,0l-0.1-0.6l0,0l-0.1-0.4l0,0l-0.2-0.6l0,0l-0.1-0.4l0,0l-0.1-0.5l0,0l-0.2-0.5c0-0.1-0.1-0.2-0.1-0.2l-0.2-0.5
		c0-0.1-0.1-0.2-0.1-0.3l-0.2-0.5c-2.6-6.2-8.9-15.5-23.3-15.5c-12.7,0-20.3,7.8-24.3,14.2l-0.4,0.6l0,0l-0.4,0.6
		c-0.1,0.2-0.2,0.4-0.4,0.6l-0.3,0.6c-0.1,0.1-0.1,0.2-0.2,0.3l-0.3,0.6l0,0l-0.3,0.6l0,0l-0.3,0.5l0,0l-0.2,0.5l0,0l-0.2,0.5l0,0
		l-0.2,0.4l0,0l-0.2,0.6l0,0l-0.1,0.4l0,0l-0.2,0.5l0,0l-0.2,0.6l0,0l-0.1,0.3l0,0l-0.5-0.3l0,0l-0.6-0.4l0,0l-0.4-0.3l0,0l-0.5-0.4
		l0,0l-0.6-0.4l0,0l-0.4-0.3l0,0l-0.4-0.3l0,0l-0.4-0.4c-0.1-0.1-0.1-0.1-0.2-0.2l-0.7-0.6l0,0l-0.5-0.4l0,0l-0.5-0.5l0,0l-0.5-0.5
		c-0.1-0.1-0.2-0.2-0.2-0.2l-0.5-0.5c-4.7-5-9.7-12.9-7.7-23.3c0.4-1,1.6-1.6,3.2-2l0.4-0.1l0,0l0.5-0.1l0,0l0.5-0.1l0,0l0.7-0.1l0,0
		l2.4-0.4l0,0l0.8-0.2l0,0l0.5-0.1l0,0l0.6-0.1l0,0l0.5-0.1l0,0l0.5-0.1l0,0l0.5-0.2c4.2-1.2,7.9-3.7,7.9-9.9
		c0.2-3.4-1.6-4.5-3.2-4.9l-0.3-0.1l0,0l-0.3,0c0,0-0.1,0-0.1,0l-0.3,0l0,0l-0.2,0l0,0l-0.3,0l0,0l-0.3,0l0,0c-2.5,0-3.7,1.6-4.7,3.5
		l-0.2,0.5l0,0l-0.7,1.5l0,0l-0.2,0.5c-1.1,2.2-2.5,4.1-5.8,4.1c-7.3,0-7.6-20.5,7.6-20.9l0.5,0l0,0l0.5,0l0,0l0.7,0l0,0l0.7,0l0,0
		l0.6,0l0,0l0.4,0l0,0l0.5,0c0.1,0,0.2,0,0.2,0l0.5,0c0.1,0,0.2,0,0.2,0l0.5,0c3.3-0.3,7-1.5,7.2-4.9l0-0.3
		c0-6.6,20.9-14.7,59.7-14.7c3.1,0,6.1,0.1,8.8,0.1l2.1,0.1c4.7,0.2,9,0.5,12.8,0.9l1.6,0.2c2.1,0.2,4.1,0.5,5.9,0.8l1.4,0.2
		c0.7,0.1,1.3,0.2,1.9,0.3l1.2,0.2l0,0l1.2,0.2c0.2,0,0.4,0.1,0.6,0.1l1.1,0.2l0,0l1.1,0.2l0,0l1,0.2c0.2,0,0.3,0.1,0.5,0.1l0.9,0.2
		l0,0l0.9,0.2l0,0l0.8,0.2l0,0l0.8,0.2l0,0l0.8,0.2l0,0l0.7,0.2l0,0l0.7,0.2l0,0l0.6,0.2l0,0l0.6,0.2l0,0l0.5,0.2l0,0l0.5,0.2l0,0
		l0.7,0.3l0,0l0.6,0.2l0,0l0.7,0.3l0,0l0.4,0.2l0,0l0.5,0.2l0,0l0.3,0.2l0,0l0.1-0.4l0,0l0.2-0.5l0,0l0.2-0.5l0,0l0.2-0.4l0,0
		l0.1-0.3l0,0l0.2-0.5l0,0l0.2-0.3l0,0l0.2-0.4l0,0l0.2-0.4l0,0l0.2-0.4c0-0.1,0.1-0.1,0.1-0.2l0.2-0.4c0-0.1,0.1-0.1,0.1-0.2
		l0.3-0.4l0,0l0.3-0.4l0,0l0.3-0.4c0.1-0.1,0.1-0.1,0.2-0.2l0.3-0.4c0.1-0.1,0.1-0.1,0.2-0.2l0.4-0.4c0.3-0.4,0.6-0.7,1-1l0.4-0.4
		C417.8,69.5,422.4,67,429.2,67z M242.8,477h3.4l0,0l6.4,0l0,0l4.5,0l0,0l4.2,0l0,0l4,0l0,0l3.8,0l0,0l4.7,0.1l0,0l2.2,0l0,0l3.1,0.1
		l0,0l2,0l0,0l3.7,0.1l0,0l2.5,0.1l0,0l2.4,0.1l0,0l1.5,0.1l0,0l1.4,0.1l0,0l2,0.1l0,0l1.8,0.1c0.2,0,0.4,0,0.6,0l1.6,0.1l0,0l1,0.1
		l0,0l1,0.1l0,0l0.9,0.1l0,0l0.8,0.1l0,0l0.8,0.1l0,0l0.7,0.1l0,0l0.7,0.1l0,0l0.7,0.1l0,0l0.6,0.1l0,0l0.6,0.1l0,0l0.5,0.1l0,0
		l0.5,0.1l0,0l0.5,0.1l0,0l0.4,0.1c0.1,0,0.3,0.1,0.4,0.1l0.4,0.1c0.1,0,0.1,0,0.2,0.1l0.3,0.1l0,0l0.3,0.1l0,0l0.3,0.1
		c0,0,0.1,0,0.1,0.1l0.4,0.2l0,0l0.2,0.1l0,0l0.2,0.1l0,0c1.2,0.6,1.4,1.8,1.4,3.1l0,0.6l0,0l0,1.2l0,0l0,0.6c0,2.3,0.5,4.8,4.2,6.3
		l0.3,0.1c0.9,0.3,1.9,0.8,3,1.4l0.6,0.3l0,0l0.6,0.4l0,0l0.7,0.4l0,0l0.7,0.4l0,0l0.7,0.4l0,0l0.7,0.5l0,0l0.7,0.5
		c0.1,0.1,0.2,0.2,0.4,0.2l0.7,0.5c0.1,0.1,0.2,0.2,0.4,0.3l0.7,0.5c0.1,0.1,0.2,0.2,0.4,0.3l0.8,0.6l0,0l0.8,0.6l0,0l0.8,0.6
		c0.1,0.1,0.3,0.2,0.4,0.3l0.8,0.6c0.1,0.1,0.3,0.2,0.4,0.3l0.8,0.6l0,0l0.8,0.6c0.1,0.1,0.2,0.2,0.4,0.3l0.7,0.7l0,0l0.7,0.7
		c0.2,0.2,0.5,0.4,0.7,0.7l0.7,0.7l0,0l0.7,0.7c0.1,0.1,0.2,0.2,0.3,0.3l0.7,0.7c0.2,0.2,0.4,0.5,0.7,0.7l0.6,0.7
		c3.8,4.1,6.4,8.3,6.4,11.6c0,2.3-0.9,4.1-2.2,5.8l-0.3,0.4l0,0l-0.3,0.4l0,0l-0.3,0.4l0,0l-0.3,0.4l0,0l-0.9,1l0,0l-0.5,0.6l0,0
		l-0.5,0.6l0,0l-0.3,0.4c-0.1,0.1-0.1,0.1-0.2,0.2l-0.3,0.4c-0.1,0.1-0.1,0.1-0.2,0.2l-0.3,0.4c-2.4,3.2-3.4,6.8,1.2,12.8
		c3.1,4,6.2,6.6,9,8.3l0.6,0.3l0,0l0.5,0.3l0,0l0.5,0.3c0.1,0,0.2,0.1,0.3,0.1l0.5,0.2c0.5,0.2,1,0.4,1.6,0.6l0.5,0.2
		c0.2,0.1,0.5,0.2,0.7,0.2l0.5,0.1l0,0l0.5,0.1l0,0l0.5,0.1l0,0l0.5,0.1l0,0l0.4,0.1l0,0l0.4,0.1l0,0l0.4,0c0.1,0,0.1,0,0.2,0l0.4,0
		l0,0l0.4,0c0.1,0,0.1,0,0.2,0l0.4,0l0,0l0.4,0l0,0l0.5,0l0,0l0.3,0l0,0l0.3,0l0,0l0.6-0.1l0,0l0.4-0.1l0,0l0.7-0.1l0,0l0.2,0
		c0.7-0.1,0.7,0.1,0.1,0.6l-0.2,0.1l0,0l-0.3,0.2l0,0l-0.3,0.2c-0.1,0-0.1,0.1-0.2,0.1l-0.4,0.2l0,0l-0.4,0.2l0,0l-0.4,0.2
		c-0.1,0-0.2,0.1-0.2,0.1l-0.5,0.2c-0.1,0-0.2,0.1-0.3,0.1l-0.6,0.2l0,0l-0.6,0.2l0,0l-0.6,0.2l0,0l-0.7,0.2c-0.1,0-0.2,0.1-0.3,0.1
		l-0.7,0.2c-0.2,0.1-0.5,0.2-0.8,0.2l-0.8,0.2c-0.8,0.2-1.7,0.4-2.6,0.7l-0.9,0.2c-0.3,0.1-0.6,0.1-1,0.2l-1,0.2
		c-6.4,1.1-14.7,1.7-24.8,0.6c-5-0.6-9.9-1.3-14.5-2.1l-2.1-0.4c-0.4-0.1-0.7-0.1-1.1-0.2l-2.1-0.4l0,0l-3.1-0.6l0,0l-4.1-0.8l0,0
		l-5-1l0,0l-2.9-0.6l0,0l-1.9-0.4l0,0l-1.9-0.4c-10.6-2-20.7-3.3-31.1-2.4c-21.9,1.7-38,16.7-27,79l0.3,1.9l0,0.2l0,0l0,0.2l0,0
		l0,0.1l0,0l0,0.2l0,0l0,0.2l0,0l0.1,0.2l0,0l0.1,0.1l0,0l0.1,0.1l0,0l0.1,0.1c0,0,0,0,0,0.1l0.1,0.1l0,0l0.1,0.2l0,0l0.1,0.2
		c0,0,0,0.1,0.1,0.1l0.1,0.2l0,0l0.2,0.2c0,0,0.1,0.1,0.1,0.1l0.2,0.2c0.3,0.3,0.7,0.5,1.2,0.7l0.3,0.1c0.1,0,0.1,0,0.2,0.1l0.4,0.1
		c0.2,0.1,0.4,0.1,0.6,0.2l0.4,0.1l0,0l0.4,0.1c0.8,0.2,1.6,0.3,2.7,0.4l0.6,0c0.8,0,1.6,0.1,2.5,0l0.8,0
		c12.1-0.4,37.7,11.7,53.2,38.2l-0.7-0.4l0,0l-1.2-0.8l0,0l-1.4-0.9l0,0l-1.7-1.1l0,0l-1-0.6l0,0l-1-0.6l0,0l-1.1-0.6l0,0l-1.2-0.7
		l0,0l-1.2-0.7l0,0l-1.3-0.7l0,0l-1.3-0.7c-0.2-0.1-0.4-0.2-0.7-0.4l-1.4-0.8c-14.7-7.9-35.7-16.9-41.7-7.6c-4.6,6.6-2.1,13,3.7,15.2
		c1.4,0.6-2.7,2.3-9.7,4.6l-1.7,0.6l0,0l-1.8,0.6c-0.3,0.1-0.6,0.2-1,0.3l-2,0.6c-0.3,0.1-0.7,0.2-1,0.3l-2.1,0.6l0,0l-2.2,0.7l0,0
		l-2.3,0.7l0,0l-2.3,0.7l0,0l-4.8,1.4l0,0l-3.7,1l0,0l-3.7,1l0,0l-5,1.4l0,0l-4.9,1.4l0,0l-7.2,2l0,0l-12.9,3.5l0,0l-7.5,2l0,0
		l-3,0.8l0,0l-1.8,0.5l0,0l-0.6,0.2l0,0l-0.5,0.1c-0.1,0-0.1,0-0.2,0.1L157,699l0,0l-0.4,0.2l0,0l-0.3,0.1l0,0l-0.3,0.1l0,0l-0.2,0.1
		c0,0-0.1,0-0.1,0.1l-0.2,0.1c0,0-0.1,0-0.1,0.1l-0.2,0.1l0,0l-0.2,0.1l0,0l-0.2,0.1l0,0l-0.2,0.2l0,0l-0.2,0.2l0,0l-0.2,0.2
		c-0.2,0.2-0.3,0.3-0.5,0.5l-0.1,0.2c-0.9,1.5-0.5,3.6,2.6,6.3l0.4,0.4l0,0l0.4,0.4l0,0l0.5,0.4c0.3,0.3,0.7,0.5,1,0.8l0.6,0.4
		c0.2,0.1,0.4,0.3,0.6,0.4l0.6,0.4l0,0l0.7,0.4l0,0l1.4,0.9l0,0l1.1,0.7l0,0l1,0.7l0,0l1.4,0.9l0,0l1.3,0.9l0,0l1.6,1.1l0,0l0.9,0.6
		l0,0l0.9,0.6l0,0l1.1,0.8l0,0l1.1,0.8l0,0l0.8,0.6l0,0l0.7,0.6l0,0l0.9,0.7l0,0l0.9,0.7l0,0l0.8,0.6l0,0l0.4,0.3l0,0l0.5,0.4l0,0
		l0.5,0.4l0,0l0.4,0.4l0,0l0.3,0.2l0,0l0.2,0.2l0,0l0.2,0.2l0,0l0.2,0.2c0,0,0.1,0.1,0.1,0.1l0.2,0.2l0,0l0.1,0.2
		c0,0.1,0.1,0.1,0.1,0.2l0.1,0.1c0.2,0.4,0.1,0.6-0.3,0.6l-0.4,0l0,0l-1,0l0,0l-1.4-0.1l0,0l-1.1,0l0,0l-0.9,0l0,0l-0.9,0l0,0l-0.6,0
		l0,0l-0.6,0l0,0l-0.9,0c-0.1,0-0.2,0-0.3,0l-0.6,0l0,0l-0.6,0c-0.1,0-0.2,0-0.3,0l-0.6,0c-0.3,0-0.6,0.1-0.9,0.1l-0.6,0.1
		c-2.3,0.3-3.9,1-3.9,2.4l0,0.4l0,0l0,0.3l0,0l0,0.5l0,0l0,0.3c0,0.1,0,0.1,0,0.2l0,0.4l0,0l0,0.4l0,0l0,0.4l0,0l0,0.4l0,0l-0.1,0.4
		l0,0l-0.1,0.4l0,0l-0.1,0.4c-0.1,0.6-0.3,1.2-0.5,1.8l-0.2,0.4c-1.3,2.9-3.9,5.4-9.2,5.4c-9.6,0-14.6-4.6-14.6-11.9l0-2.5l0,0l0-1.1
		c0-1.1,0-2.3-0.1-3.4l0-0.6l0-0.6l0,0l0-0.6l0,0l-0.1-0.6c0-0.1,0-0.2,0-0.3l-0.1-0.6c0-0.1,0-0.2,0-0.3l-0.1-0.6
		c0-0.3-0.1-0.6-0.1-0.8l-0.1-0.6c0-0.1,0-0.2-0.1-0.3l-0.1-0.5c-1.1-4.6-3.6-8.2-9.1-8.2c-10.6,0-18.3,10.6-18.5,29l0,0.6
		c0,8.2-5.2,12.8-10.5,15.2l-0.5,0.2c-0.1,0-0.2,0.1-0.3,0.1l-0.5,0.2c-0.1,0-0.2,0.1-0.3,0.1l-0.5,0.2l0,0l-0.5,0.2
		c-0.1,0-0.2,0.1-0.3,0.1l-0.5,0.2l0,0l-0.5,0.1l0,0l-0.5,0.1l0,0l-0.5,0.1l0,0l-0.5,0.1l0,0l-0.5,0.1l0,0l-0.5,0.1l0,0l-0.4,0.1
		c-0.1,0-0.1,0-0.2,0l-0.4,0.1l0,0l-0.4,0l0,0l-0.4,0l0,0l-0.4,0l0,0l-0.3,0l0,0l-0.5,0l0,0c-0.1,0-0.3,0-0.4,0l-0.4,0
		c-4.9-0.4-12.9-4.4-12.9-13c0-1.3-1.6-2.1-3.9-2.5l-0.5-0.1l0,0l-0.5-0.1c-0.1,0-0.2,0-0.3,0l-0.5-0.1c-0.1,0-0.2,0-0.3,0l-0.5,0
		c-0.1,0-0.2,0-0.3,0l-0.5,0l0,0l-0.5,0l0,0l-0.5,0l0,0l-0.5,0l0,0l-0.5,0l0,0l-0.8,0c-0.1,0-0.2,0-0.3,0c-1,0-0.7-0.7,0.4-1.9
		l0.3-0.4c0.1-0.1,0.1-0.1,0.2-0.2l0.4-0.4l0,0l0.5-0.4l0,0l0.5-0.4l0,0l0.5-0.5l0,0l0.6-0.5l0,0l0.6-0.5l0,0l0.6-0.5l0,0l0.7-0.5
		l0,0l0.7-0.5l0,0l1.1-0.8l0,0l1.1-0.9l0,0l1.2-0.9l0,0l1.2-0.9l0,0l1.6-1.2l0,0l1.2-0.9l0,0l1.2-0.9l0,0l1.6-1.2l0,0l1.6-1.1l0,0
		l1.6-1.1l0,0l1.9-1.3l0,0l1.4-0.9l0,0l1-0.7l0,0l1.3-0.8l0,0l0.6-0.4l0,0l0.8-0.5l0,0l0.5-0.3c0.1,0,0.2-0.1,0.2-0.1
		c3.7-2.2,4.1-8.4,1.4-10.8l-0.4-0.4l0,0l-0.2-0.2l0,0l-0.2-0.2l0,0l-0.3-0.2l0,0l-0.3-0.2l0,0l-0.3-0.2l0,0l-0.3-0.2l0,0l-0.3-0.2
		l0,0l-0.3-0.2l0,0l-0.3-0.2l0,0l-0.3-0.2l0,0l-0.3-0.2c-0.1,0-0.1,0-0.2-0.1l-0.3-0.1c-2.9-1.1-6.8-1-11.4,3.2l-1.1,1
		c-7.3,6.6-14.8,11.1-22.7,11.1c-8.2,0-14.4-5.7-14.4-13.2c0-1.2,0.1-2.5,0.2-3.7l0.2-2.2l0,0l0.1-1l0,0l0.1-0.7l0,0l0-0.5l0,0l0-0.5
		l0,0l0-0.5l0,0l0-0.5c-0.1-3.9-1.4-7.3-7.3-10c-2.4-1.1-0.7-1.5,3.4-1.4l1.1,0c0.2,0,0.4,0,0.6,0l1.3,0l0,0l1.4,0l0,0l1.4,0.1l0,0
		l3.1,0.1l0,0l8.7,0.4l0,0l2.8,0.1l0,0l1.9,0.1l0,0l1.9,0.1l0,0l1.9,0.1l0,0l1.9,0.1c13.5,0.4,26.1-0.1,26.3-4.1
		c0.3-5.4-2.7-8.4-6-10l-0.4-0.2c-0.1-0.1-0.3-0.1-0.4-0.2l-0.4-0.2c-0.2-0.1-0.4-0.1-0.6-0.2l-0.4-0.1c-0.1,0-0.1,0-0.2-0.1
		l-0.4-0.1l0,0l-0.4-0.1l0,0l-0.4-0.1l0,0l-0.4-0.1l0,0l-0.4,0l0,0l-0.4,0c-0.1,0-0.1,0-0.2,0l-0.4,0l0,0l-0.4,0c-0.1,0-0.1,0-0.2,0
		l-0.3,0l0,0l-0.3,0l0,0l-2.5,0.3l0,0l-1.1,0.1l0,0l-0.9,0.1l0,0l-0.9,0.1l0,0l-1,0.1l0,0l-0.7,0l0,0l-0.7,0c-0.1,0-0.2,0-0.4,0
		l-0.7,0l0,0l-0.7,0l0,0l-0.7,0l0,0l-0.7,0l0,0l-0.8,0c-7.4-0.3-15.5-2.6-15.5-11.5c0-3.8,1.4-5.9,2.8-7.5l0.3-0.4l0,0l1-1l0,0
		l0.3-0.3c0.9-1,1.7-2.1,1.7-3.6c0.1-2.2-1.8-3.1-3.8-3.4l-0.4-0.1c-0.1,0-0.3,0-0.4-0.1l-0.4,0l0,0l-0.4,0l0,0l-0.4,0l0,0l-0.5,0
		l0,0l-0.3,0l0,0l-0.4,0l0,0l-0.4,0l0,0l-0.4,0l0,0l0.4-0.2l0,0l0.4-0.2l0,0l0.4-0.2l0,0l0.5-0.3l0,0l0.5-0.3l0,0l0.4-0.2l0,0
		l0.7-0.3l0,0l0.5-0.2l0,0l0.5-0.2l0,0l0.5-0.2l0,0l0.5-0.2l0,0l0.6-0.2l0,0l0.6-0.2l0,0l0.6-0.2c0.2-0.1,0.4-0.1,0.6-0.2l0.6-0.2
		c6-1.7,14.3-2,21.3,4.7c1.4,1.3,2.7,2.7,3.9,4.1l0.7,0.8c0.1,0.1,0.2,0.3,0.3,0.4l0.6,0.8l0,0l0.6,0.8l0,0l0.6,0.8l0,0l0.6,0.8l0,0
		l0.6,0.8l0,0l0.6,0.8l0,0l3.2,4.1l0,0l0.8,1.1l0,0l0.8,1.1l0,0l0.6,0.7l0,0l0.6,0.7c0.1,0.1,0.2,0.2,0.3,0.3l0.6,0.7
		c4.7,5.5,9.9,9.5,17.9,9.5c16,0,64.8-13.7,64.8-63.1c0-16.3-4.8-30.8-9.5-41.6l-0.6-1.3l0,0l-0.6-1.2c-0.1-0.2-0.2-0.4-0.3-0.6
		l-0.5-1.2l0,0l-0.5-1.1l0,0l-0.5-1.1l0,0l-0.8-1.6l0,0l-1-1.9l0,0l-0.9-1.8l0,0l-1.2-2.3l0,0l-0.5-1l0,0l-0.3-0.6l0,0l-0.3-0.6l0,0
		l-0.3-0.5l0,0l-0.2-0.5c-0.3-0.8-0.5-1.3-0.5-1.7c0-0.6,0.5-0.9,1.2-1.1l0.3,0c0.1,0,0.2,0,0.3,0l0.3,0l0,0l0.3,0l0,0l0.3,0l0,0
		l0.7,0l0,0l1.6,0l0,0l0.6,0l0,0l0.6,0l0,0l0.4,0c0.1,0,0.1,0,0.2,0l0.4,0l0,0l0.4-0.1c3.4-0.5,6.5-2.2,6.5-8.2
		c0-12.8-85.6-15.9-113,10.6l0-0.3l0,0l0.1-0.4l0,0l0.1-0.3l0,0l0.1-0.4l0,0l0.1-0.5l0,0l0.1-0.5c0-0.1,0-0.2,0.1-0.3l0.2-0.6
		c0-0.1,0.1-0.2,0.1-0.3l0.2-0.7c2.7-8.8,12.8-28.1,49-28.1c4.9,0,8.9,0.4,12.4,1l1,0.2l0,0l1,0.2l0,0l0.9,0.2l0,0l1.4,0.3l0,0
		l2.2,0.5l0,0l2.5,0.5l0,0l0.8,0.2l0,0l0.8,0.2l0,0l0.8,0.2l0,0l0.8,0.1l0,0l0.8,0.1l0,0l0.8,0.1c3.2,0.4,6.4,0.5,10.1-0.4
		c2.5-0.9,1.9-2.3-0.1-4.4l-0.4-0.4l0,0L147,515l0,0l-0.7-0.7l0,0l-2.1-2l0,0l-0.9-0.8c-0.1-0.1-0.2-0.2-0.3-0.3l-0.6-0.6
		c-0.2-0.2-0.4-0.4-0.6-0.6l-0.6-0.6c-0.1-0.1-0.2-0.2-0.3-0.3l-0.6-0.6c-4-4.4-7.7-10.1-6.8-17.5l0.4,0.4l0,0l0.6,0.7l0,0l0.7,0.8
		l0,0l0.7,0.7l0,0l0.6,0.6l0,0l0.5,0.4l0,0l0.7,0.7l0,0l0.5,0.5l0,0l0.6,0.5l0,0l0.6,0.5l0,0l0.6,0.5l0,0l0.6,0.5
		c0.1,0.1,0.2,0.2,0.3,0.3l0.7,0.5l0,0l0.7,0.5c6.2,4.8,15.1,9.9,24.9,9.9c1.5,0,3.2-1.4,5.4-3.7l1-1l0,0l1.9-1.9l0,0l0.8-0.8l0,0
		l0.8-0.8l0,0l0.9-0.9C188,490.6,205.9,477,242.8,477z M326,372.7c-3.6-0.2-6.8,2.5-7.1,6.1l0,0.4l0,0l-0.1,0.5l0,0l-0.1,0.4l0,0
		l-0.1,0.5l0,0l-0.1,0.6l0,0l-0.1,0.5l0,0l-0.1,0.5l0,0l-0.1,0.5l0,0l-0.2,0.6c-0.1,0.2-0.1,0.4-0.2,0.6l-0.2,0.6l0,0l-0.2,0.7
		c-0.2,0.7-0.5,1.4-0.8,2.1l-0.3,0.8c-3.6,7.9-11.8,19.6-30.7,29.2c-3.3,1.7-4.7,5.8-3,9.1c1.2,2.4,3.6,3.7,6,3.7c1,0,2.1-0.2,3-0.7
		c30.3-15.4,38.1-36.6,40.1-45.4l0.1-0.6c0-0.1,0-0.2,0.1-0.3l0.1-0.6l0,0l0.1-0.5l0,0l0.1-0.5l0,0l0.1-0.4l0,0l0.1-0.6l0,0l0-0.4
		l0,0l0-0.1C332.6,376.2,329.7,373,326,372.7z M375.5,368.7L375.5,368.7c-3.6,0-6.6,2.9-6.8,6.5l0,0.7l0,0l0,0.4l0,0l0,0.3l0,0
		l-0.1,0.6c0,0.1,0,0.1,0,0.2l-0.1,0.7l0,0l-0.1,0.5l0,0l-0.1,0.6l0,0l-0.1,0.6l0,0l-0.1,0.7c0,0.1,0,0.2-0.1,0.3l-0.1,0.7
		c-0.1,0.2-0.1,0.5-0.2,0.8l-0.2,0.8c-2.2,9-8.4,23.7-26.6,33.1c-3.3,1.7-4.6,5.8-2.9,9.2c1.2,2.3,3.6,3.7,6,3.7c1,0,2.1-0.2,3.1-0.8
		c26.3-13.7,32.8-36.4,34.4-47.1l0.1-0.8l0,0l0.1-0.8l0,0l0.1-0.7l0,0l0.1-0.7l0,0l0.1-0.6l0,0l0-0.5l0,0l0-0.5l0,0l0-0.4l0,0l0-0.6
		l0,0l0-0.3l0,0C382.2,371.7,379.2,368.7,375.5,368.7z M304.2,286.1c-3.2-1.8-7.3-0.6-9.1,2.7c-1.8,3.2-0.7,7.2,2.4,9.1l0.5,0.3l0,0
		l0.4,0.3l0,0l0.3,0.2l0,0l0.2,0.2l0,0l0.2,0.2l0,0l0.4,0.3l0,0l0.3,0.2l0,0l0.3,0.3c0.1,0,0.1,0.1,0.2,0.1l0.3,0.3l0,0l0.3,0.3l0,0
		l0.3,0.3c0.1,0.1,0.1,0.1,0.2,0.2l0.4,0.4l0,0l0.4,0.4c0.2,0.2,0.4,0.4,0.6,0.7l0.4,0.5c1.9,2.4,3.8,5.7,5,10.2
		c3.4,12.7-0.6,29.6-11.7,48.9c-1.9,3.3-0.8,7.4,2.5,9.3c1.1,0.6,2.2,0.9,3.4,0.9c2.3,0,4.6-1.2,5.8-3.4
		c13.2-23.1,17.5-43.2,12.8-59.7c-1.6-5.5-3.9-9.9-6.4-13.4l-0.4-0.6l0,0l-0.4-0.6c-0.1-0.2-0.3-0.4-0.4-0.6l-0.4-0.5
		c-0.1-0.1-0.1-0.2-0.2-0.3l-0.4-0.5c-0.1-0.1-0.1-0.2-0.2-0.2l-0.4-0.5l0,0l-0.4-0.5c-0.1-0.1-0.1-0.1-0.2-0.2l-0.4-0.4l0,0
		l-0.4-0.4l0,0l-0.4-0.4c-0.1-0.1-0.1-0.1-0.2-0.2l-0.4-0.4l0,0l-0.4-0.3l0,0l-0.6-0.5l0,0l-0.4-0.3l0,0l-0.5-0.4l0,0l-0.5-0.4l0,0
		l-0.3-0.2l0,0l-0.6-0.4l0,0l-0.5-0.3l0,0l-0.5-0.3l0,0l-0.5-0.3l0,0L304.2,286.1L304.2,286.1z M271.8,296.1c-1.8-3.2-5.8-4.3-9-2.6
		l-0.3,0.2l0,0l-0.4,0.2l0,0l-0.3,0.2l0,0l-0.5,0.3l0,0l-0.4,0.3l0,0l-0.4,0.3l0,0l-0.5,0.3l0,0l-0.5,0.4c-0.1,0.1-0.2,0.1-0.3,0.2
		l-0.6,0.5c-0.1,0.1-0.2,0.2-0.3,0.2l-0.6,0.5c-0.4,0.4-0.9,0.7-1.3,1.2l-0.7,0.6c-8.2,7.7-21.2,24.6-24.2,55c-0.4,3.7,2.3,7.1,6,7.4
		c0.2,0,0.5,0,0.7,0c3.4,0,6.4-2.6,6.7-6.1c2.5-25.4,12.7-39.2,19.1-45.6l0.5-0.5c0.1-0.1,0.2-0.2,0.3-0.3l0.5-0.5
		c0.1-0.1,0.2-0.2,0.2-0.2l0.5-0.4l0,0l0.5-0.4c0.1-0.1,0.1-0.1,0.2-0.2l0.4-0.3l0,0l0.4-0.3l0,0l0.5-0.4l0,0l0.4-0.3l0,0l0.4-0.3
		l0,0l0.4-0.2l0,0C272.6,303.5,273.6,299.4,271.8,296.1z M353.6,244.1c-3.2-1.9-7.2-0.9-9.2,2.3c-1.9,3.1-1,7.2,2,9.2l0.3,0.2l0,0
		l0.2,0.2l0,0l0.2,0.2l0,0l0.3,0.2l0,0l0.3,0.2l0,0l0.3,0.3l0,0l0.4,0.3l0,0l0.4,0.4c5.6,5.2,19,22.1,10.2,60.9
		c-0.8,3.7,1.4,7.3,5.1,8.2c0.5,0.1,1,0.2,1.5,0.2c3.1,0,5.8-2.1,6.6-5.3c10.8-47.8-8.2-69.1-15.8-75.4l-0.5-0.4l0,0l-0.5-0.4l0,0
		L355,245c-0.1-0.1-0.1-0.1-0.2-0.1l-0.5-0.4l0,0l-0.5-0.3l0,0L353.6,244.1L353.6,244.1z M623,102.6l0.1-0.6l0,0l0.3,0.8l0,0l0.5,1.1
		l0,0l0.4,0.8l0,0l0.6,1.3l0,0l0.3,0.7l0,0l0.6,1.2l0,0l0.6,1.2l0,0l0.5,0.9l0,0l0.5,0.9l0,0l0.5,0.9l0,0l0.5,0.9l0,0l0.6,1l0,0
		l0.6,1c5.8,9.8,15.1,21.3,25.4,19.7c2.6-0.5,3.3-2.8,3.1-6l0-0.5l0,0l-0.1-0.5c0-0.1,0-0.2,0-0.3l-0.1-0.6c0-0.1,0-0.2,0-0.3
		l-0.1-0.6l0,0l-0.1-0.6l0,0l-0.1-0.6l0,0l-0.1-0.6l0,0l-0.2-0.9l0,0l-0.2-0.9l0,0l-0.3-1.3l0,0l-0.4-1.6l0,0l-0.8-2.9l0,0l-0.3-1.1
		l0,0l-0.3-1.1l0,0l-0.2-1.1c-0.6-2.8-1.1-5.5-1-7.7l0.9,1.2l0,0l1.3,1.7l0,0l1.1,1.4l0,0l0.8,1.1l0,0l1.1,1.5l0,0l0.5,0.6l0,0l1,1.3
		l0,0l1.1,1.3l0,0l0.8,1l0,0l1.2,1.4l0,0l0.9,1l0,0l0.9,1l0,0l0.6,0.7l0,0l0.6,0.7l0,0l0.6,0.7l0,0l0.6,0.7l0,0l0.6,0.7l0,0l0.6,0.7
		l0,0l0.6,0.7l0,0l0.6,0.6l0,0l0.6,0.6c0.1,0.1,0.2,0.2,0.3,0.3l0.6,0.6c0.3,0.3,0.6,0.6,1,0.9l0.6,0.6c0.3,0.3,0.6,0.5,1,0.8
		l0.6,0.5c0.6,0.5,1.2,1,1.9,1.4l0.3,0.2c10,6.7,12.1,27.6,7,39.6c-1.1,3.5-2.9,6.9-4.9,10.2l-0.7,1.1l0,0l-0.7,1.1l0,0l-0.7,1.1l0,0
		l-0.7,1.1l0,0l-1.7,2.6l0,0l-0.7,1l0,0l-0.6,1l0,0l-0.6,1c-1.9,3.1-3.5,5.9-4,8.4c-0.5,2.4-1.7,5.5-3.4,9.3l-0.6,1.2
		c-0.3,0.6-0.6,1.3-0.9,1.9l-0.7,1.3c-0.7,1.3-1.4,2.7-2.2,4.2l-0.8,1.5c-0.1,0.2-0.3,0.5-0.4,0.7l-0.9,1.5c-0.6,1-1.2,2-1.8,3.1
		l-1,1.6c-0.2,0.3-0.3,0.5-0.5,0.8l-1,1.6c-0.2,0.3-0.3,0.5-0.5,0.8l-1,1.7c-0.2,0.3-0.4,0.6-0.5,0.8l-1.1,1.7
		c-0.2,0.3-0.4,0.6-0.6,0.9l-1.1,1.7c-0.2,0.3-0.4,0.6-0.6,0.9l-1.2,1.8c-0.6,0.9-1.2,1.8-1.8,2.7l-1.2,1.8c-0.4,0.6-0.8,1.2-1.3,1.8
		l-1.3,1.8c-0.2,0.3-0.4,0.6-0.6,0.9l-1.3,1.8c-0.2,0.3-0.4,0.6-0.7,0.9l-1.3,1.8c-0.2,0.3-0.5,0.6-0.7,0.9l-1.4,1.9
		c-0.2,0.3-0.5,0.6-0.7,0.9l-1.4,1.9c-0.5,0.6-0.9,1.2-1.4,1.9l-1.4,1.9c-1,1.2-1.9,2.5-2.9,3.7l-1.5,1.9c-2.3,2.8-4.6,5.6-6.9,8.3
		l-1.6,1.8L601,261.7l0.7-0.6l0,0l1-0.9l0,0l1-0.9l0,0l0.8-0.7l0,0l1.4-1.2l0,0l1-0.9l0,0l1.1-1l0,0l1.1-1l0,0l1.2-1.1l0,0l1.3-1.2
		l0,0l1.3-1.2c0.2-0.2,0.4-0.4,0.7-0.6l1.4-1.3c1.2-1.1,2.4-2.3,3.6-3.5l1.5-1.5l0,0l1.5-1.5c14.4-14.7,30.9-34.5,29.4-47.1l-0.3-0.1
		l0,0l-0.6-0.3l0,0l-0.5-0.2l0,0l-0.6-0.3l0,0l-0.5-0.2l0,0l-0.8-0.4l0,0l-0.6-0.3c-0.1-0.1-0.2-0.1-0.3-0.2l-0.6-0.3
		c-0.2-0.1-0.4-0.2-0.7-0.4l-0.7-0.4c-8-4.8-20.5-15.3-18.1-33.3l0.4,0.7l0,0l0.5,0.8l0,0l0.7,1l0,0l0.6,0.9l0,0l0.5,0.8l0,0l0.6,0.8
		l0,0l0.4,0.6l0,0l0.4,0.6l0,0l0.5,0.6c0.1,0.1,0.2,0.2,0.2,0.3l0.5,0.6l0,0l0.5,0.6c0.4,0.5,0.9,1,1.4,1.5l0.6,0.6
		c5,5.2,11.4,9.7,16.9,5.8c7.4-5.4,2-16.8-6.6-27.4l-0.7-0.9l0,0l-0.7-0.9l0,0l-0.8-0.9c-0.1-0.1-0.3-0.3-0.4-0.4l-0.8-0.9
		c-0.1-0.1-0.3-0.3-0.4-0.4l-0.8-0.9l0,0l-0.8-0.9l0,0l-0.8-0.8l0,0l-0.8-0.8l0,0l-0.8-0.8l0,0l-0.8-0.8l0,0l-0.8-0.8
		c-0.1-0.1-0.3-0.3-0.4-0.4l-0.8-0.8c-0.3-0.3-0.5-0.5-0.8-0.8c-6-5.6-8.7-12.9-9.8-19.2l-0.1-0.8c0-0.1,0-0.3-0.1-0.4l-0.1-0.8
		c0-0.1,0-0.3-0.1-0.4l-0.1-0.8l0,0L623,112l0,0l-0.1-0.8l0,0l-0.1-0.7l0,0l0-0.7l0,0l0-0.7l0,0l0-0.7l0,0l0-0.6l0,0l0-0.9l0,0l0-0.6
		l0,0l0-0.8l0,0l0-0.5l0,0l0.1-0.9l0,0l0.1-0.7l0,0L623,102.6L623,102.6z M382.4,156.1c-3.5-1.3-7.3,0.6-8.6,4.1
		c-1.2,3.5,0.6,7.4,4.1,8.7l1.1,0.4l0,0l1.1,0.4l0,0l1.1,0.4c0.2,0.1,0.4,0.1,0.6,0.2l1.1,0.4l0,0l1.1,0.4l0,0l1.1,0.5
		c0.2,0.1,0.4,0.2,0.5,0.2l1.1,0.5c0.2,0.1,0.4,0.2,0.5,0.2l1.1,0.5l0,0l1.1,0.5l0,0l1.1,0.5l0,0l1,0.5l0,0l1,0.5l0,0l1,0.5l0,0
		l1,0.5l0,0l1,0.5l0,0l1,0.5l0,0l1,0.5l0,0l1,0.5l0,0l0.9,0.5l0,0l0.9,0.5l0,0l0.9,0.5l0,0l0.9,0.5c0.1,0.1,0.3,0.2,0.4,0.3l0.9,0.5
		l0,0l0.8,0.5l0,0l0.8,0.5l0,0l0.8,0.5l0,0l0.8,0.5c0.1,0.1,0.2,0.2,0.4,0.2l0.7,0.5l0,0l0.7,0.5l0,0l0.7,0.5
		c0.1,0.1,0.2,0.2,0.3,0.2l0.6,0.5c0.2,0.2,0.4,0.3,0.6,0.5l0.6,0.5c0.2,0.2,0.4,0.3,0.6,0.5l0.5,0.4l0,0l0.5,0.4
		c0.1,0.1,0.2,0.1,0.2,0.2l0.4,0.4c1.4,1.3,2.2,2.5,2.5,3.6l-0.2,0.1l0,0l-0.3,0.1l0,0l-0.3,0.2l0,0l-0.3,0.1l0,0l-0.2,0.1l0,0
		l-0.3,0.1l0,0l-0.4,0.1l0,0l-0.3,0.1l0,0l-0.4,0.1l0,0l-0.3,0.1l0,0l-0.5,0.1l0,0l-0.5,0.1l0,0l-0.6,0.1l0,0l-0.4,0.1l0,0l-0.4,0.1
		l0,0l-0.5,0.1l0,0l-0.5,0.1l0,0l-0.8,0.1l0,0l-0.8,0.1l0,0l-0.6,0.1l0,0l-0.9,0.1l0,0l-0.6,0l0,0l-0.7,0l0,0l-1,0.1l0,0l-1.1,0.1
		l0,0l-1.2,0l0,0l-0.8,0l0,0l-0.8,0l0,0l-0.9,0l0,0l-1.3,0l0,0l-1.4,0l0,0l-1,0l0,0l-1.5,0l0,0l-0.5,0l-2.2,0c-2.6,0-5.1,1.4-6.2,3.9
		c-1.1,2.3-0.8,5,0.8,6.9l0.2,0.2l0,0l0.2,0.3l0,0l0.2,0.3l0,0l0.1,0.2l0,0l0.1,0.2l0,0l0.2,0.4l0,0l0.1,0.3l0,0l0.2,0.5l0,0l0.2,0.6
		l0,0l0.2,0.5l0,0l0.3,0.8l0,0l0.2,0.6l0,0l0.2,0.6l0,0l0.2,0.6c0,0.1,0.1,0.2,0.1,0.3l0.2,0.7c0.1,0.2,0.1,0.5,0.2,0.7l0.2,0.8
		c0.2,1.1,0.5,2.3,0.7,3.6l0.2,1c0.1,0.3,0.1,0.7,0.1,1.1l0.1,1.1c0.5,4.4,0.9,9.9,0.8,16.8l0,1.8c-0.1,4.6-0.3,9.8-0.8,15.6
		c-0.3,3.7,2.4,7,6.1,7.4c0.2,0,0.4,0,0.6,0c3.5,0,6.4-2.7,6.7-6.2l0.1-1.6l0,0l0.1-1.6l0,0l0.1-1.5l0,0l0.1-1.5l0,0l0.1-1.5l0,0
		l0.1-1.5l0,0l0.1-1.4l0,0l0.1-1.4l0,0l0-1.4l0,0l0-1.3l0,0l0-1.3l0,0l0-1.3l0,0l0-1.3l0,0l0-1.3l0,0l0-1.2l0,0l0-1.8l0,0l0-1.2l0,0
		l0-1.1l0,0l0-1.1l0,0l0-1.1l0,0l0-1.1l0,0l-0.1-1.1l0,0l-0.1-1.5l0,0l-0.1-1l0,0l-0.1-1.5l0,0l-0.1-0.9l0,0l-0.1-0.9l0,0l-0.1-1.3
		l0,0l-0.2-1.3l0,0l-0.1-0.8l0,0l-0.1-0.8l0,0l-0.1-0.8l0,0l-0.1-0.8l0,0L403,214l0,0l-0.1-0.7l0,0l-0.2-1.1l0,0l-0.1-0.7l0,0l-0.2-1
		l0,0l-0.2-1l0,0l-0.2-0.9l0,0l-0.2-0.6c0-0.1-0.1-0.2-0.1-0.3l0.5,0l0,0l1.1,0l0,0l1.1,0c9.1-0.5,17.1-2.1,21.7-6.5
		c2.4-2.4,3.7-5.4,3.7-8.7c0-11.9-15.8-22.2-29.7-29l-1.3-0.6c-0.2-0.1-0.4-0.2-0.6-0.3l-1.2-0.6l0,0l-1.2-0.6l0,0l-1.2-0.5l0,0
		l-1.2-0.5l0,0l-1.1-0.5l0,0l-1.7-0.7l0,0l-1.1-0.4l0,0l-1-0.4l0,0l-1.5-0.6l0,0l-0.9-0.4l0,0l-0.9-0.3l0,0l-1.2-0.5l0,0L382.4,156.1
		L382.4,156.1z M359.3,89.7h-31.7c-3.7,0-5.2,1.4-5.7,2.5l-0.1,0.2l0,0l-0.1,0.2l0,0l-0.1,0.2l0,0l0,0.2l0,0l0,0.2l0,0l0,0.2l0,0
		l0,0.2c0,2.6,1.1,4.9,2.1,6.4l0.3,0.4c0,0.1,0.1,0.1,0.1,0.2l0.2,0.3c0,0.1,0.1,0.1,0.1,0.2l0.2,0.3l0,0l0.3,0.4l0,0l0.3,0.3l0,0
		l0.3,0.3l0,0l0,0l18.1-0.3l0,0l0.3,0l0,0l0.4,0l0,0l0.3,0l0,0l0.4,0l0,0l0.4,0l0,0l0.4,0c1.7,0.1,3.6,0.6,3.6,1.8
		c0,1.7-2.9,3.1-6.4,4.2l-0.7,0.2c-0.1,0-0.2,0.1-0.3,0.1l-0.7,0.2l0,0l-0.7,0.2l0,0l-1,0.3l0,0l-0.7,0.2l0,0l-1,0.2l0,0l-1.4,0.3
		l0,0l-1,0.2l0,0l-1.3,0.2l0,0l-1.2,0.2l0,0l-1.3,0.2l0,0l-1.9,0.3l0,0l-0.7,0.1l0,0l1.4,1.5l0,0l0.5,0.6c0.1,0.1,0.1,0.1,0.2,0.2
		l0.3,0.4l0,0l0.3,0.3c0.1,0.1,0.1,0.1,0.2,0.2l0.4,0.3l0,0l0.4,0.3c2.3,2,5.2,3.4,10.7,3.4c7.6,0,11.4-4.7,13.4-9.4l0.2-0.6
		c0.1-0.3,0.2-0.6,0.3-0.8l0.2-0.6l0,0l0.2-0.5l0,0l0.1-0.5l0,0l0.1-0.5l0,0l0.1-0.5c0-0.1,0-0.2,0.1-0.3l0.1-0.5l0,0l0.1-0.5l0,0
		l0.1-0.5l0,0l0.1-0.5l0,0l0.1-0.4l0,0l0.1-0.4l0,0l0-0.4l0,0l0.1-0.7l0,0l0.1-0.8l0,0l0-0.6l0,0l0-0.1l0.3,0l0,0l0.4,0l0,0l0.2,0
		l0,0l0.3,0l0,0l0.3,0l0,0l0.3,0c0.1,0,0.1,0,0.2,0l0.3,0c0.1,0,0.1,0,0.2,0l0.3,0c1.9-0.2,4-1.1,4-4c0-2.9-2.1-4.2-3.9-4.7l-0.3-0.1
		l0,0l-0.3-0.1l0,0l-0.3-0.1c0,0-0.1,0-0.1,0l-0.4-0.1l0,0l-0.4,0l0,0l-0.4,0l0,0L359.3,89.7L359.3,89.7z M353.2,0.6l1.1-0.6l0,0
		l1,0.6l0,0l1.2,0.7l0,0l1.2,0.8l0,0l0.8,0.6l0,0l0.6,0.4l0,0l1.3,0.9l0,0l1,0.7l0,0l1.1,0.8l0,0l0.7,0.5l0,0l1.1,0.8l0,0l0.8,0.6
		l0,0l0.8,0.6l0,0l0.8,0.6l0,0l0.8,0.6c0.1,0.1,0.3,0.2,0.4,0.3l0.8,0.6l0,0l0.8,0.6c0.1,0.1,0.3,0.2,0.4,0.3l0.8,0.7l0,0l0.8,0.7
		l0,0l0.7,0.7l0,0l0.7,0.7l0,0l0.7,0.7c4.4,4.3,7.8,8.8,7.8,12.7c0,5.1-3.7,8.2-7.7,10l-0.6,0.2c-0.3,0.1-0.6,0.2-0.8,0.3l-0.6,0.2
		c-0.1,0-0.2,0.1-0.3,0.1l-0.5,0.2l0,0l-0.5,0.2l0,0l-0.5,0.2l0,0l-0.8,0.2l0,0l-0.5,0.1l0,0l-0.5,0.1l0,0l-0.7,0.2l0,0l-0.6,0.1l0,0
		l-0.6,0.1l0,0l-0.7,0.1l0,0l-0.8,0.1l0,0l-0.5,0.1l0,0c1.8,5.3,5,8.5,8.2,10.5l0.5,0.3l0,0l0.4,0.3c0.1,0.1,0.3,0.2,0.4,0.2l0.4,0.2
		l0,0l0.4,0.2l0,0l0.4,0.2c0.1,0,0.1,0.1,0.2,0.1l0.4,0.2c0.1,0,0.1,0.1,0.2,0.1l0.4,0.1c0.1,0,0.1,0,0.2,0.1l0.4,0.1l0,0l0.4,0.1
		l0,0l0.4,0.1l0,0l0.5,0.1l0,0l0.5,0.1l0,0l0.4,0.1l0,0l0.5,0.1l0,0l0.2,0l0,0l0.4,0.1l0,0l0.4,0l0,0l0.2,0h14.8c8.1,0,10-4.4,10-8.4
		l0-0.4c0-0.3,0-0.6,0-0.9l0-0.4c0-0.1,0-0.1,0-0.2l-0.1-0.4l0,0l-0.1-0.4l0,0l-0.1-0.4l0,0l-0.1-0.4l0,0l-0.1-0.5l0,0l-0.1-0.3l0,0
		l-0.1-0.4l0,0l-0.1-0.4l0,0l-0.2-0.5l0,0l-0.2-0.6l0,0l-0.4-0.1l0,0l-0.5-0.1l0,0l-0.4-0.1l0,0l-0.5-0.1l0,0l-0.4-0.1l0,0l-0.4-0.1
		l0,0l-0.4-0.1l0,0l-0.4-0.1l0,0l-0.5-0.1c-0.1,0-0.2-0.1-0.2-0.1l-0.5-0.2c-3.4-1.2-7.3-3.7-7.3-8.5c0-8.7,11.4-14.6,22.1-18.3
		l1.2-0.4c0.8-0.3,1.6-0.5,2.4-0.8l1.2-0.3c0.4-0.1,0.8-0.2,1.1-0.3l1.1-0.3l0,0l1.1-0.3c0.2,0,0.4-0.1,0.5-0.1l1-0.3l0,0l1-0.2l0,0
		l1-0.2l0,0l0.9-0.2l0,0l0.9-0.2l0,0l1.6-0.3l0,0l1.3-0.3l0,0l1.4-0.3l0,0l0.7-0.1l-4.4,13.4l0,0l0,0c-5,0-9,3.7-9,8.2
		c0,2.8,1.6,5.2,3.9,6.7l0.2,0.1L413.2,67H294.1l-8.9-32c3.3-1.2,5.7-4.1,5.7-7.6c0-4.5-4-8.2-9-8.2c-0.2,0-0.4,0-0.5,0l-0.5,0.1
		L277,5.9c0.3,0.1,0.6,0.1,1,0.2l0.7,0.1l0,0l0.7,0.2c0.1,0,0.2,0.1,0.4,0.1l0.8,0.2c0.1,0,0.3,0.1,0.4,0.1l0.8,0.2l0,0l0.9,0.2
		c0.1,0,0.3,0.1,0.4,0.1l0.9,0.3l0,0l0.9,0.3c0.2,0,0.3,0.1,0.5,0.1l0.9,0.3l0,0l1,0.3c0.2,0.1,0.3,0.1,0.5,0.2l1,0.3l0,0l1,0.4l0,0
		l1,0.4c0.2,0.1,0.3,0.1,0.5,0.2l1,0.4l0,0l1,0.4c0.2,0.1,0.3,0.1,0.5,0.2l1,0.4l0,0l1,0.4c0.8,0.4,1.7,0.8,2.5,1.2l1,0.5
		c8.4,4.2,15.6,9.5,15.6,14.9c0,5.2-3.3,8.1-6.7,9.6l-0.5,0.2c-0.2,0.1-0.5,0.2-0.7,0.3l-0.4,0.2c-0.1,0.1-0.3,0.1-0.4,0.1l-0.4,0.1
		l0,0l-0.4,0.1l0,0l-0.4,0.1l0,0l-0.6,0.1l0,0l-0.6,0.1l0,0l-0.5,0.1l0,0l-0.6,0.1l0,0l-0.6,0.1l0,0l-0.5,0.1l0,0l-0.1,0l0,0
		c0,6.4,3.2,9.7,6.5,11.3l0.4,0.2l0,0l0.4,0.2c0.1,0,0.1,0.1,0.2,0.1l0.4,0.2c0.1,0,0.1,0,0.2,0.1l0.4,0.1l0,0l0.4,0.1l0,0l0.4,0.1
		l0,0l0.4,0.1l0,0l0.4,0.1l0,0l0.4,0.1l0,0l0.4,0.1l0,0l0.3,0.1l0,0l0.3,0l0,0l0.5,0.1l0,0l0.4,0l0,0l0.5,0l0,0l0.4,0l0,0l0.5,0l0,0
		l0.1,0l0,0l16.2,0c5.1,0,7.9-2.4,9.4-5.2l0.2-0.4c0.1-0.3,0.3-0.6,0.4-0.8l0.2-0.4l0,0l0.1-0.4l0,0l0.1-0.4c0-0.1,0-0.1,0.1-0.2
		l0.1-0.4l0,0l0.1-0.4l0,0l0.1-0.4l0,0l0.1-0.4l0,0l0.1-0.4l0,0l0.1-0.6l0,0l0-0.4l0,0l0-0.4l0,0l0-0.5l0,0l0-0.3l0,0l0-0.4l0,0
		l0-0.4l0,0l0-0.6l0,0l0-0.7l-0.6-0.1l0,0l-0.4-0.1l0,0l-0.9-0.1l0,0l-0.7-0.1l0,0l-0.5-0.1l0,0l-0.8-0.2l0,0l-0.8-0.2l0,0l-0.9-0.2
		c-0.1,0-0.2-0.1-0.3-0.1l-0.6-0.2l0,0l-0.6-0.2c-0.3-0.1-0.6-0.2-0.9-0.3l-0.6-0.2c-0.1,0-0.2-0.1-0.3-0.1l-0.6-0.2
		c-3.5-1.4-6.7-3.6-6.7-6.9c0-7,6.7-14.2,13.5-19.7l0.8-0.7c0.1-0.1,0.3-0.2,0.4-0.3L342,8l0,0l0.8-0.6c0.1-0.1,0.3-0.2,0.4-0.3
		l0.8-0.6c0.1-0.1,0.3-0.2,0.4-0.3l0.8-0.6l0,0l0.8-0.5l0,0l0.8-0.5l0,0l0.7-0.5l0,0l0.7-0.5l0,0l1-0.7l0,0l1-0.6l0,0l1.1-0.7l0,0
		l0.8-0.5l0,0L353.2,0.6L353.2,0.6z M354.3,19.3c-5,0-9,3.7-9,8.2s4,8.2,9,8.2c5,0,9-3.7,9-8.2S359.3,19.3,354.3,19.3z"/>
</svg>
